<svg width="48" height="45" viewBox="0 0 48 45" fill="none" xmlns="http://www.w3.org/2000/svg">
<g clip-path="url(#clip0_4772_14644)" filter="url(#filter0_d_4772_14644)">
<path d="M36.3182 26.0506C35.7027 26.0506 35.2046 25.5235 35.2046 24.8721V8.37194C35.2046 7.7205 35.7027 7.19336 36.3182 7.19336C36.9338 7.19336 37.4318 7.7205 37.4318 8.37194V24.8721C37.4318 25.5235 36.9338 26.0506 36.3182 26.0506Z" fill="#FFE14D"/>
<path d="M29.4876 15.4431C29.4876 15.5373 29.4876 15.6316 29.4653 15.726L27.2603 34.4418C27.1713 35.0311 26.7035 35.479 26.1467 35.479H12.7832C12.2264 35.479 11.7586 35.0311 11.6696 34.4418L10.6673 26.0503L10.4 23.6932L9.73187 17.9888C9.73187 17.9888 9.44233 15.4902 9.4646 15.4431L19.4761 13.0859L29.4876 15.4431Z" fill="#99DDFF"/>
<path d="M37.432 24.8721V8.37194C37.432 7.7205 36.9339 7.19336 36.3184 7.19336V26.0506C36.9339 26.0506 37.432 25.5235 37.432 24.8721Z" fill="#FFBB33"/>
<path d="M19.4653 13.0885V35.479H26.1471C26.7039 35.479 27.1717 35.0311 27.2607 34.4418L29.4657 15.726C29.488 15.6316 29.488 15.5373 29.488 15.4431L19.4765 13.0859L19.4653 13.0885Z" fill="#66B3FF"/>
<path d="M29.488 15.4436C29.488 15.5379 29.488 15.6322 29.4658 15.7265C28.5588 19.0745 25.2903 22.9481 19.4654 24.8078C17.1127 25.5582 14.2195 26.0406 10.6678 26.0508H10.5564C9.44279 26.0508 6.07964 26.0508 5.18874 23.5758C4.07512 20.5115 8.19553 16.1507 9.55415 14.8307C9.48733 15.0429 9.46506 15.2315 9.46506 15.4436C9.44279 15.4907 9.73233 17.9893 9.73233 17.9893C8.2178 19.7572 6.926 21.8079 7.26008 22.7508C7.34917 22.9629 7.79462 23.6701 10.4005 23.6937H10.5564C14.2789 23.6937 17.1921 23.1413 19.4654 22.3179C25.0202 20.3056 26.7574 16.6748 27.165 15.5269C27.1754 15.497 27.1851 15.4695 27.194 15.4436C27.2608 15.2786 27.2831 15.1607 27.2831 15.1607C27.439 14.5243 28.0403 14.1472 28.6417 14.3122C29.1539 14.43 29.488 14.9015 29.488 15.4436V15.4436Z" fill="#F0F7FF"/>
<path d="M29.488 15.4436C29.488 15.5379 29.488 15.6322 29.4657 15.7265C28.5587 19.0745 25.2903 22.9481 19.4653 24.8078V22.3179C25.0201 20.3056 26.7573 16.6748 27.1649 15.5269C27.1753 15.497 27.185 15.4695 27.1939 15.4436C27.2607 15.2786 27.283 15.1607 27.283 15.1607C27.4389 14.5243 28.0402 14.1472 28.6416 14.3122C29.1539 14.43 29.488 14.9015 29.488 15.4436V15.4436Z" fill="#DFE7F4"/>
<path d="M24.3656 10.3048C23.4078 8.39551 21.5369 7.19336 19.4656 7.19336C17.3943 7.19336 15.5233 8.39551 14.5657 10.3048C11.6926 11.2005 9.86616 12.827 9.55435 14.8305C9.4876 15.0425 9.46533 15.2311 9.46533 15.4433H29.4883C29.4882 13.2041 27.5951 11.3184 24.3656 10.3048V10.3048Z" fill="#FFE14D"/>
<path d="M29.488 15.4434C29.488 13.2041 27.5949 11.3184 24.3653 10.3048C23.4076 8.39551 21.5366 7.19336 19.4653 7.19336V15.4434H29.488Z" fill="#FFBB33"/>
<path d="M41.8866 35.4792H30.7503C30.1348 35.4792 29.6367 34.952 29.6367 34.3006V30.7648C29.6367 26.8654 32.6339 23.6934 36.3185 23.6934C40.003 23.6934 43.0002 26.8654 43.0002 30.7648V34.3006C43.0002 34.952 42.5021 35.4792 41.8866 35.4792Z" fill="#F0F7FF"/>
<path d="M41.8865 35.4792C42.502 35.4792 43.0001 34.952 43.0001 34.3006V30.7648C43.0001 26.8654 40.0029 23.6934 36.3184 23.6934V35.4792H41.8865Z" fill="#99DDFF"/>
<path d="M36.3183 9.55C33.8627 9.55 31.8638 7.4357 31.8638 4.83568V3.6571C31.8638 3.00566 32.3619 2.47852 32.9774 2.47852H39.6591C40.2747 2.47852 40.7728 3.00566 40.7728 3.6571V4.83568C40.7728 7.4357 38.7739 9.55 36.3183 9.55ZM34.091 4.83568C34.091 6.1351 35.0893 7.19284 36.3183 7.19284C37.5472 7.19284 38.5455 6.1351 38.5455 4.83568H34.091Z" fill="#F0F7FF"/>
<path d="M40.7727 4.83568V3.6571C40.7727 3.00566 40.2746 2.47852 39.6591 2.47852H36.3182V4.83568H38.5455C38.5455 6.1351 37.5472 7.19284 36.3182 7.19284V9.55C38.7739 9.55 40.7727 7.4357 40.7727 4.83568V4.83568Z" fill="#99DDFF"/>
</g>
<defs>
<filter id="filter0_d_4772_14644" x="0" y="-1" width="48" height="48" filterUnits="userSpaceOnUse" color-interpolation-filters="sRGB">
<feFlood flood-opacity="0" result="BackgroundImageFix"/>
<feColorMatrix in="SourceAlpha" type="matrix" values="0 0 0 0 0 0 0 0 0 0 0 0 0 0 0 0 0 0 127 0" result="hardAlpha"/>
<feOffset dy="4"/>
<feGaussianBlur stdDeviation="2.5"/>
<feColorMatrix type="matrix" values="0 0 0 0 0 0 0 0 0 0 0 0 0 0 0 0 0 0 0.2 0"/>
<feBlend mode="normal" in2="BackgroundImageFix" result="effect1_dropShadow_4772_14644"/>
<feBlend mode="normal" in="SourceGraphic" in2="effect1_dropShadow_4772_14644" result="shape"/>
</filter>
<clipPath id="clip0_4772_14644">
<rect width="38" height="38" fill="white" transform="translate(5)"/>
</clipPath>
</defs>
</svg>
