<svg width="42" height="44" viewBox="0 0 42 44" fill="none" xmlns="http://www.w3.org/2000/svg">
<g filter="url(#filter0_d_4772_14771)">
<path d="M28.5001 19.9374H13.5002C12.9821 19.9374 12.5627 19.5181 12.5627 18.9999V3.93749C12.5627 3.41931 12.9821 3 13.5002 3H28.5001C29.0183 3 29.4376 3.41931 29.4376 3.93749V18.9999C29.4376 19.5181 29.0183 19.9374 28.5001 19.9374Z" fill="#B0FF80"/>
<path d="M21.0002 19.9374H28.5002C29.0184 19.9374 29.4377 19.5181 29.4377 18.9999V3.93749C29.4377 3.41931 29.0184 3 28.5002 3H21.0002V19.9374Z" fill="#66FF75"/>
<path d="M21.0001 18.998L22.8751 26.498L21.0001 34.9979H5.93774C5.41268 34.9979 5.00024 34.5854 5.00024 34.0604V19.9355C5.00024 19.4105 5.41268 18.998 5.93774 18.998H21.0001Z" fill="#99DDFF"/>
<path d="M12.5627 18.998H20.0627H21.0002V19.9355V34.0604V34.9979C20.5314 34.9979 20.0627 34.9979 20.0627 34.9979H12.5627C12.5627 34.9979 12.5627 34.9278 12.5627 34.7969C12.5627 32.9497 12.5627 18.998 12.5627 18.998Z" fill="#66B3FF"/>
<path d="M25.5892 13.8922L21.8393 6.39223C21.5024 5.72086 20.4963 5.72599 20.162 6.39223L16.412 13.8922C16.1814 14.3554 16.3681 14.9185 16.8314 15.1501C17.3051 15.3838 17.8607 15.1867 18.0893 14.7308L18.7677 13.374H23.2336L23.9119 14.7308C24.1403 15.1863 24.6958 15.3839 25.1699 15.1501C25.6332 14.9185 25.8199 14.3554 25.5892 13.8922V13.8922ZM19.7052 11.499L21.0006 8.90809L22.2961 11.499H19.7052Z" fill="#F0F7FF"/>
<path d="M13.5007 22.748H9.75073C9.23254 22.748 8.81323 23.1674 8.81323 23.6855C8.81323 23.889 8.81323 31.4639 8.81323 31.1855C8.81323 31.7037 9.23254 32.123 9.75073 32.123H13.5007C15.0516 32.123 16.3132 30.8614 16.3132 29.3105C16.3132 28.5876 16.0314 27.9343 15.5817 27.4355C16.0314 26.9368 16.3132 26.2835 16.3132 25.5605C16.3132 24.0097 15.0516 22.748 13.5007 22.748ZM10.6882 24.623H13.5007C14.0171 24.623 14.4382 25.0433 14.4382 25.5605C14.4382 26.0778 14.0171 26.498 13.5007 26.498H10.6882V24.623ZM13.5007 30.248H10.6882V28.373H13.5007C14.0171 28.373 14.4382 28.7933 14.4382 29.3105C14.4382 29.8277 14.0171 30.248 13.5007 30.248Z" fill="#F0F7FF"/>
<path d="M13.5173 22.3672H12.5798V24.2422H13.5173C14.0337 24.2422 14.4548 24.6624 14.4548 25.1797C14.4548 25.6969 14.0337 26.1172 13.5173 26.1172H12.5798V27.9921H13.5173C14.0337 27.9921 14.4548 28.4124 14.4548 28.9296C14.4548 29.4469 14.0337 29.8671 13.5173 29.8671H12.5798V31.7421H13.5173C15.0682 31.7421 16.3298 30.4805 16.3298 28.9296C16.3298 28.2067 16.0481 27.5534 15.5983 27.0547C16.0481 26.5559 16.3298 25.9026 16.3298 25.1797C16.3298 23.6288 15.0682 22.3672 13.5173 22.3672Z" fill="#DFE7F4"/>
<path d="M36.0626 19H21.0002V34.9999H36.0626C36.5877 34.9999 37.0001 34.5873 37.0001 34.0624V19.9375C37.0001 19.4124 36.5877 19 36.0626 19Z" fill="#FFE14D"/>
<path d="M28.5627 34.9999H36.0627C36.5809 34.9999 37.0002 34.5806 37.0002 34.0624V19.9375C37.0002 19.4193 36.5809 19 36.0627 19H28.5627V34.9999Z" fill="#FFBB33"/>
<path d="M29.4377 32.1249C26.8523 32.1249 24.7502 30.022 24.7502 27.4375C24.7502 24.8529 26.8523 22.75 29.4377 22.75C30.6919 22.75 31.8693 23.238 32.7537 24.1242C33.1181 24.4904 33.1181 25.0845 32.7519 25.4499C32.3858 25.8142 31.7906 25.816 31.4244 25.448C30.8952 24.917 30.1903 24.625 29.4377 24.625C27.8868 24.625 26.6252 25.8866 26.6252 27.4375C26.6252 28.9883 27.8868 30.2499 29.4377 30.2499C30.1903 30.2499 30.8952 29.9579 31.4244 29.4269C31.7906 29.0588 32.3857 29.0607 32.7519 29.4251C33.1181 29.7904 33.1181 30.3846 32.7537 30.7508C31.8693 31.6369 30.6919 32.1249 29.4377 32.1249V32.1249Z" fill="#F0F7FF"/>
<path d="M32.7535 30.7518C33.1179 30.3856 33.1179 29.7914 32.7517 29.4261C32.3855 29.0617 31.7904 29.0599 31.4242 29.4279C30.895 29.9589 30.1901 30.2509 29.4375 30.2509C29.1321 30.2509 28.8381 30.2013 28.5625 30.1109V32.0428C28.8462 32.0966 29.1384 32.1259 29.4375 32.1259C30.6917 32.1259 31.8691 31.6379 32.7535 30.7518V30.7518Z" fill="#DFE7F4"/>
<path d="M29.4375 22.75C29.1384 22.75 28.8462 22.7793 28.5625 22.8331V24.765C28.8381 24.6746 29.1321 24.625 29.4375 24.625C30.1901 24.625 30.895 24.917 31.4242 25.448C31.7904 25.8161 32.3855 25.8142 32.7517 25.4499C33.1178 25.0845 33.1178 24.4904 32.7535 24.1242C31.8691 23.238 30.6917 22.75 29.4375 22.75V22.75Z" fill="#DFE7F4"/>
<path d="M23.9116 14.7306C24.14 15.1861 24.6955 15.3837 25.1695 15.1499C25.6328 14.9182 25.8195 14.3552 25.5888 13.8919L21.8389 6.392C21.6706 6.05656 21.3353 5.89031 21.0002 5.89063V8.90785L22.2957 11.4988H21.0002V13.3738H23.2332L23.9116 14.7306Z" fill="#DFE7F4"/>
</g>
<defs>
<filter id="filter0_d_4772_14771" x="-3" y="-1" width="48" height="48" filterUnits="userSpaceOnUse" color-interpolation-filters="sRGB">
<feFlood flood-opacity="0" result="BackgroundImageFix"/>
<feColorMatrix in="SourceAlpha" type="matrix" values="0 0 0 0 0 0 0 0 0 0 0 0 0 0 0 0 0 0 127 0" result="hardAlpha"/>
<feOffset dy="4"/>
<feGaussianBlur stdDeviation="2.5"/>
<feColorMatrix type="matrix" values="0 0 0 0 0 0 0 0 0 0 0 0 0 0 0 0 0 0 0.2 0"/>
<feBlend mode="normal" in2="BackgroundImageFix" result="effect1_dropShadow_4772_14771"/>
<feBlend mode="normal" in="SourceGraphic" in2="effect1_dropShadow_4772_14771" result="shape"/>
</filter>
</defs>
</svg>
