<svg width="43" height="48" viewBox="0 0 43 48" fill="none" xmlns="http://www.w3.org/2000/svg">
<g clip-path="url(#clip0_4772_15035)" filter="url(#filter0_d_4772_15035)">
<path d="M5.32247 38.6733C4.89284 38.2384 4.89284 37.5339 5.32247 37.099L7.52231 34.7265C8.07872 34.1633 8.25918 33.3175 7.9842 32.5717C7.53309 31.3475 7.82955 29.9602 8.74256 29.0383L16.3217 21.3672C16.7513 20.9323 17.4474 20.9323 17.877 21.3672C18.3067 21.802 18.3067 22.5066 17.877 22.9414L10.2979 30.6136C9.99287 30.9224 9.89403 31.3845 10.0444 31.7921C10.6202 33.3512 10.242 35.2671 9.07767 36.4468L6.87783 38.6733C6.4482 39.1082 5.75217 39.1082 5.32247 38.6733V38.6733Z" fill="#F0F7FF"/>
<path d="M7.9842 32.5718C8.25918 33.3177 8.07872 34.1635 7.52231 34.7266L5.32247 37.0992C4.89284 37.534 4.89284 38.2386 5.32247 38.6734C5.75209 39.1083 6.4482 39.1083 6.87783 38.6734L9.07767 36.4469C10.242 35.2672 10.6201 33.3513 10.0444 31.7923C9.89403 31.3846 9.99287 30.9225 10.2979 30.6137L17.877 22.9414C18.3067 22.5066 18.3067 21.802 17.877 21.3672L7.7879 31.5789C7.80506 31.9137 7.86497 32.2483 7.9842 32.5718V32.5718Z" fill="#DFE7F4"/>
<path d="M15.1122 9.53084C14.8308 9.53084 14.5493 9.42322 14.3367 9.20687C12.194 7.01163 12.8364 7.68168 11.2324 6.05183C10.9618 5.77893 10.8521 5.38431 10.9403 5.00921C11.0262 4.63307 11.3012 4.33077 11.6621 4.20905L20.9942 1.06055L22.1221 2.90117L15.9071 9.19277C15.9028 9.19604 15.9006 9.20041 15.8964 9.20361C15.6815 9.42099 15.3958 9.53084 15.1122 9.53084V9.53084Z" fill="#FF9580"/>
<path d="M33.0094 28.0939C32.7503 27.8327 30.114 25.1753 29.8922 24.9508C29.6774 24.7334 29.5699 24.4485 29.5699 24.1637C29.5699 23.879 29.6774 23.594 29.8922 23.3767L36.1201 17.0742L37.9419 18.2136L34.8312 27.6591C34.7108 28.0244 34.4101 28.3016 34.0406 28.3907C33.6617 28.4793 33.2753 28.363 33.0094 28.0939V28.0939Z" fill="#FF6666"/>
<path d="M37.1399 1.87084L29.1325 12.2243L20.5752 1.33632C20.7511 1.11374 21.0591 0.980145 21.3891 1.00241L36.4141 1.53679C36.7 1.53679 36.9641 1.67038 37.1399 1.87084V1.87084Z" fill="#99DDFF"/>
<path d="M31.3324 12.2239L15.4716 23.802C15.1856 23.5348 15.0756 23.1341 15.1636 22.7555L20.2672 1.84812C20.3113 1.64766 20.4212 1.46953 20.5752 1.33594L31.3324 12.2239Z" fill="#FFE14D"/>
<path d="M37.6679 18.6371C37.5359 18.793 37.36 18.9043 37.162 18.9488L16.5055 24.1144C16.2022 24.1913 15.7494 24.1151 15.4717 23.8027L31.3325 7.77148L37.6679 18.6371Z" fill="#66B3FF"/>
<path d="M37.9979 17.8132C38.0199 18.1473 37.8879 18.4366 37.6678 18.637L29.1324 9.99797L37.1399 1.87109C37.3379 2.04914 37.4699 2.31633 37.4699 2.60579L37.9979 17.8132Z" fill="#FFBB33"/>
<path d="M19.6758 26.3129C19.5426 25.9128 19.1988 25.6225 18.7864 25.5628L14.1583 24.8939L13.4973 20.2106C13.4372 19.7931 13.1514 19.4452 12.7562 19.3125C12.3631 19.1799 11.9269 19.2843 11.6304 19.5811L6.96435 24.3038C6.67001 24.6017 6.56691 25.0431 6.69795 25.4432C6.83111 25.8433 7.17487 26.1336 7.58734 26.1934L12.2135 26.8622L12.8764 31.5466C12.9365 31.9641 13.2223 32.312 13.6175 32.4457C14.0035 32.5747 14.4392 32.4822 14.7433 32.1761L19.4094 27.4523C19.7037 27.1544 19.8068 26.713 19.6758 26.3129Z" fill="#FF9580"/>
<path d="M12.8762 31.5468C12.9363 31.9643 13.2221 32.3122 13.6173 32.4459C14.0033 32.5749 14.439 32.4825 14.7431 32.1763L19.4091 27.4525C19.7035 27.1545 19.8066 26.7132 19.6755 26.3131C19.5424 25.9129 19.1986 25.6227 18.7861 25.5629L14.3638 24.9238L12.2428 27.0706L12.8762 31.5468Z" fill="#FF6666"/>
</g>
<defs>
<filter id="filter0_d_4772_15035" x="-2" y="0" width="48" height="48" filterUnits="userSpaceOnUse" color-interpolation-filters="sRGB">
<feFlood flood-opacity="0" result="BackgroundImageFix"/>
<feColorMatrix in="SourceAlpha" type="matrix" values="0 0 0 0 0 0 0 0 0 0 0 0 0 0 0 0 0 0 127 0" result="hardAlpha"/>
<feOffset dy="4"/>
<feGaussianBlur stdDeviation="2.5"/>
<feColorMatrix type="matrix" values="0 0 0 0 0 0 0 0 0 0 0 0 0 0 0 0 0 0 0.2 0"/>
<feBlend mode="normal" in2="BackgroundImageFix" result="effect1_dropShadow_4772_15035"/>
<feBlend mode="normal" in="SourceGraphic" in2="effect1_dropShadow_4772_15035" result="shape"/>
</filter>
<clipPath id="clip0_4772_15035">
<rect width="38" height="38" fill="white" transform="translate(3 1)"/>
</clipPath>
</defs>
</svg>
