<svg width="46" height="46" viewBox="0 0 46 46" fill="none" xmlns="http://www.w3.org/2000/svg">
<g filter="url(#filter0_d_4772_13970)">
<path d="M33.8657 14.0972L27.8713 8.10384C27.5715 7.80299 27.4811 7.35123 27.6433 6.95792C27.8055 6.56672 28.1855 6.31102 28.6106 6.30898C28.6085 6.29153 32.0379 5.46189 34.0772 3.43915L35.5414 1.9544C36.7406 0.753042 38.8332 0.758229 40.0202 1.94928C41.2523 3.18247 41.2523 5.1888 40.0202 6.42198C40.0181 6.42303 40.016 6.42506 40.016 6.42709L38.5231 7.89951C36.5353 9.90584 35.7077 13.2377 35.6399 13.5232C35.5701 13.8661 35.338 14.169 35.0115 14.3045C34.6153 14.4673 34.1651 14.3965 33.8657 14.0972ZM39.2768 5.67862H39.2973H39.2768Z" fill="#FFE14D"/>
<path d="M33.8656 14.097C34.1649 14.3963 34.6151 14.4671 35.0115 14.3044C35.338 14.1689 35.5701 13.866 35.6399 13.5231C35.7077 13.2377 36.5352 9.90577 38.5231 7.89944L40.016 6.42703C40.016 6.425 40.0181 6.42289 40.0202 6.42191C41.2523 5.18873 41.2523 3.1824 40.0202 1.94922L30.8687 11.1006L33.8656 14.097Z" fill="#FFBB33"/>
<path d="M32.2322 18.2625C31.9632 18.2625 31.6942 18.1598 31.4889 17.9544L24.0446 10.5103C23.8475 10.3121 23.7366 10.0442 23.7366 9.76386C23.7366 9.4846 23.8495 9.21656 24.0487 9.01945L27.1565 5.90176C27.5672 5.49108 28.2326 5.49108 28.6433 5.90176L36.067 13.3253C36.4756 13.7329 36.4777 14.3942 36.0732 14.8049L32.9757 17.9544C32.7703 18.1598 32.5013 18.2625 32.2322 18.2625V18.2625Z" fill="#99DDFF"/>
<path d="M31.4888 17.9561C31.6942 18.1615 31.9632 18.2642 32.2321 18.2642C32.5011 18.2642 32.7702 18.1615 32.9755 17.9561L36.073 14.8066C36.4775 14.3959 36.4755 13.7346 36.0668 13.327L32.355 9.61523L27.7666 14.2341L31.4888 17.9561Z" fill="#66B3FF"/>
<path d="M12.752 34.9035L7.09648 29.247C4.94841 27.0989 4.17632 23.0657 6.35922 20.8828C7.94869 19.2933 9.21159 18.8518 10.3267 18.4637C11.4089 18.0858 12.3434 17.7593 13.7192 16.3834C15.1444 14.9572 15.8097 13.5012 16.4545 12.0925C17.0377 10.8162 17.6415 9.49678 18.7668 8.3714C19.5739 7.55101 20.6581 7.09308 21.8164 7.08789H21.8328C22.9704 7.08789 24.0363 7.52837 24.8371 8.32927L33.6696 17.1617C34.4746 17.9666 34.9141 19.0386 34.91 20.1825C34.9058 21.3376 34.4499 22.4209 33.6265 23.2331C32.5011 24.3585 31.1827 24.9602 29.9074 25.5434C28.4987 26.1872 27.0427 26.8525 25.6155 28.2787C24.2396 29.6546 23.9131 30.59 23.5352 31.6722C23.1471 32.7863 22.7056 34.0492 21.1161 35.6386C18.9368 37.818 14.9029 37.0543 12.752 34.9035V34.9035Z" fill="#F0F7FF"/>
<path d="M12.7522 34.9041C14.9031 37.055 18.9371 37.8187 21.1164 35.6393C22.7059 34.0498 23.1474 32.7869 23.5355 31.6728C23.9134 30.5906 24.2399 29.6552 25.6158 28.2793C27.043 26.8531 28.499 26.1877 29.9077 25.544C31.1829 24.9608 32.5014 24.3591 33.6267 23.2337C34.4502 22.4215 34.9061 21.3383 34.9102 20.1831C34.9144 19.0393 34.4749 17.9673 33.6699 17.1623L29.2537 12.7461L9.92432 32.0755L12.7522 34.9041Z" fill="#DFE7F4"/>
<path d="M27.0242 16.4613L24.0507 13.4877C23.64 13.077 22.9746 13.077 22.5639 13.4877L19.5911 16.4608C19.5908 16.4611 19.5906 16.4611 19.5903 16.4613C19.59 16.4615 19.59 16.4618 19.5898 16.462L16.6183 19.4338C16.6178 19.4343 16.6172 19.4343 16.6167 19.4348C16.6162 19.4354 16.6162 19.4359 16.6157 19.4364L10.6696 25.383C10.2589 25.7937 10.2589 26.4591 10.6696 26.8698L13.6432 29.8433C14.0538 30.254 14.7192 30.2541 15.1299 29.8433C15.5406 29.4326 15.5406 28.7672 15.1299 28.3565L12.8998 26.1264L14.3864 24.6395L15.1299 25.383C15.5406 25.7937 16.206 25.7937 16.6167 25.383C17.0274 24.9723 17.0274 24.3069 16.6167 23.8962L15.8732 23.1527L17.3604 21.6653L19.5903 23.8952C20.001 24.3059 20.6663 24.306 21.0771 23.8952C21.4878 23.4845 21.4878 22.8191 21.0771 22.4084L18.8472 20.1785L20.3338 18.6916L21.0771 19.4348C21.4878 19.8455 22.1531 19.8456 22.5639 19.4348C22.9746 19.0242 22.9746 18.3587 22.5639 17.9481L21.8206 17.2048L23.3072 15.7178L25.5374 17.948C25.9481 18.3587 26.6135 18.3587 27.0242 17.948C27.4348 17.5373 27.435 16.872 27.0242 16.4613V16.4613Z" fill="#99DDFF"/>
<path d="M25.5375 17.9489C25.9482 18.3596 26.6136 18.3596 27.0243 17.9489C27.435 17.5382 27.435 16.8728 27.0243 16.4621L26.281 15.7188L24.7942 17.2055L25.5375 17.9489Z" fill="#66B3FF"/>
<path d="M19.5905 23.8962C20.0012 24.3068 20.6666 24.3069 21.0773 23.8962C21.488 23.4855 21.488 22.8201 21.0773 22.4094L20.334 21.666L18.8472 23.1528L19.5905 23.8962Z" fill="#66B3FF"/>
<path d="M13.6433 29.844C14.054 30.2547 14.7194 30.2547 15.1301 29.844C15.5408 29.4333 15.5408 28.7679 15.1301 28.3572L14.3862 27.6133L12.8994 29.1001L13.6433 29.844Z" fill="#66B3FF"/>
<path d="M16.6191 25.3809L16.614 25.386C16.6149 25.3851 16.6162 25.3849 16.6171 25.3839C16.618 25.383 16.6182 25.3818 16.6191 25.3809Z" fill="#DFE7F4"/>
</g>
<defs>
<filter id="filter0_d_4772_13970" x="-1" y="-1" width="48" height="48" filterUnits="userSpaceOnUse" color-interpolation-filters="sRGB">
<feFlood flood-opacity="0" result="BackgroundImageFix"/>
<feColorMatrix in="SourceAlpha" type="matrix" values="0 0 0 0 0 0 0 0 0 0 0 0 0 0 0 0 0 0 127 0" result="hardAlpha"/>
<feOffset dy="4"/>
<feGaussianBlur stdDeviation="2.5"/>
<feColorMatrix type="matrix" values="0 0 0 0 0 0 0 0 0 0 0 0 0 0 0 0 0 0 0.2 0"/>
<feBlend mode="normal" in2="BackgroundImageFix" result="effect1_dropShadow_4772_13970"/>
<feBlend mode="normal" in="SourceGraphic" in2="effect1_dropShadow_4772_13970" result="shape"/>
</filter>
</defs>
</svg>
