<svg width="44" height="48" viewBox="0 0 44 48" fill="none" xmlns="http://www.w3.org/2000/svg">
<g filter="url(#filter0_d_4772_15171)">
<path d="M22 21.1875C21.3847 21.1875 20.8867 20.6896 20.8867 20.0742V13.3203C20.8867 11.4786 22.3849 9.98047 24.2266 9.98047C24.8398 9.98047 25.3398 9.48142 25.3398 8.86719V2.11328C25.3398 1.49793 25.8378 1 26.4531 1C27.0685 1 27.5664 1.49793 27.5664 2.11328V8.86719C27.5664 10.7089 26.0682 12.207 24.2266 12.207C23.6134 12.207 23.1133 12.7061 23.1133 13.3203V20.0742C23.1133 20.6896 22.6153 21.1875 22 21.1875Z" fill="#F0F7FF"/>
<path d="M33.1328 39C31.078 39 29.1928 37.8715 28.2122 36.0548L25.0442 30.0938H18.9559L15.79 36.0494C14.8072 37.8715 12.922 39 10.8672 39C7.79698 39 5.30078 36.5028 5.30078 33.4336V24.5273C5.30078 20.2307 8.79715 16.7344 13.0938 16.7344C15.1311 16.7344 17.0837 17.5399 18.5275 18.9609H25.4725C26.9162 17.5399 28.8689 16.7344 30.9062 16.7344C35.2028 16.7344 38.6992 20.2307 38.6992 24.5273V33.4336C38.6992 36.5028 36.203 39 33.1328 39Z" fill="#99DDFF"/>
<path d="M22 30.0938H25.0442L28.2123 36.0548C29.1928 37.8715 31.078 39 33.1328 39C36.203 39 38.6992 36.5028 38.6992 33.4336V24.5273C38.6992 20.2307 35.2028 16.7344 30.9062 16.7344C28.8689 16.7344 26.9162 17.5399 25.4725 18.9609H22V30.0938Z" fill="#66B3FF"/>
<path d="M33.1328 23.4141H32.0195V22.3008C32.0195 21.6854 31.5216 21.1875 30.9062 21.1875C30.2909 21.1875 29.793 21.6854 29.793 22.3008V23.4141H28.6797C28.0643 23.4141 27.5664 23.912 27.5664 24.5273C27.5664 25.1427 28.0643 25.6406 28.6797 25.6406H29.793V26.7539C29.793 27.3693 30.2909 27.8672 30.9062 27.8672C31.5216 27.8672 32.0195 27.3693 32.0195 26.7539V25.6406H33.1328C33.7482 25.6406 34.2461 25.1427 34.2461 24.5273C34.2461 23.912 33.7482 23.4141 33.1328 23.4141Z" fill="#DFE7F4"/>
<path d="M13.0938 27.8672C14.9383 27.8672 16.4336 26.3719 16.4336 24.5273C16.4336 22.6828 14.9383 21.1875 13.0938 21.1875C11.2492 21.1875 9.75391 22.6828 9.75391 24.5273C9.75391 26.3719 11.2492 27.8672 13.0938 27.8672Z" fill="#F0F7FF"/>
<path d="M23.1133 23.4141H20.8867C20.2714 23.4141 19.7734 23.912 19.7734 24.5273C19.7734 25.1427 20.2714 25.6406 20.8867 25.6406H23.1133C23.7286 25.6406 24.2266 25.1427 24.2266 24.5273C24.2266 23.912 23.7286 23.4141 23.1133 23.4141Z" fill="#F0F7FF"/>
<path d="M22 25.6406H23.1133C23.7286 25.6406 24.2266 25.1427 24.2266 24.5273C24.2266 23.912 23.7286 23.4141 23.1133 23.4141H22V25.6406Z" fill="#DFE7F4"/>
</g>
<defs>
<filter id="filter0_d_4772_15171" x="-2" y="0" width="48" height="48" filterUnits="userSpaceOnUse" color-interpolation-filters="sRGB">
<feFlood flood-opacity="0" result="BackgroundImageFix"/>
<feColorMatrix in="SourceAlpha" type="matrix" values="0 0 0 0 0 0 0 0 0 0 0 0 0 0 0 0 0 0 127 0" result="hardAlpha"/>
<feOffset dy="4"/>
<feGaussianBlur stdDeviation="2.5"/>
<feColorMatrix type="matrix" values="0 0 0 0 0 0 0 0 0 0 0 0 0 0 0 0 0 0 0.2 0"/>
<feBlend mode="normal" in2="BackgroundImageFix" result="effect1_dropShadow_4772_15171"/>
<feBlend mode="normal" in="SourceGraphic" in2="effect1_dropShadow_4772_15171" result="shape"/>
</filter>
</defs>
</svg>
