<svg width="44" height="45" viewBox="0 0 44 45" fill="none" xmlns="http://www.w3.org/2000/svg">
<g filter="url(#filter0_d_4772_14895)">
<path d="M23.9922 2C23.2241 2 22.5299 2.29936 22 2.77722C21.4701 2.29936 20.7759 2 20.0078 2C18.36 2 17.0195 3.34048 17.0195 4.98829C17.0195 6.63609 18.36 7.97657 20.0078 7.97657C20.3587 7.97657 20.6908 7.90472 21.0039 7.79309V13.0899C21.0039 13.6404 21.4494 14.086 22 14.086C22.5506 14.086 22.9961 13.6404 22.9961 13.0899V7.79309C23.3092 7.90472 23.6413 7.97657 23.9922 7.97657C25.64 7.97657 26.9805 6.63609 26.9805 4.98829C26.9805 3.34048 25.64 2 23.9922 2ZM20.0078 5.98438C19.4592 5.98438 19.0117 5.53787 19.0117 4.98829C19.0117 4.43871 19.4592 3.99219 20.0078 3.99219C20.5565 3.99219 21.0039 4.43871 21.0039 4.98829C21.0039 5.53787 20.5565 5.98438 20.0078 5.98438ZM23.9922 5.98438C23.4436 5.98438 22.9961 5.53787 22.9961 4.98829C22.9961 4.43871 23.4436 3.99219 23.9922 3.99219C24.5409 3.99219 24.9883 4.43871 24.9883 4.98829C24.9883 5.53787 24.5409 5.98438 23.9922 5.98438Z" fill="#DFE7F4"/>
<path d="M22.9956 13.0899V7.79309C23.3087 7.90472 23.6408 7.97657 23.9917 7.97657C25.6395 7.97657 26.98 6.63609 26.98 4.98829C26.98 3.34048 25.6395 2 23.9917 2C23.2236 2 22.5294 2.29936 21.9995 2.77722V14.086C22.5501 14.086 22.9956 13.6404 22.9956 13.0899ZM23.9917 3.99219C24.5404 3.99219 24.9878 4.43871 24.9878 4.98829C24.9878 5.53787 24.5404 5.98438 23.9917 5.98438C23.4431 5.98438 22.9956 5.53787 22.9956 4.98829C22.9956 4.43871 23.4431 3.99219 23.9917 3.99219Z" fill="#C7CFE1"/>
<path d="M28.0425 12.0938H22.9956L21.9995 14.0859L21.0034 12.0938H15.9566C13.2073 12.0938 10.9761 14.325 10.9761 17.0742V21.0586C10.9761 21.6164 11.4143 22.0547 11.9722 22.0547H32.0269C32.5848 22.0547 33.023 21.6164 33.023 21.0586V17.0742C33.023 14.325 30.7917 12.0938 28.0425 12.0938Z" fill="#FABE2C"/>
<path d="M32.0269 22.0547C32.5848 22.0547 33.023 21.6164 33.023 21.0586V17.0742C33.023 14.325 30.7917 12.0938 28.0425 12.0938H22.9956L21.9995 14.0859V22.0547H32.0269Z" fill="#FF884D"/>
<path d="M12.9685 20.0625V17.0742C12.9685 15.4265 14.3091 14.0859 15.9568 14.0859H19.7724H24.2271H28.0428C29.6905 14.0859 31.031 15.4265 31.031 17.0742V20.0625H12.9685Z" fill="#5E79BC"/>
<path d="M31.0308 20.0625V17.0742C31.0308 15.4265 29.6902 14.0859 28.0425 14.0859H24.2268H21.9995V20.0625H31.0308Z" fill="#47568C"/>
<path d="M32.0272 20.0625H22.9959L21.985 23.0949L21.0037 20.0625H11.9724C8.1275 20.0625 4.99976 23.1902 4.99976 27.0352V31.0196C4.99976 31.5773 5.43797 32.0157 5.99585 32.0157H7.98804C8.54592 32.0157 8.98414 31.5773 8.98414 31.0196C8.98414 29.366 10.3188 28.0313 11.9724 28.0313C13.626 28.0313 14.9607 29.366 14.9607 31.0196C14.9607 31.5773 15.3989 32.0157 15.9568 32.0157H21.0037L22.015 29.0729L22.9959 32.0157H28.0428C28.6007 32.0157 29.0389 31.5773 29.0389 31.0196C29.0389 29.366 30.3736 28.0313 32.0272 28.0313C33.6807 28.0313 35.0154 29.366 35.0154 31.0196C35.0154 31.5773 35.4537 32.0157 36.0115 32.0157H38.0037C38.5616 32.0157 38.9998 31.5773 38.9998 31.0196V27.0352C38.9998 23.1902 35.8721 20.0625 32.0272 20.0625Z" fill="#FFE14D"/>
<path d="M32.0269 20.0625H22.9956L21.9995 23.0508V29.1171L22.0147 29.0728L22.9956 32.0157H28.0425C28.6004 32.0157 29.0386 31.5773 29.0386 31.0196C29.0386 29.366 30.3733 28.0313 32.0269 28.0313C33.6805 28.0313 35.0152 29.366 35.0152 31.0196C35.0152 31.5773 35.4534 32.0157 36.0113 32.0157H38.0034C38.5613 32.0157 38.9995 31.5773 38.9995 31.0196V27.0352C38.9995 23.1902 35.8718 20.0625 32.0269 20.0625Z" fill="#FFBB33"/>
<path d="M11.9722 36C9.22514 36 6.9917 33.7656 6.9917 31.0195C6.9917 28.2734 9.22514 26.0391 11.9722 26.0391C14.7192 26.0391 16.9527 28.2734 16.9527 31.0195C16.9527 33.7656 14.7192 36 11.9722 36Z" fill="#5E79BC"/>
<path d="M11.9717 34.0078C13.6221 34.0078 14.96 32.6699 14.96 31.0195C14.96 29.3692 13.6221 28.0312 11.9717 28.0312C10.3213 28.0312 8.9834 29.3692 8.9834 31.0195C8.9834 32.6699 10.3213 34.0078 11.9717 34.0078Z" fill="#F0F7FF"/>
<path d="M32.0266 36C29.2796 36 27.0461 33.7656 27.0461 31.0195C27.0461 28.2734 29.2796 26.0391 32.0266 26.0391C34.7737 26.0391 37.0071 28.2734 37.0071 31.0195C37.0071 33.7656 34.7737 36 32.0266 36Z" fill="#47568C"/>
<path d="M32.0265 34.0078C33.6769 34.0078 35.0148 32.6699 35.0148 31.0195C35.0148 29.3692 33.6769 28.0312 32.0265 28.0312C30.3761 28.0312 29.0382 29.3692 29.0382 31.0195C29.0382 32.6699 30.3761 34.0078 32.0265 34.0078Z" fill="#DFE7F4"/>
<path d="M11.9719 32.0156C12.5221 32.0156 12.968 31.5697 12.968 31.0195C12.968 30.4694 12.5221 30.0234 11.9719 30.0234C11.4218 30.0234 10.9758 30.4694 10.9758 31.0195C10.9758 31.5697 11.4218 32.0156 11.9719 32.0156Z" fill="#5E79BC"/>
<path d="M32.0265 32.0156C32.5766 32.0156 33.0226 31.5697 33.0226 31.0195C33.0226 30.4694 32.5766 30.0234 32.0265 30.0234C31.4764 30.0234 31.0304 30.4694 31.0304 31.0195C31.0304 31.5697 31.4764 32.0156 32.0265 32.0156Z" fill="#47568C"/>
<path d="M21.0034 12.0938H22.9956V20.0625H21.0034V12.0938Z" fill="#FABE2C"/>
<path d="M21.9995 12.0938H22.9956V20.0625H21.9995V12.0938Z" fill="#FF884D"/>
<path d="M21.0034 20.0625H22.9956V32.0157H21.0034V20.0625Z" fill="#FABE2C"/>
<path d="M21.9995 20.0625H22.9956V32.0157H21.9995V20.0625Z" fill="#FF884D"/>
</g>
<defs>
<filter id="filter0_d_4772_14895" x="-2" y="-1" width="48" height="48" filterUnits="userSpaceOnUse" color-interpolation-filters="sRGB">
<feFlood flood-opacity="0" result="BackgroundImageFix"/>
<feColorMatrix in="SourceAlpha" type="matrix" values="0 0 0 0 0 0 0 0 0 0 0 0 0 0 0 0 0 0 127 0" result="hardAlpha"/>
<feOffset dy="4"/>
<feGaussianBlur stdDeviation="2.5"/>
<feColorMatrix type="matrix" values="0 0 0 0 0 0 0 0 0 0 0 0 0 0 0 0 0 0 0.2 0"/>
<feBlend mode="normal" in2="BackgroundImageFix" result="effect1_dropShadow_4772_14895"/>
<feBlend mode="normal" in="SourceGraphic" in2="effect1_dropShadow_4772_14895" result="shape"/>
</filter>
</defs>
</svg>
