<svg width="114" height="114" viewBox="0 0 114 114" fill="none" xmlns="http://www.w3.org/2000/svg">
<g clip-path="url(#clip0_4772_11377)">
<path d="M24.6122 99.0951C20.6931 99.0951 17.2329 96.2678 16.5623 92.2744C15.8147 87.8234 18.8175 83.6088 23.2687 82.8617C34.5706 80.9641 42.5407 70.3203 42.6199 70.2129L42.5986 70.2424L55.838 79.8277C55.3622 80.4849 43.9779 95.9585 25.9752 98.9809C25.5174 99.0576 25.0614 99.0951 24.6122 99.0951V99.0951Z" fill="url(#paint0_linear_4772_11377)"/>
<path d="M89.3879 99.0951C93.307 99.0951 96.7672 96.2678 97.4378 92.2744C98.1854 87.8234 95.1826 83.6088 90.7314 82.8617C79.4295 80.9641 71.4592 70.3203 71.3802 70.2129L71.4015 70.2424L58.1621 79.8277C58.6379 80.4849 70.0222 95.9585 88.0249 98.9809C88.4827 99.0576 88.9387 99.0951 89.3879 99.0951V99.0951Z" fill="url(#paint1_linear_4772_11377)"/>
<path d="M80.9244 104.415C82.9208 83.8818 71.0697 67.8008 71.0697 67.8008H42.9304C42.9304 67.8008 31.0794 83.8818 33.0757 104.415H80.9244Z" fill="url(#paint2_linear_4772_11377)"/>
<path d="M53.4281 77.2812L42.9304 67.8008C42.9304 67.8008 39.7786 72.0776 36.9996 79.0364C41.1538 81.3164 45.677 82.8617 50.4058 83.6068C52.6254 83.9565 54.6338 82.2413 54.6338 79.9942C54.6338 78.9603 54.1957 77.9743 53.4281 77.2812V77.2812Z" fill="#00C4A2"/>
<path d="M57 87.4167C61.9562 87.4167 65.974 83.3989 65.974 78.4427C65.974 73.4865 61.9562 69.4688 57 69.4688C52.0438 69.4688 48.026 73.4865 48.026 78.4427C48.026 83.3989 52.0438 87.4167 57 87.4167Z" fill="url(#paint3_linear_4772_11377)"/>
<path d="M52.1104 104.536C52.1104 109.762 56.3483 114 61.5742 114H71.0707L79.1824 104.416L71.0707 95.0703H61.5742C58.9612 95.0703 56.5959 96.1304 54.882 97.842C53.1704 99.5558 52.1104 101.921 52.1104 104.536V104.536Z" fill="url(#paint4_linear_4772_11377)"/>
<path d="M61.8898 104.536C61.8898 109.762 57.6518 114 52.426 114H42.9295L34.8177 104.416L42.9295 95.0703H52.426C55.0389 95.0703 57.4043 96.1304 59.1181 97.842C60.8297 99.5558 61.8898 101.921 61.8898 104.536V104.536Z" fill="url(#paint5_linear_4772_11377)"/>
<path d="M42.9296 95.0703V114H37.2603C34.6451 114 32.2797 112.94 30.5658 111.229C28.8543 109.515 27.7942 107.149 27.7942 104.536C27.7942 99.3083 32.0322 95.0703 37.2603 95.0703H42.9296Z" fill="url(#paint6_linear_4772_11377)"/>
<path d="M71.0704 95.0703V114H76.7398C79.355 114 81.7204 112.94 83.4342 111.229C85.1458 109.515 86.2059 107.149 86.2059 104.536C86.2059 99.3083 81.9679 95.0703 76.7398 95.0703H71.0704Z" fill="url(#paint7_linear_4772_11377)"/>
<path d="M14.3915 42.785V42.4337C14.4376 31.0421 18.8877 20.3672 26.9222 12.3758C34.9458 4.39513 45.6248 0 56.9925 0C57.2287 0 57.4655 0.00204382 57.7028 0.00590438C68.9373 0.188032 79.4698 4.70057 87.3596 12.7119C95.2588 20.7326 99.609 31.3505 99.609 42.6092L14.3915 42.785Z" fill="url(#paint8_linear_4772_11377)"/>
<path d="M78.363 16.1526C77.8906 16.1526 77.4144 16.0059 77.0068 15.7018C75.4201 14.518 73.7267 13.4724 71.974 12.5947C70.8526 12.0331 70.3987 10.6688 70.9605 9.54738C71.5221 8.42601 72.8865 7.97228 74.0078 8.53387C75.9994 9.53126 77.9222 10.7183 79.7228 12.0617C80.7282 12.8118 80.935 14.2346 80.185 15.2399C79.7392 15.8371 79.0554 16.1526 78.363 16.1526V16.1526Z" fill="#FFE9CC"/>
<path d="M65.9716 9.94042C65.7706 9.94042 65.5662 9.91363 65.363 9.85708C64.4957 9.61636 63.6041 9.40744 62.7128 9.23576C61.4813 8.99867 60.6749 7.80826 60.912 6.57651C61.149 5.34477 62.3397 4.53882 63.5712 4.77568C64.582 4.97029 65.5935 5.20738 66.5779 5.48057C67.7865 5.81598 68.4941 7.06771 68.1587 8.27607C67.8794 9.28163 66.9662 9.94042 65.9716 9.94042V9.94042Z" fill="#FFE9CC"/>
<path d="M26.2441 42.7852H14.3915C14.3915 47.5754 13.7266 51.8007 12.8668 55.2616C11.5906 60.3995 15.5188 65.3615 20.813 65.3615H34.6872L26.2441 42.7852Z" fill="url(#paint9_linear_4772_11377)"/>
<path d="M87.7559 42.7852H99.6085C99.6085 47.5754 100.273 51.8007 101.133 55.2616C102.409 60.3995 98.4812 65.3615 93.187 65.3615H79.3129L87.7559 42.7852Z" fill="url(#paint10_linear_4772_11377)"/>
<path d="M21.1623 51.271C25.9466 51.271 29.8251 47.3926 29.8251 42.6082C29.8251 37.8238 25.9466 33.9453 21.1623 33.9453C16.3779 33.9453 12.4994 37.8238 12.4994 42.6082C12.4994 47.3926 16.3779 51.271 21.1623 51.271Z" fill="url(#paint11_linear_4772_11377)"/>
<path d="M92.8378 51.271C97.6222 51.271 101.501 47.3926 101.501 42.6082C101.501 37.8238 97.6222 33.9453 92.8378 33.9453C88.0534 33.9453 84.1749 37.8238 84.1749 42.6082C84.1749 47.3926 88.0534 51.271 92.8378 51.271Z" fill="url(#paint12_linear_4772_11377)"/>
<path d="M49.4116 73.6543C48.5352 75.0402 48.0259 76.6814 48.0259 78.4423C48.0259 80.3031 48.5925 82.0317 49.5624 83.4651C49.8428 83.5151 50.124 83.5628 50.4058 83.6073C52.6254 83.957 54.6338 82.2418 54.6338 79.9947C54.6338 78.9605 54.1957 77.9745 53.4282 77.2814L49.4116 73.6543Z" fill="#FFBE9C"/>
<path d="M91.4347 32.6516C90.0673 27.9183 85.754 24.6459 80.827 24.6459H71.9895C69.1429 24.6459 66.4142 23.508 64.4112 21.4853L60.978 18.0185C59.9266 16.9569 58.4943 16.3594 57.0001 16.3594C55.5058 16.3594 54.0735 16.9566 53.0221 18.0185L49.5889 21.4853C47.5858 23.508 44.8573 24.6459 42.0107 24.6459H33.1598C28.2328 24.6459 23.9087 27.9154 22.5519 32.6518C21.6603 35.7639 21.1768 39.0538 21.163 42.4617V42.7583C21.244 62.7976 37.5565 78.7678 57.5932 78.4428C77.1129 78.1263 92.8379 62.2051 92.8379 42.61C92.8374 39.1542 92.3478 35.813 91.4347 32.6516V32.6516Z" fill="url(#paint13_linear_4772_11377)"/>
<path d="M31.8719 55.3484C34.2305 55.3484 36.1426 53.8119 36.1426 51.9164C36.1426 50.0209 34.2305 48.4844 31.8719 48.4844C29.5132 48.4844 27.6012 50.0209 27.6012 51.9164C27.6012 53.8119 29.5132 55.3484 31.8719 55.3484Z" fill="#FD9BAE"/>
<path d="M82.1281 55.3484C84.4868 55.3484 86.3988 53.8119 86.3988 51.9164C86.3988 50.0209 84.4868 48.4844 82.1281 48.4844C79.7695 48.4844 77.8574 50.0209 77.8574 51.9164C77.8574 53.8119 79.7695 55.3484 82.1281 55.3484Z" fill="#FD9BAE"/>
<path d="M39.1933 51.917C43.8702 51.917 47.6616 48.1256 47.6616 43.4487C47.6616 38.7718 43.8702 34.9805 39.1933 34.9805C34.5165 34.9805 30.7251 38.7718 30.7251 43.4487C30.7251 48.1256 34.5165 51.917 39.1933 51.917Z" fill="white"/>
<path d="M74.8067 51.917C79.4836 51.917 83.275 48.1256 83.275 43.4487C83.275 38.7718 79.4836 34.9805 74.8067 34.9805C70.1299 34.9805 66.3385 38.7718 66.3385 43.4487C66.3385 48.1256 70.1299 51.917 74.8067 51.917Z" fill="white"/>
<path d="M39.1934 48.4966C41.9808 48.4966 44.2405 46.2369 44.2405 43.4495C44.2405 40.662 41.9808 38.4023 39.1934 38.4023C36.4059 38.4023 34.1462 40.662 34.1462 43.4495C34.1462 46.2369 36.4059 48.4966 39.1934 48.4966Z" fill="#383842"/>
<path d="M74.8067 48.4966C77.5942 48.4966 79.8539 46.2369 79.8539 43.4495C79.8539 40.662 77.5942 38.4023 74.8067 38.4023C72.0193 38.4023 69.7596 40.662 69.7596 43.4495C69.7596 46.2369 72.0193 48.4966 74.8067 48.4966Z" fill="#383842"/>
<path d="M57.0001 51.8906C55.5708 51.8906 54.1415 51.3501 52.9754 50.2689C52.5155 49.8427 52.4882 49.1242 52.9145 48.6643C53.341 48.2044 54.0593 48.1772 54.5191 48.6037C55.9798 49.9578 58.02 49.9578 59.4806 48.6037C59.9403 48.1776 60.6588 48.2044 61.0853 48.6643C61.5115 49.1242 61.4845 49.8424 61.0244 50.2689C59.8587 51.3501 58.4294 51.8906 57.0001 51.8906Z" fill="#383842"/>
</g>
<defs>
<linearGradient id="paint0_linear_4772_11377" x1="36.143" y1="99.0951" x2="36.143" y2="70.2129" gradientUnits="userSpaceOnUse">
<stop stop-color="#FBBA99"/>
<stop offset="1" stop-color="#FBCFB9"/>
</linearGradient>
<linearGradient id="paint1_linear_4772_11377" x1="58.1621" y1="84.6541" x2="97.5518" y2="84.6541" gradientUnits="userSpaceOnUse">
<stop stop-color="#FBCFB9"/>
<stop offset="1" stop-color="#FBBA99"/>
</linearGradient>
<linearGradient id="paint2_linear_4772_11377" x1="57.0001" y1="104.415" x2="57.0001" y2="67.8008" gradientUnits="userSpaceOnUse">
<stop offset="0.0206" stop-color="#76E6D5"/>
<stop offset="1" stop-color="#00C4A2"/>
</linearGradient>
<linearGradient id="paint3_linear_4772_11377" x1="57" y1="87.4167" x2="57" y2="69.4688" gradientUnits="userSpaceOnUse">
<stop stop-color="#FBCFB9"/>
<stop offset="1" stop-color="#FBBA99"/>
</linearGradient>
<linearGradient id="paint4_linear_4772_11377" x1="79.1822" y1="104.535" x2="52.1104" y2="104.535" gradientUnits="userSpaceOnUse">
<stop stop-color="#FBCFB9"/>
<stop offset="1" stop-color="#FBBA99"/>
</linearGradient>
<linearGradient id="paint5_linear_4772_11377" x1="61.8898" y1="104.535" x2="34.818" y2="104.535" gradientUnits="userSpaceOnUse">
<stop stop-color="#FBCFB9"/>
<stop offset="1" stop-color="#FBBA99"/>
</linearGradient>
<linearGradient id="paint6_linear_4772_11377" x1="35.3618" y1="114" x2="35.3618" y2="95.0703" gradientUnits="userSpaceOnUse">
<stop stop-color="#4F4C5F"/>
<stop offset="0.9783" stop-color="#6A647F"/>
</linearGradient>
<linearGradient id="paint7_linear_4772_11377" x1="78.6383" y1="114" x2="78.6383" y2="95.0703" gradientUnits="userSpaceOnUse">
<stop stop-color="#4F4C5F"/>
<stop offset="0.9783" stop-color="#6A647F"/>
</linearGradient>
<linearGradient id="paint8_linear_4772_11377" x1="57.0002" y1="42.785" x2="57.0002" y2="0" gradientUnits="userSpaceOnUse">
<stop offset="0.000558036" stop-color="#F7AC3E"/>
<stop offset="0.9777" stop-color="#FCCB88"/>
</linearGradient>
<linearGradient id="paint9_linear_4772_11377" x1="12.6245" y1="54.0732" x2="34.6872" y2="54.0732" gradientUnits="userSpaceOnUse">
<stop offset="0.0223" stop-color="#FCCB88"/>
<stop offset="0.9994" stop-color="#F7AC3E"/>
</linearGradient>
<linearGradient id="paint10_linear_4772_11377" x1="79.3129" y1="54.0732" x2="101.375" y2="54.0732" gradientUnits="userSpaceOnUse">
<stop offset="0.0223" stop-color="#FCCB88"/>
<stop offset="0.9994" stop-color="#F7AC3E"/>
</linearGradient>
<linearGradient id="paint11_linear_4772_11377" x1="29.8251" y1="42.6082" x2="12.4994" y2="42.6082" gradientUnits="userSpaceOnUse">
<stop stop-color="#FBBA99"/>
<stop offset="1" stop-color="#FBCFB9"/>
</linearGradient>
<linearGradient id="paint12_linear_4772_11377" x1="85.3342" y1="38.276" x2="100.341" y2="46.9404" gradientUnits="userSpaceOnUse">
<stop stop-color="#FBBA99"/>
<stop offset="1" stop-color="#FBCFB9"/>
</linearGradient>
<linearGradient id="paint13_linear_4772_11377" x1="57.0001" y1="78.4474" x2="57.0001" y2="16.3594" gradientUnits="userSpaceOnUse">
<stop stop-color="#FBBA99"/>
<stop offset="1" stop-color="#FBCFB9"/>
</linearGradient>
<clipPath id="clip0_4772_11377">
<rect width="114" height="114" fill="white"/>
</clipPath>
</defs>
</svg>
