<svg width="277" height="144" viewBox="0 0 277 144" fill="none" xmlns="http://www.w3.org/2000/svg">
<path opacity="0.5" d="M261.61 120C270.11 120 277 113.07 277 104.521C277 95.9727 270.11 89.0429 261.61 89.0429C259.716 89.0429 257.903 89.3888 256.227 90.0181C253.288 80.7297 244.644 74 234.435 74C221.806 74 211.567 84.2974 211.567 97C211.567 97.2409 211.578 97.4791 211.585 97.7182C205.695 97.9803 201 102.864 201 108.853C201 115.009 205.962 120 212.083 120H261.61Z" fill="url(#paint0_linear_4772_16239)"/>
<path opacity="0.5" d="M60.6101 84C69.1098 84 76 77.0701 76 68.5214C76 59.9727 69.1098 53.0429 60.6101 53.0429C58.7161 53.0429 56.9031 53.3888 55.2275 54.0181C52.288 44.7297 43.6443 38 33.4354 38C20.8055 38 10.5672 48.2974 10.5672 61C10.5672 61.2409 10.5779 61.4791 10.5853 61.7182C4.69538 61.9803 0 66.8643 0 72.8528C0 79.0091 4.96226 84 11.0833 84H60.6101Z" fill="url(#paint1_linear_4772_16239)"/>
<g filter="url(#filter0_d_4772_16239)">
<path opacity="0.5" d="M137.078 58.8203L159.046 79.3974C159.046 79.3974 113.786 95.3215 76.6484 130.899C72.0743 135.281 65.6641 136.886 59.7432 135.418L86.3738 79.2895L137.078 58.8203Z" fill="url(#paint2_linear_4772_16239)"/>
<path opacity="0.5" d="M48.9539 127.76C47.0338 124.82 46 121.366 46 117.834C46 115.643 46.3973 113.42 47.2283 111.274C73.3974 43.7164 107.181 30.8174 107.181 30.8174L126.748 49.1454L48.9539 127.76Z" fill="url(#paint3_linear_4772_16239)"/>
<path opacity="0.5" d="M137.077 58.82L122.847 79.0314C122.847 79.0314 91.6411 95.1133 59.7434 135.418C58.1021 135.013 56.4975 134.371 54.9799 133.484C52.4811 132.027 50.4479 130.049 48.9539 127.761C79.0973 70.8959 115.68 54.7087 115.68 54.7087L126.748 49.1455L137.077 58.82Z" fill="url(#paint4_linear_4772_16239)"/>
<path opacity="0.5" d="M137.077 58.8203L129.303 74.6596C128.879 75.5238 128.692 76.4851 128.76 77.4454C128.987 80.6471 131.918 82.9398 135.087 82.4299C139.102 81.7839 143.277 82.4325 146.972 84.3752C154.444 81.0166 159.046 79.3974 159.046 79.3974L137.077 58.8203Z" fill="#E3254C"/>
<path d="M169.042 30.8183L151.976 28.3385L144.344 12.8739C141.795 7.70871 134.43 7.70871 131.88 12.8739L124.248 28.3385L107.182 30.8183C101.482 31.6465 99.2058 38.6513 103.33 42.6716L115.68 54.7093L112.764 71.7065C111.791 77.3835 117.749 81.7125 122.847 79.0322L138.112 71.0072L153.376 79.0322C158.474 81.7125 164.433 77.3835 163.459 71.7065L160.544 54.7093L172.893 42.6716C177.018 38.6513 174.742 31.6465 169.042 30.8183V30.8183Z" fill="url(#paint5_linear_4772_16239)"/>
<path d="M143.79 31.8081C142.86 31.8081 141.962 31.3016 141.505 30.4184C141.278 29.9802 141.075 29.5693 140.882 29.162C140.276 27.8787 140.825 26.3471 142.108 25.7409C143.391 25.1347 144.923 25.6836 145.529 26.967C145.695 27.3177 145.872 27.6744 146.07 28.0573C146.722 29.318 146.229 30.8683 144.968 31.5205C144.591 31.7156 144.187 31.8081 143.79 31.8081V31.8081Z" fill="#FFFCDC"/>
<path d="M139.73 23.7813C138.783 23.7813 137.872 23.2553 137.424 22.3481L136.083 19.6304C135.455 18.3576 135.978 16.8168 137.25 16.1888C138.523 15.5607 140.064 16.0831 140.692 17.3559L142.033 20.0734C142.661 21.3462 142.139 22.887 140.866 23.5151C140.5 23.6957 140.112 23.7813 139.73 23.7813V23.7813Z" fill="#FFFCDC"/>
<path d="M118.094 49.9069C119.973 49.9069 121.496 48.6827 121.496 47.1727C121.496 45.6626 119.973 44.4385 118.094 44.4385C116.215 44.4385 114.691 45.6626 114.691 47.1727C114.691 48.6827 116.215 49.9069 118.094 49.9069Z" fill="#FD9BAE"/>
<path d="M158.131 49.9069C160.01 49.9069 161.533 48.6827 161.533 47.1727C161.533 45.6626 160.01 44.4385 158.131 44.4385C156.252 44.4385 154.729 45.6626 154.729 47.1727C154.729 48.6827 156.252 49.9069 158.131 49.9069Z" fill="#FD9BAE"/>
<path d="M123.926 47.1723C127.652 47.1723 130.673 44.1519 130.673 40.426C130.673 36.7001 127.652 33.6797 123.926 33.6797C120.201 33.6797 117.18 36.7001 117.18 40.426C117.18 44.1519 120.201 47.1723 123.926 47.1723Z" fill="white"/>
<path d="M130.576 41.3787C131.087 39.218 129.749 37.0524 127.589 36.5416C125.428 36.0309 123.262 37.3684 122.752 39.5291C122.241 41.6898 123.578 43.8555 125.739 44.3662C127.9 44.877 130.066 43.5394 130.576 41.3787Z" fill="#383842"/>
<path d="M152.298 47.1723C156.024 47.1723 159.045 44.1519 159.045 40.426C159.045 36.7001 156.024 33.6797 152.298 33.6797C148.572 33.6797 145.552 36.7001 145.552 40.426C145.552 44.1519 148.572 47.1723 152.298 47.1723Z" fill="white"/>
<path d="M157.837 43.2773C159.407 41.7073 159.407 39.1618 157.837 37.5918C156.267 36.0218 153.722 36.0218 152.152 37.5918C150.582 39.1618 150.582 41.7073 152.152 43.2773C153.722 44.8473 156.267 44.8473 157.837 43.2773Z" fill="#383842"/>
<path d="M138.112 49.4929C139.78 49.4929 141.131 47.7233 141.131 45.5404C141.131 43.3575 139.78 41.5879 138.112 41.5879C136.445 41.5879 135.094 43.3575 135.094 45.5404C135.094 47.7233 136.445 49.4929 138.112 49.4929Z" fill="#383842"/>
</g>
<defs>
<filter id="filter0_d_4772_16239" x="42" y="1" width="145" height="142.948" filterUnits="userSpaceOnUse" color-interpolation-filters="sRGB">
<feFlood flood-opacity="0" result="BackgroundImageFix"/>
<feColorMatrix in="SourceAlpha" type="matrix" values="0 0 0 0 0 0 0 0 0 0 0 0 0 0 0 0 0 0 127 0" result="hardAlpha"/>
<feOffset dx="4"/>
<feGaussianBlur stdDeviation="4"/>
<feColorMatrix type="matrix" values="0 0 0 0 0 0 0 0 0 0 0 0 0 0 0 0 0 0 0.15 0"/>
<feBlend mode="normal" in2="BackgroundImageFix" result="effect1_dropShadow_4772_16239"/>
<feBlend mode="normal" in="SourceGraphic" in2="effect1_dropShadow_4772_16239" result="shape"/>
</filter>
<linearGradient id="paint0_linear_4772_16239" x1="201" y1="97" x2="277" y2="97" gradientUnits="userSpaceOnUse">
<stop stop-color="#D0D7D7"/>
<stop offset="1" stop-color="#EFEFEF"/>
</linearGradient>
<linearGradient id="paint1_linear_4772_16239" x1="0" y1="61" x2="76" y2="61" gradientUnits="userSpaceOnUse">
<stop stop-color="#D0D7D7"/>
<stop offset="1" stop-color="#EFEFEF"/>
</linearGradient>
<linearGradient id="paint2_linear_4772_16239" x1="59.7434" y1="97.3842" x2="159.046" y2="97.3842" gradientUnits="userSpaceOnUse">
<stop stop-color="#FF889E"/>
<stop offset="0.9788" stop-color="#F5385D"/>
</linearGradient>
<linearGradient id="paint3_linear_4772_16239" x1="46" y1="79.2888" x2="126.748" y2="79.2888" gradientUnits="userSpaceOnUse">
<stop offset="0.0206" stop-color="#76E6D5"/>
<stop offset="1" stop-color="#00C4A2"/>
</linearGradient>
<linearGradient id="paint4_linear_4772_16239" x1="48.9539" y1="92.2817" x2="137.077" y2="92.2817" gradientUnits="userSpaceOnUse">
<stop offset="0.0223" stop-color="#A4E6FF"/>
<stop offset="0.9994" stop-color="#5BD6FD"/>
</linearGradient>
<linearGradient id="paint5_linear_4772_16239" x1="138.112" y1="79.8461" x2="138.112" y2="9" gradientUnits="userSpaceOnUse">
<stop offset="0.0223" stop-color="#F9F2AB"/>
<stop offset="0.9994" stop-color="#F6E66A"/>
</linearGradient>
</defs>
</svg>
