<svg width="210" height="128" viewBox="0 0 210 128" fill="none" xmlns="http://www.w3.org/2000/svg">
<path opacity="0.5" d="M90.1177 91C102.755 91 113 80.7559 113 68.1187C113 55.4814 102.755 45.2373 90.1177 45.2373C87.3016 45.2373 84.6059 45.7486 82.1145 46.6789C77.744 32.9482 64.8922 23 49.7131 23C30.9346 23 15.7117 38.2222 15.7117 57C15.7117 57.3561 15.7276 57.7082 15.7387 58.0616C6.98129 58.4491 0 65.669 0 74.5215C0 83.6222 7.37809 91 16.4792 91H90.1177Z" fill="url(#paint0_linear_4772_16262)"/>
<path opacity="0.5" d="M149.39 128C140.89 128 134 121.07 134 112.521C134 103.973 140.89 97.0429 149.39 97.0429C151.284 97.0429 153.097 97.3888 154.773 98.0181C157.712 88.7297 166.356 82 176.565 82C189.194 82 199.433 92.2974 199.433 105C199.433 105.241 199.422 105.479 199.415 105.718C205.305 105.98 210 110.864 210 116.853C210 123.009 205.038 128 198.917 128H149.39Z" fill="url(#paint1_linear_4772_16262)"/>
<defs>
<linearGradient id="paint0_linear_4772_16262" x1="0" y1="57" x2="113" y2="57" gradientUnits="userSpaceOnUse">
<stop stop-color="#D0D7D7"/>
<stop offset="1" stop-color="#EFEFEF"/>
</linearGradient>
<linearGradient id="paint1_linear_4772_16262" x1="210" y1="105" x2="134" y2="105" gradientUnits="userSpaceOnUse">
<stop stop-color="#D0D7D7"/>
<stop offset="1" stop-color="#EFEFEF"/>
</linearGradient>
</defs>
</svg>
