<svg width="368" height="107" viewBox="0 0 368 107" fill="none" xmlns="http://www.w3.org/2000/svg">
<path opacity="0.3" d="M-10.4201 83C-18.4725 83 -25 76.6727 -25 68.8674C-25 61.0621 -18.4725 54.7348 -10.4201 54.7348C-8.62582 54.7348 -6.90819 55.0506 -5.32077 55.6252C-2.53603 47.1445 5.65276 41 15.3244 41C27.2895 41 36.989 50.402 36.989 62C36.989 62.2199 36.9789 62.4374 36.9718 62.6557C42.5517 62.895 47 67.3544 47 72.8221C47 78.4431 42.2989 83 36.5 83H-10.4201Z" fill="url(#paint0_linear_4794_13075)"/>
<path opacity="0.3" d="M322.58 107C314.528 107 308 100.673 308 92.8674C308 85.0621 314.528 78.7348 322.58 78.7348C324.374 78.7348 326.092 79.0506 327.679 79.6252C330.464 71.1445 338.653 65 348.324 65C360.289 65 369.989 74.402 369.989 86C369.989 86.2199 369.979 86.4374 369.972 86.6557C375.552 86.895 380 91.3544 380 96.8221C380 102.443 375.299 107 369.5 107H322.58Z" fill="url(#paint1_linear_4794_13075)"/>
<path opacity="0.5" d="M264.118 66.1208C276.755 66.1208 287 56.1597 287 43.8718C287 31.5838 276.755 21.6228 264.118 21.6228C261.302 21.6228 258.606 22.12 256.115 23.0245C251.744 9.6733 238.892 0 223.713 0C204.935 0 189.712 14.8016 189.712 33.0604C189.712 33.4066 189.728 33.749 189.739 34.0927C180.981 34.4694 174 41.4898 174 50.0977C174 58.9469 181.378 66.1208 190.479 66.1208H264.118Z" fill="url(#paint2_linear_4794_13075)"/>
<defs>
<linearGradient id="paint0_linear_4794_13075" x1="47" y1="62" x2="-25" y2="62" gradientUnits="userSpaceOnUse">
<stop stop-color="#D0D7D7"/>
<stop offset="1" stop-color="#EFEFEF"/>
</linearGradient>
<linearGradient id="paint1_linear_4794_13075" x1="380" y1="86" x2="308" y2="86" gradientUnits="userSpaceOnUse">
<stop stop-color="#D0D7D7"/>
<stop offset="1" stop-color="#EFEFEF"/>
</linearGradient>
<linearGradient id="paint2_linear_4794_13075" x1="174" y1="33.0604" x2="287" y2="33.0604" gradientUnits="userSpaceOnUse">
<stop stop-color="#D0D7D7"/>
<stop offset="1" stop-color="#EFEFEF"/>
</linearGradient>
</defs>
</svg>
