<svg width="361" height="158" viewBox="0 0 361 158" fill="none" xmlns="http://www.w3.org/2000/svg">
<g clip-path="url(#clip0_4793_13063)">
<path opacity="0.3" d="M-9.42012 147C-17.4725 147 -24 140.673 -24 132.867C-24 125.062 -17.4725 118.735 -9.42012 118.735C-7.62582 118.735 -5.90819 119.051 -4.32077 119.625C-1.53603 111.144 6.65276 105 16.3244 105C28.2895 105 37.989 114.402 37.989 126C37.989 126.22 37.9789 126.437 37.9718 126.656C43.5517 126.895 48 131.354 48 136.822C48 142.443 43.2989 147 37.5 147H-9.42012Z" fill="url(#paint0_linear_4793_13063)"/>
<path opacity="0.3" d="M323.58 171C315.528 171 309 164.673 309 156.867C309 149.062 315.528 142.735 323.58 142.735C325.374 142.735 327.092 143.051 328.679 143.625C331.464 135.144 339.653 129 349.324 129C361.289 129 370.989 138.402 370.989 150C370.989 150.22 370.979 150.437 370.972 150.656C376.552 150.895 381 155.354 381 160.822C381 166.443 376.299 171 370.5 171H323.58Z" fill="url(#paint1_linear_4793_13063)"/>
<path opacity="0.5" d="M314.118 66.1208C326.755 66.1208 337 56.1597 337 43.8718C337 31.5838 326.755 21.6228 314.118 21.6228C311.302 21.6228 308.606 22.12 306.115 23.0245C301.744 9.6733 288.892 0 273.713 0C254.935 0 239.712 14.8016 239.712 33.0604C239.712 33.4066 239.728 33.749 239.739 34.0927C230.981 34.4694 224 41.4898 224 50.0977C224 58.9469 231.378 66.1208 240.479 66.1208H314.118Z" fill="url(#paint2_linear_4793_13063)"/>
</g>
<defs>
<linearGradient id="paint0_linear_4793_13063" x1="48" y1="126" x2="-24" y2="126" gradientUnits="userSpaceOnUse">
<stop stop-color="#D0D7D7"/>
<stop offset="1" stop-color="#EFEFEF"/>
</linearGradient>
<linearGradient id="paint1_linear_4793_13063" x1="381" y1="150" x2="309" y2="150" gradientUnits="userSpaceOnUse">
<stop stop-color="#D0D7D7"/>
<stop offset="1" stop-color="#EFEFEF"/>
</linearGradient>
<linearGradient id="paint2_linear_4793_13063" x1="224" y1="33.0604" x2="337" y2="33.0604" gradientUnits="userSpaceOnUse">
<stop stop-color="#D0D7D7"/>
<stop offset="1" stop-color="#EFEFEF"/>
</linearGradient>
<clipPath id="clip0_4793_13063">
<rect width="361" height="158" fill="white"/>
</clipPath>
</defs>
</svg>
