<svg width="476" height="184" viewBox="0 0 476 184" fill="none" xmlns="http://www.w3.org/2000/svg">
<path opacity="0.5" d="M243.238 184C277.349 184 305 156.281 305 122.086C305 87.891 277.349 60.1715 243.238 60.1715C235.637 60.1715 228.361 61.5552 221.637 64.0723C209.84 26.9187 175.151 0 134.181 0C83.4959 0 42.4076 41.1896 42.4076 92C42.4076 92.9635 42.4506 93.9163 42.4804 94.8726C18.8433 95.9211 0 115.457 0 139.411C0 164.037 19.9143 184 44.4792 184H243.238Z" fill="url(#paint0_linear_4772_13640)"/>
<path opacity="0.3" d="M374.717 126C360.514 126 349 114.551 349 100.427C349 86.3028 360.514 74.8535 374.717 74.8535C377.882 74.8535 380.912 75.425 383.712 76.4646C388.624 61.1186 403.068 50 420.128 50C441.233 50 458.342 67.0131 458.342 88C458.342 88.398 458.324 88.7915 458.311 89.1865C468.154 89.6196 476 97.6889 476 107.583C476 117.754 467.708 126 457.479 126H374.717Z" fill="url(#paint1_linear_4772_13640)"/>
<defs>
<linearGradient id="paint0_linear_4772_13640" x1="0" y1="92" x2="305" y2="92" gradientUnits="userSpaceOnUse">
<stop stop-color="#D0D7D7"/>
<stop offset="1" stop-color="#EFEFEF"/>
</linearGradient>
<linearGradient id="paint1_linear_4772_13640" x1="476" y1="88" x2="349" y2="88" gradientUnits="userSpaceOnUse">
<stop stop-color="#D0D7D7"/>
<stop offset="1" stop-color="#EFEFEF"/>
</linearGradient>
</defs>
</svg>
