<svg width="144" height="133" viewBox="0 0 144 133" fill="none" xmlns="http://www.w3.org/2000/svg">
<path d="M90.7999 94.1903L94.1918 90.7984C95.7824 89.2078 98.3616 89.2078 99.9522 90.7984L130.896 121.743C132.487 123.333 132.487 125.913 130.896 127.503L127.505 130.895C125.914 132.486 123.335 132.486 121.744 130.895L90.7999 99.9507C89.209 98.3598 89.209 95.7809 90.7999 94.1903V94.1903Z" fill="url(#paint0_linear_4772_11574)"/>
<path d="M104.27 69.2053C106.236 67.2396 109.423 67.2396 111.389 69.2053L112.255 70.0708C117.049 74.8652 124.85 74.8652 129.645 70.0708C134.439 65.2765 134.439 57.475 129.645 52.6806L116.592 39.6281C114.626 37.6624 114.626 34.4751 116.592 32.5094C118.558 30.5437 121.745 30.5437 123.711 32.5094L136.763 45.562C145.483 54.2818 145.483 68.4697 136.763 77.1894C128.044 85.9092 113.855 85.9092 105.136 77.1894L104.27 76.3239C102.305 74.3582 102.305 71.171 104.27 69.2053V69.2053Z" fill="url(#paint1_linear_4772_11574)"/>
<path d="M104.27 69.2047C106.236 67.239 109.423 67.239 111.389 69.2047L112.255 70.0703C115.933 73.7485 121.379 74.6014 125.881 72.636C125.189 76.1749 123.466 79.4292 120.86 82.0355L119.238 83.6572C114.094 83.2659 109.061 81.1137 105.136 77.1886L104.27 76.3231C102.305 74.3577 102.305 71.1705 104.27 69.2047V69.2047Z" fill="#423E4F"/>
<path d="M104.365 49.7266L115.811 61.1731C120.18 65.5419 120.18 72.6239 115.813 76.9907L104.363 88.4415L92.1247 67.3283L104.365 49.7266Z" fill="url(#paint2_linear_4772_11574)"/>
<path d="M56.5219 24.7118L71.8979 17.2598L80.4421 25.804L92.1247 67.3279L80.4421 112.362L76.9906 115.813C72.6218 120.182 65.542 120.18 61.173 115.811L56.5219 111.16L42.201 64.0454L56.5219 24.7118Z" fill="url(#paint3_linear_4772_11574)"/>
<path d="M32.5995 40.2461L42.201 64.0447L32.5995 87.2366L17.26 71.8972L32.5995 40.2461Z" fill="url(#paint4_linear_4772_11574)"/>
<path d="M94.1918 90.7984C95.7824 89.2078 98.3616 89.2078 99.9522 90.7984L107.034 97.8799L97.8811 107.032L90.7996 99.951C89.209 98.3604 89.209 95.7812 90.7996 94.1906L94.1918 90.7984Z" fill="#F0E02C"/>
<path d="M104.365 49.7252L104.363 88.4401L80.4424 112.361V25.8027L104.365 49.7252Z" fill="url(#paint5_linear_4772_11574)"/>
<path d="M32.6015 40.2436L35.097 35.0961L56.5219 24.7109V111.159L32.5995 87.2364V40.2459L32.6015 40.2436Z" fill="url(#paint6_linear_4772_11574)"/>
<path d="M58.4108 29.0857L62.5484 20.4841L71.8982 17.2598L77.954 23.3156L66.4692 34.8004C64.5126 36.757 61.34 36.757 59.3834 34.8004C57.8779 33.2957 57.4882 31.004 58.4108 29.0857V29.0857Z" fill="#FF88CA"/>
<path d="M11.6567 0H69.7535C76.9141 0 80.5001 8.65727 75.4368 13.7206L13.7206 75.4368C8.65729 80.5001 1.53114e-05 76.9141 1.53114e-05 69.7535V11.6566C1.53114e-05 5.21886 5.21888 0 11.6567 0V0Z" fill="url(#paint7_linear_4772_11574)"/>
<path d="M8.53394 31.4458C10.1017 31.4458 11.3777 30.18 11.388 28.61C11.3972 27.2212 11.4074 25.8327 11.4186 24.4439C11.4311 22.8676 10.1634 21.579 8.58704 21.5664H8.56363C6.99786 21.5664 5.72213 22.8293 5.70957 24.3982C5.69843 25.7896 5.68816 27.1812 5.67902 28.5726C5.66875 30.1489 6.9382 31.4355 8.51482 31.4458C8.5211 31.4458 8.52766 31.4458 8.53394 31.4458V31.4458Z" fill="#FFB2C1"/>
<path d="M8.49828 18.4808C8.52569 18.4808 8.55338 18.4805 8.58107 18.4797C10.1571 18.4349 11.3983 17.1209 11.3532 15.5448C11.3098 14.0179 11.3304 12.4747 11.4143 10.958C11.5014 9.38366 10.2959 8.03713 8.72181 7.94978C7.14718 7.86242 5.80093 9.06794 5.71386 10.6423C5.62109 12.3174 5.59854 14.0213 5.6465 15.7073C5.69046 17.2556 6.95934 18.4808 8.49828 18.4808V18.4808Z" fill="#FFB2C1"/>
<path d="M102.847 18.7644C103.97 17.641 105.791 17.641 106.914 18.7644L111.507 23.3575C112.631 24.4808 112.631 26.302 111.507 27.4253C110.384 28.5486 108.563 28.5486 107.44 27.4253L102.847 22.8322C101.723 21.7086 101.723 19.8877 102.847 18.7644Z" fill="#F0E02C"/>
<path d="M120.863 13.2734C122.452 13.2734 123.74 14.5612 123.74 16.1498V22.6455C123.74 24.2341 122.452 25.5218 120.863 25.5218C119.275 25.5218 117.987 24.2341 117.987 22.6455V16.1498C117.987 14.5612 119.275 13.2734 120.863 13.2734V13.2734Z" fill="#F0E02C"/>
<path d="M100.233 33.9043H106.729C108.317 33.9043 109.605 35.192 109.605 36.7806C109.605 38.3692 108.317 39.657 106.729 39.657H100.233C98.6442 39.657 97.3565 38.3692 97.3565 36.7806C97.3565 35.192 98.6442 33.9043 100.233 33.9043Z" fill="#F0E02C"/>
<path d="M52.5303 21.1485C51.1049 19.7231 51.3872 17.1298 53.1608 15.3562C54.9344 13.5826 57.5277 13.3003 58.9531 14.7257C60.3785 16.1511 60.0962 18.7444 58.3226 20.5181C56.549 22.2917 53.9557 22.5739 52.5303 21.1485Z" fill="#FD9BAE"/>
<path d="M14.7403 58.9474C13.3149 57.522 13.5972 54.9287 15.3708 53.1551C17.1444 51.3814 19.7378 51.0992 21.1632 52.5246C22.5886 53.95 22.3063 56.5433 20.5327 58.3169C18.759 60.0905 16.1657 60.3728 14.7403 58.9474Z" fill="#FD9BAE"/>
<path d="M43.8542 26.077C38.8796 26.077 34.8469 22.0443 34.8469 17.0698C34.8469 12.0952 38.8796 8.0625 43.8542 8.0625C48.8287 8.0625 52.8614 12.0952 52.8614 17.0698C52.8614 22.0443 48.8287 26.077 43.8542 26.077Z" fill="white"/>
<path d="M17.0688 52.8602C12.0942 52.8602 8.06153 48.8275 8.06153 43.853C8.06153 38.8784 12.0942 34.8457 17.0688 34.8457C22.0433 34.8457 26.076 38.8784 26.076 43.853C26.076 48.8275 22.0433 52.8602 17.0688 52.8602Z" fill="white"/>
<path d="M42.3806 21.9423C42.5784 21.9423 42.7794 21.9146 42.9792 21.8567C44.1148 21.5267 44.7679 20.3389 44.4377 19.2033C44.2512 18.5619 44.5972 18.1265 44.7545 17.9689C44.9118 17.8114 45.3471 17.4645 45.9886 17.6521C47.1242 17.9818 48.3123 17.3289 48.642 16.1934C48.9717 15.0578 48.3188 13.87 47.1835 13.5403C45.2444 12.977 43.1539 13.5137 41.7266 14.9416C40.2993 16.3689 39.7623 18.4599 40.3258 20.3982C40.5979 21.334 41.4528 21.9423 42.3806 21.9423V21.9423Z" fill="#383842"/>
<path d="M15.5952 48.7272C15.793 48.7272 15.994 48.6995 16.1935 48.6416C17.3291 48.3118 17.9823 47.124 17.6523 45.9885C17.4662 45.3467 17.8121 44.9114 17.9691 44.7538C18.127 44.5962 18.5618 44.2497 19.2035 44.437C20.3393 44.7667 21.5272 44.1138 21.8569 42.9782C22.1866 41.8427 21.5337 40.6548 20.3984 40.3251C18.4593 39.7625 16.3694 40.2989 14.9415 41.7262C13.5142 43.1535 12.9772 45.2445 13.5404 47.1828C13.8122 48.1189 14.6672 48.7272 15.5952 48.7272V48.7272Z" fill="#383842"/>
<path d="M36.5114 41.5298L41.5308 36.5104C42.9304 35.1108 42.9304 32.8416 41.5308 31.4423C40.1311 30.0427 37.862 30.0427 36.4626 31.4423L31.4433 36.4616C30.0437 37.8613 30.0437 40.1304 31.4433 41.5298C32.8427 42.9294 35.1118 42.9294 36.5114 41.5298V41.5298Z" fill="#383842"/>
<defs>
<linearGradient id="paint0_linear_4772_11574" x1="132.09" y1="110.847" x2="89.6067" y2="110.847" gradientUnits="userSpaceOnUse">
<stop offset="0.000558036" stop-color="#F6E66A"/>
<stop offset="0.9777" stop-color="#F9F2AB"/>
</linearGradient>
<linearGradient id="paint1_linear_4772_11574" x1="123.05" y1="83.7291" x2="123.05" y2="31.035" gradientUnits="userSpaceOnUse">
<stop stop-color="#4F4C5F"/>
<stop offset="0.9783" stop-color="#6A647F"/>
</linearGradient>
<linearGradient id="paint2_linear_4772_11574" x1="119.088" y1="69.0842" x2="92.1247" y2="69.0842" gradientUnits="userSpaceOnUse">
<stop offset="0.0212" stop-color="#FFB3DD"/>
<stop offset="1" stop-color="#FF88CA"/>
</linearGradient>
<linearGradient id="paint3_linear_4772_11574" x1="92.1247" y1="68.1743" x2="42.201" y2="68.1743" gradientUnits="userSpaceOnUse">
<stop offset="0.0212" stop-color="#FFB3DD"/>
<stop offset="1" stop-color="#FF88CA"/>
</linearGradient>
<linearGradient id="paint4_linear_4772_11574" x1="42.201" y1="63.7412" x2="17.26" y2="63.7412" gradientUnits="userSpaceOnUse">
<stop offset="0.0212" stop-color="#FFB3DD"/>
<stop offset="1" stop-color="#FF88CA"/>
</linearGradient>
<linearGradient id="paint5_linear_4772_11574" x1="104.365" y1="69.0817" x2="80.4424" y2="69.0817" gradientUnits="userSpaceOnUse">
<stop stop-color="#A47CD1"/>
<stop offset="0.9777" stop-color="#8B59C5"/>
</linearGradient>
<linearGradient id="paint6_linear_4772_11574" x1="56.5219" y1="67.9351" x2="32.5995" y2="67.9351" gradientUnits="userSpaceOnUse">
<stop stop-color="#A47CD1"/>
<stop offset="0.9777" stop-color="#8B59C5"/>
</linearGradient>
<linearGradient id="paint7_linear_4772_11574" x1="60.5493" y1="-12.5564" x2="-12.5564" y2="60.5492" gradientUnits="userSpaceOnUse">
<stop stop-color="#FF889E"/>
<stop offset="0.9788" stop-color="#F5385D"/>
</linearGradient>
</defs>
</svg>
