<svg width="114" height="111" viewBox="0 0 114 111" fill="none" xmlns="http://www.w3.org/2000/svg">
<g clip-path="url(#clip0_104_164)">
<path d="M4.90247 51.8954C4.90247 38.1915 10.4376 25.6254 20.4884 16.5119C30.136 7.76385 43.1027 2.94629 57 2.94629C70.8976 2.94629 83.8643 7.76385 93.5113 16.5117C103.562 25.6252 109.097 38.1915 109.097 51.8952H4.90247V51.8954Z" fill="url(#paint0_linear_104_164)"/>
<path d="M97.7768 67.8332C106.737 67.8332 114 60.6973 114 51.8946C114 43.092 106.737 35.9561 97.7768 35.9561C88.817 35.9561 81.5536 43.092 81.5536 51.8946C81.5536 60.6973 88.817 67.8332 97.7768 67.8332Z" fill="url(#paint1_linear_104_164)"/>
<path d="M16.2232 67.8332C25.183 67.8332 32.4464 60.6973 32.4464 51.8946C32.4464 43.092 25.183 35.9561 16.2232 35.9561C7.26337 35.9561 0 43.092 0 51.8946C0 60.6973 7.26337 67.8332 16.2232 67.8332Z" fill="url(#paint2_linear_104_164)"/>
<path d="M94.4356 89.5978C92.8868 91.1038 91.2883 92.5252 89.6446 93.8599C83.3095 99.0005 78.496 100.983 77.966 101.192L71.7871 86.1298L71.7734 86.1343C72.2737 85.9096 75.4684 84.4059 79.7387 80.829C81.1199 79.6702 82.7093 78.2153 84.4165 76.418L94.4356 89.5978Z" fill="url(#paint3_linear_104_164)"/>
<path d="M106.037 75.4369C102.553 80.7533 98.6763 85.4892 94.4356 89.5978L84.4167 76.4179C86.8257 73.8843 89.4704 70.6767 92.0968 66.6926C94.4288 63.1557 99.1021 61.928 102.899 63.8855C107.183 66.092 108.654 71.4417 106.037 75.4369Z" fill="url(#paint4_linear_104_164)"/>
<path d="M27.742 111.28C27.742 92.6575 35.2771 82.4307 35.2771 82.4307H78.7227C78.7227 82.4307 86.2578 92.6575 86.2578 111.28H27.742Z" fill="url(#paint5_linear_104_164)"/>
<path d="M81.0572 5.76271C73.7083 2.46474 65.5198 0.720703 56.9998 0.720703C48.4797 0.720703 40.2913 2.46473 32.9424 5.76249C27.4972 8.20618 24.0313 13.5782 24.0313 19.4595V47.9965H89.968V19.4597C89.9682 13.5782 86.5024 8.20618 81.0572 5.76271Z" fill="url(#paint6_linear_104_164)"/>
<path d="M97.7773 51.8964C97.7773 74.0207 79.5214 89.723 56.9998 89.723C34.4805 89.723 16.2223 74.0207 16.2223 51.8964C16.2223 44.5468 18.2375 37.9047 21.7558 32.3125C30.3077 38.2028 42.9258 41.9264 56.9998 41.9264C71.0738 41.9264 83.6919 38.2028 92.2437 32.3125C95.7621 37.9047 97.7773 44.5468 97.7773 51.8964Z" fill="url(#paint7_linear_104_164)"/>
<path d="M92.2437 32.3122C83.6919 38.2025 71.0738 41.9262 56.9998 41.9262C42.9258 41.9262 30.3076 38.2025 21.7558 32.3122C28.8245 21.0698 41.9611 14.0674 56.9998 14.0674C72.0405 14.0674 85.1771 21.0698 92.2437 32.3122Z" fill="url(#paint8_linear_104_164)"/>
<path d="M77.7142 29.0445C77.2704 29.0445 76.8222 28.9166 76.4293 28.65C75.3377 27.9091 74.1774 27.2275 72.9811 26.6235C71.8691 26.0622 71.4303 24.7213 72.0017 23.6285C72.573 22.5358 73.9379 22.1047 75.0504 22.6663C76.4206 23.3577 77.7505 24.1394 79.0031 24.9895C80.0319 25.6878 80.2901 27.0733 79.579 28.084C79.1396 28.7089 78.4327 29.0445 77.7142 29.0445Z" fill="#938EA3"/>
<path d="M66.5301 24.1095C66.3473 24.1095 66.1615 24.0876 65.976 24.0419C65.4244 23.9056 64.8585 23.7799 64.2944 23.6684C63.0686 23.4263 62.2744 22.2537 62.5208 21.0493C62.7672 19.845 63.9608 19.0643 65.1866 19.3069C65.8214 19.4322 66.4586 19.5737 67.0804 19.7272C68.293 20.0268 69.0288 21.2356 68.7238 22.427C68.4656 23.4364 67.5432 24.1095 66.5301 24.1095Z" fill="#938EA3"/>
<path d="M31.1386 63.8096C33.5659 63.8096 35.5337 62.2559 35.5337 60.3394C35.5337 58.4228 33.5659 56.8691 31.1386 56.8691C28.7112 56.8691 26.7434 58.4228 26.7434 60.3394C26.7434 62.2559 28.7112 63.8096 31.1386 63.8096Z" fill="#FD9BAE"/>
<path d="M82.8614 63.8096C85.2888 63.8096 87.2565 62.2559 87.2565 60.3394C87.2565 58.4228 85.2888 56.8691 82.8614 56.8691C80.4341 56.8691 78.4663 58.4228 78.4663 60.3394C78.4663 62.2559 80.4341 63.8096 82.8614 63.8096Z" fill="#FD9BAE"/>
<path d="M38.6737 60.3397C43.487 60.3397 47.389 56.5062 47.389 51.7773C47.389 47.0484 43.487 43.2148 38.6737 43.2148C33.8604 43.2148 29.9584 47.0484 29.9584 51.7773C29.9584 56.5062 33.8604 60.3397 38.6737 60.3397Z" fill="white"/>
<path d="M75.3263 60.3397C80.1396 60.3397 84.0416 56.5062 84.0416 51.7773C84.0416 47.0484 80.1396 43.2148 75.3263 43.2148C70.513 43.2148 66.611 47.0484 66.611 51.7773C66.611 56.5062 70.513 60.3397 75.3263 60.3397Z" fill="white"/>
<path d="M41.5521 54.2969C40.951 54.2971 40.368 53.9837 40.058 53.4295C39.6518 52.7035 38.9548 52.6251 38.6737 52.6251C38.3925 52.6251 37.6956 52.7037 37.2893 53.4295C36.8363 54.2393 35.8008 54.5347 34.9762 54.0896C34.1518 53.6445 33.8512 52.6269 34.3042 51.8171C35.1937 50.2274 36.827 49.2783 38.6735 49.2783C40.5199 49.2783 42.1532 50.2274 43.0427 51.8171C43.4958 52.6269 43.1951 53.6443 42.3707 54.0896C42.1107 54.2302 41.8294 54.2969 41.5521 54.2969Z" fill="#383842"/>
<path d="M78.2047 54.2969C77.6036 54.2971 77.0206 53.9837 76.7106 53.4295C76.3044 52.7035 75.6074 52.6251 75.3263 52.6251C75.0451 52.6251 74.3482 52.7037 73.9419 53.4295C73.4889 54.2393 72.4533 54.5347 71.6288 54.0896C70.8044 53.6445 70.5038 52.6269 70.9568 51.8171C71.8463 50.2274 73.4796 49.2783 75.3261 49.2783C77.1725 49.2783 78.8058 50.2274 79.6953 51.8171C80.1484 52.6269 79.8477 53.6443 79.0233 54.0896C78.7633 54.2302 78.4822 54.2969 78.2047 54.2969Z" fill="#383842"/>
<path d="M60.4343 63.2844H53.5657C51.6506 63.2844 50.098 61.759 50.098 59.8776C50.098 57.9961 51.6506 56.4707 53.5657 56.4707H60.4343C62.3494 56.4707 63.902 57.9961 63.902 59.8776C63.902 61.7593 62.3494 63.2844 60.4343 63.2844Z" fill="#383842"/>
<path d="M56.3712 71.2578H43.1999C40.7001 71.2578 38.6735 73.2488 38.6735 75.7048V95.697C38.6735 98.153 40.7001 100.144 43.1999 100.144H56.3712C58.871 100.144 60.8976 98.153 60.8976 95.697V75.7046C60.8976 73.2486 58.871 71.2578 56.3712 71.2578Z" fill="url(#paint9_linear_104_164)"/>
<path d="M50.7836 87.6875C49.8391 87.6875 48.9212 87.9929 48.1711 88.557L38.6737 95.6975C38.6737 98.1535 40.7003 100.144 43.2001 100.144H50.7068C52.9003 98.1666 54.3959 95.5851 54.9977 92.7516C55.5527 90.1377 53.5014 87.6875 50.7836 87.6875Z" fill="#4F4C5F"/>
<path d="M49.6347 89.9114C49.6347 94.5115 45.8378 98.2421 41.1554 98.2421H32.2209V81.5811H41.1554C43.4964 81.5811 45.6157 82.5132 47.1508 84.0212C48.6859 85.5294 49.6347 87.6114 49.6347 89.9114Z" fill="url(#paint10_linear_104_164)"/>
<path d="M32.2211 81.5811V98.2421H27.5435C25.2024 98.2421 23.0832 97.3099 21.5481 95.8019C20.0129 94.2937 19.0644 92.2117 19.0644 89.9117C19.0644 85.3116 22.8613 81.5811 27.5437 81.5811H32.2211Z" fill="url(#paint11_linear_104_164)"/>
<path d="M49.7858 78.2617C50.6054 78.2617 51.2698 77.609 51.2698 76.8037C51.2698 75.9985 50.6054 75.3457 49.7858 75.3457C48.9662 75.3457 48.3017 75.9985 48.3017 76.8037C48.3017 77.609 48.9662 78.2617 49.7858 78.2617Z" fill="#383842"/>
</g>
<defs>
<linearGradient id="paint0_linear_104_164" x1="57" y1="51.8954" x2="57" y2="2.94629" gradientUnits="userSpaceOnUse">
<stop offset="0.0212" stop-color="#F5385D"/>
<stop offset="1" stop-color="#FF889E"/>
</linearGradient>
<linearGradient id="paint1_linear_104_164" x1="97.7768" y1="67.8335" x2="97.7768" y2="35.9561" gradientUnits="userSpaceOnUse">
<stop offset="0.000558036" stop-color="#5BD6FD"/>
<stop offset="0.9777" stop-color="#A4E6FF"/>
</linearGradient>
<linearGradient id="paint2_linear_104_164" x1="16.2232" y1="67.8335" x2="16.2232" y2="35.9561" gradientUnits="userSpaceOnUse">
<stop offset="0.000558036" stop-color="#5BD6FD"/>
<stop offset="0.9777" stop-color="#A4E6FF"/>
</linearGradient>
<linearGradient id="paint3_linear_104_164" x1="83.1046" y1="101.192" x2="83.1046" y2="76.4182" gradientUnits="userSpaceOnUse">
<stop offset="0.0223" stop-color="#8B59C5"/>
<stop offset="1" stop-color="#A47CD1"/>
</linearGradient>
<linearGradient id="paint4_linear_104_164" x1="84.4167" y1="76.2767" x2="107.339" y2="76.2767" gradientUnits="userSpaceOnUse">
<stop offset="0.000510364" stop-color="#C7856A"/>
<stop offset="1" stop-color="#DA9D81"/>
</linearGradient>
<linearGradient id="paint5_linear_104_164" x1="57" y1="111.28" x2="57" y2="82.4307" gradientUnits="userSpaceOnUse">
<stop offset="0.0223" stop-color="#8B59C5"/>
<stop offset="1" stop-color="#A47CD1"/>
</linearGradient>
<linearGradient id="paint6_linear_104_164" x1="56.9998" y1="47.9967" x2="56.9998" y2="0.720703" gradientUnits="userSpaceOnUse">
<stop offset="0.000558036" stop-color="#5BD6FD"/>
<stop offset="0.9777" stop-color="#A4E6FF"/>
</linearGradient>
<linearGradient id="paint7_linear_104_164" x1="56.9998" y1="32.3125" x2="56.9998" y2="89.723" gradientUnits="userSpaceOnUse">
<stop offset="0.000510364" stop-color="#C7856A"/>
<stop offset="1" stop-color="#DA9D81"/>
</linearGradient>
<linearGradient id="paint8_linear_104_164" x1="56.9998" y1="14.0674" x2="56.9998" y2="41.9262" gradientUnits="userSpaceOnUse">
<stop stop-color="#4F4C5F"/>
<stop offset="0.9783" stop-color="#6A647F"/>
</linearGradient>
<linearGradient id="paint9_linear_104_164" x1="49.7858" y1="100.144" x2="49.7858" y2="71.2578" gradientUnits="userSpaceOnUse">
<stop offset="0.0217" stop-color="#6A647F"/>
<stop offset="1" stop-color="#4F4C5F"/>
</linearGradient>
<linearGradient id="paint10_linear_104_164" x1="32.2211" y1="89.9114" x2="49.6347" y2="89.9114" gradientUnits="userSpaceOnUse">
<stop offset="0.000510364" stop-color="#C7856A"/>
<stop offset="1" stop-color="#DA9D81"/>
</linearGradient>
<linearGradient id="paint11_linear_104_164" x1="25.6425" y1="98.2421" x2="25.6425" y2="81.5811" gradientUnits="userSpaceOnUse">
<stop offset="0.0223" stop-color="#8B59C5"/>
<stop offset="1" stop-color="#A47CD1"/>
</linearGradient>
<clipPath id="clip0_104_164">
<rect width="114" height="111" fill="white"/>
</clipPath>
</defs>
</svg>
