<svg width="312" height="645" viewBox="0 0 312 645" fill="none" xmlns="http://www.w3.org/2000/svg">
<g clip-path="url(#clip0_4766_13199)">
<g opacity="0.5" clip-path="url(#clip1_4766_13199)">
<path d="M127.584 531.066C112.334 536.895 106.855 548.554 101.543 559.862C95.5037 572.719 89.2583 586.013 66.7712 594.466C63.1579 595.824 61.3297 599.855 62.6877 603.468C63.0497 604.43 63.601 605.266 64.2839 605.949C66.1639 607.829 69.0387 608.547 71.6894 607.551C99.4942 597.099 107.646 579.748 114.195 565.805C119.035 555.502 122.646 547.833 132.926 544.001L127.584 531.066Z" fill="url(#paint0_linear_4766_13199)"/>
<path d="M139.777 509.285C150.363 509.285 158.943 500.704 158.943 490.119C158.943 479.534 150.363 470.953 139.777 470.953C137.419 470.953 135.161 471.381 133.074 472.16C129.413 460.659 118.648 452.326 105.935 452.326C90.2057 452.326 77.455 465.077 77.455 480.806C77.455 481.104 77.4684 481.399 77.4776 481.695C70.1425 482.019 64.295 488.067 64.295 495.482C64.295 503.105 70.4749 509.285 78.0979 509.285H139.777Z" fill="url(#paint1_linear_4766_13199)"/>
<path d="M215.534 495.381L193.714 485.175L163.761 503.513L135.74 543.148L225.74 517.201L215.534 495.381Z" fill="url(#paint2_linear_4766_13199)"/>
<path d="M138.089 491.478C137.75 487.904 134.749 485.175 131.16 485.175C128.058 485.175 125.331 487.227 124.472 490.207L118.972 509.285H139.777L138.089 491.478Z" fill="#D3D1D8"/>
<path d="M171.893 451.74L150.073 441.534L124.126 531.534L163.761 503.513L182.099 473.56L171.893 451.74Z" fill="url(#paint3_linear_4766_13199)"/>
<path d="M218.622 448.652L205.328 473.56L215.534 495.38L237.354 505.586L243.53 435.358L218.622 448.652Z" fill="url(#paint4_linear_4766_13199)"/>
<path d="M228.264 486.358C228.152 486.358 228.039 486.353 227.925 486.342C225.887 486.158 224.385 484.356 224.569 482.318C224.715 480.705 224.856 479.091 224.994 477.478C225.168 475.439 226.962 473.931 229.001 474.101C231.04 474.275 232.552 476.069 232.378 478.108C232.239 479.735 232.097 481.361 231.95 482.987C231.775 484.911 230.159 486.358 228.264 486.358V486.358Z" fill="#FFFCDC"/>
<path d="M229.523 469.668C229.419 469.668 229.315 469.664 229.21 469.655C227.171 469.485 225.656 467.693 225.826 465.655C226.026 463.259 226.23 460.864 226.444 458.47C226.626 456.432 228.426 454.928 230.465 455.11C232.503 455.292 234.007 457.092 233.825 459.13C233.612 461.51 233.41 463.89 233.211 466.271C233.05 468.205 231.429 469.668 229.523 469.668Z" fill="#FFFCDC"/>
<path d="M161.688 429.92L171.893 451.74L193.714 461.946L218.622 448.652L231.915 423.744L161.688 429.92Z" fill="url(#paint5_linear_4766_13199)"/>
<path d="M237.354 505.587L161.688 429.92C159.362 427.594 155.591 427.594 153.266 429.92L150.073 433.113C147.746 435.441 147.748 439.209 150.073 441.534L225.74 517.201C228.065 519.527 231.834 519.529 234.162 517.201L237.354 514.008C239.68 511.683 239.68 507.912 237.354 505.587V505.587Z" fill="url(#paint6_radial_4766_13199)"/>
<path d="M127.584 531.066C120.87 533.633 116.052 537.33 112.306 541.628C113.147 543.926 114.484 546.033 116.266 547.815L119.458 551.007C120.063 551.612 120.706 552.166 121.38 552.667C124.197 548.892 127.699 545.949 132.926 544.001L127.584 531.066Z" fill="#5C586F"/>
<path d="M243.53 426.937L240.337 423.744C238.012 421.419 234.24 421.419 231.915 423.744L124.126 531.534C121.801 533.859 121.801 537.63 124.126 539.955L127.319 543.148C129.644 545.473 133.415 545.473 135.74 543.148L243.53 435.359C245.855 433.033 245.855 429.262 243.53 426.937V426.937Z" fill="url(#paint7_linear_4766_13199)"/>
<path d="M157.837 536.777L218.418 519.311C211.757 514.353 203.532 511.502 194.752 511.502C177.967 511.502 163.588 522.001 157.837 536.777Z" fill="#2ECDF9"/>
<path d="M228.595 579.576C239.18 579.576 247.761 570.995 247.761 560.41C247.761 549.825 239.18 541.244 228.595 541.244C226.236 541.244 223.978 541.672 221.891 542.451C218.231 530.95 207.466 522.617 194.752 522.617C179.023 522.617 166.273 535.368 166.273 551.097C166.273 551.395 166.286 551.69 166.295 551.986C158.96 552.31 153.113 558.358 153.113 565.773C153.113 573.396 159.292 579.576 166.915 579.576H228.595Z" fill="url(#paint8_linear_4766_13199)"/>
</g>
<path opacity="0.5" d="M144.482 114.503C155.068 114.503 163.648 107.951 163.648 99.8684C163.648 91.7858 155.068 85.2338 144.482 85.2338C142.124 85.2338 139.866 85.5609 137.779 86.1559C134.118 77.374 123.353 71.0112 110.64 71.0112C94.9107 71.0112 82.1601 80.7471 82.1601 92.7571C82.1601 92.9848 82.1734 93.21 82.1827 93.4361C74.8475 93.6839 69 98.3016 69 103.964C69 109.784 75.1799 114.503 82.8029 114.503H144.482Z" fill="url(#paint9_linear_4766_13199)"/>
<path opacity="0.5" d="M236.118 174.092C248.755 174.092 259 166.27 259 156.621C259 146.972 248.755 139.149 236.118 139.149C233.302 139.149 230.606 139.54 228.115 140.25C223.744 129.766 210.892 122.17 195.713 122.17C176.935 122.17 161.712 133.793 161.712 148.131C161.712 148.403 161.728 148.672 161.739 148.942C152.981 149.238 146 154.75 146 161.51C146 168.459 153.378 174.092 162.479 174.092H236.118Z" fill="url(#paint10_linear_4766_13199)"/>
</g>
<defs>
<linearGradient id="paint0_linear_4766_13199" x1="62.239" y1="569.533" x2="132.926" y2="569.533" gradientUnits="userSpaceOnUse">
<stop stop-color="#4F4C5F"/>
<stop offset="0.9783" stop-color="#6A647F"/>
</linearGradient>
<linearGradient id="paint1_linear_4766_13199" x1="64.295" y1="480.806" x2="158.944" y2="480.806" gradientUnits="userSpaceOnUse">
<stop stop-color="#D0D7D7"/>
<stop offset="1" stop-color="#EFEFEF"/>
</linearGradient>
<linearGradient id="paint2_linear_4766_13199" x1="135.74" y1="514.162" x2="225.74" y2="514.162" gradientUnits="userSpaceOnUse">
<stop offset="0.0223" stop-color="#A4E6FF"/>
<stop offset="0.9994" stop-color="#5BD6FD"/>
</linearGradient>
<linearGradient id="paint3_linear_4766_13199" x1="153.113" y1="531.534" x2="153.113" y2="441.534" gradientUnits="userSpaceOnUse">
<stop stop-color="#FF889E"/>
<stop offset="0.9788" stop-color="#F5385D"/>
</linearGradient>
<linearGradient id="paint4_linear_4766_13199" x1="205.328" y1="470.472" x2="243.53" y2="470.472" gradientUnits="userSpaceOnUse">
<stop offset="0.0223" stop-color="#F9F2AB"/>
<stop offset="0.9994" stop-color="#F6E66A"/>
</linearGradient>
<linearGradient id="paint5_linear_4766_13199" x1="161.688" y1="442.845" x2="231.915" y2="442.845" gradientUnits="userSpaceOnUse">
<stop stop-color="#00C4A2"/>
<stop offset="0.9794" stop-color="#76E6D5"/>
</linearGradient>
<radialGradient id="paint6_radial_4766_13199" cx="0" cy="0" r="1" gradientUnits="userSpaceOnUse" gradientTransform="translate(193.713 473.561) scale(45.3851 45.3851)">
<stop stop-color="#D86743"/>
<stop offset="0.9788" stop-color="#E99780"/>
</radialGradient>
<linearGradient id="paint7_linear_4766_13199" x1="122.382" y1="483.446" x2="245.274" y2="483.446" gradientUnits="userSpaceOnUse">
<stop stop-color="#D86743"/>
<stop offset="0.9788" stop-color="#E99780"/>
</linearGradient>
<linearGradient id="paint8_linear_4766_13199" x1="153.113" y1="551.097" x2="247.761" y2="551.097" gradientUnits="userSpaceOnUse">
<stop stop-color="#D0D7D7"/>
<stop offset="1" stop-color="#EFEFEF"/>
</linearGradient>
<linearGradient id="paint9_linear_4766_13199" x1="69" y1="92.7571" x2="163.648" y2="92.7571" gradientUnits="userSpaceOnUse">
<stop stop-color="#D0D7D7"/>
<stop offset="1" stop-color="#EFEFEF"/>
</linearGradient>
<linearGradient id="paint10_linear_4766_13199" x1="146" y1="148.131" x2="259" y2="148.131" gradientUnits="userSpaceOnUse">
<stop stop-color="#D0D7D7"/>
<stop offset="1" stop-color="#EFEFEF"/>
</linearGradient>
<clipPath id="clip0_4766_13199">
<rect width="312" height="645" fill="white"/>
</clipPath>
<clipPath id="clip1_4766_13199">
<rect width="186" height="186" fill="white" transform="translate(62 422)"/>
</clipPath>
</defs>
</svg>
