<svg width="340" height="434" viewBox="0 0 340 434" fill="none" xmlns="http://www.w3.org/2000/svg">
<g clip-path="url(#clip0_4766_12970)">
<g opacity="0.5" clip-path="url(#clip1_4766_12970)">
<path d="M203.017 300.35C221.382 307.369 227.981 321.41 234.378 335.028C241.651 350.511 249.173 366.522 276.254 376.702C280.606 378.338 282.807 383.191 281.172 387.543C280.736 388.702 280.072 389.709 279.25 390.531C276.985 392.795 273.523 393.66 270.331 392.46C236.846 379.873 227.029 358.976 219.141 342.186C213.312 329.777 208.964 320.541 196.584 315.927L203.017 300.35Z" fill="url(#paint0_linear_4766_12970)"/>
<path d="M188.333 274.117C175.585 274.117 165.251 263.783 165.251 251.035C165.251 238.288 175.585 227.954 188.333 227.954C191.173 227.954 193.893 228.469 196.406 229.408C200.814 215.557 213.778 205.521 229.09 205.521C248.032 205.521 263.387 220.877 263.387 239.819C263.387 240.179 263.371 240.534 263.36 240.89C272.194 241.281 279.236 248.564 279.236 257.494C279.236 266.675 271.794 274.117 262.613 274.117H188.333Z" fill="url(#paint1_linear_4766_12970)"/>
<path d="M97.099 257.372L123.377 245.081L159.45 267.166L193.195 314.899L84.808 283.651L97.099 257.372Z" fill="url(#paint2_linear_4766_12970)"/>
<path d="M190.366 252.672C190.774 248.368 194.388 245.081 198.711 245.081C202.446 245.081 205.73 247.552 206.765 251.141L213.389 274.117H188.333L190.366 252.672Z" fill="#D3D1D8"/>
<path d="M149.655 204.816L175.934 192.525L207.182 300.912L159.45 267.166L137.364 231.094L149.655 204.816Z" fill="url(#paint3_linear_4766_12970)"/>
<path d="M93.3804 201.097L109.39 231.094L97.0991 257.372L70.8206 269.663L63.3835 185.088L93.3804 201.097Z" fill="url(#paint4_linear_4766_12970)"/>
<path d="M81.7684 246.507C81.9032 246.507 82.0393 246.501 82.1762 246.488C84.6304 246.266 86.4398 244.096 86.2176 241.642C86.0418 239.699 85.8718 237.756 85.7058 235.813C85.4961 233.358 83.3364 231.541 80.88 231.746C78.4245 231.956 76.6039 234.117 76.8136 236.572C76.981 238.531 77.1519 240.489 77.3295 242.447C77.5396 244.765 79.486 246.507 81.7684 246.507V246.507Z" fill="#FFFCDC"/>
<path d="M80.2522 226.406C80.3767 226.406 80.502 226.401 80.6283 226.39C83.0843 226.186 84.9089 224.028 84.7036 221.573C84.4627 218.688 84.2177 215.804 83.9598 212.921C83.7402 210.466 81.573 208.655 79.1179 208.873C76.6633 209.093 74.8512 211.261 75.0707 213.715C75.3268 216.581 75.5705 219.448 75.8101 222.315C76.0046 224.644 77.9559 226.406 80.2522 226.406Z" fill="#FFFCDC"/>
<path d="M161.946 178.538L149.655 204.816L123.377 217.107L93.3803 201.097L77.3706 171.101L161.946 178.538Z" fill="url(#paint5_linear_4766_12970)"/>
<path d="M70.8205 269.663L161.946 178.538C164.747 175.737 169.288 175.737 172.088 178.538L175.933 182.383C178.736 185.186 178.734 189.725 175.933 192.525L84.808 283.651C82.0076 286.451 77.4691 286.455 74.6656 283.651L70.8205 279.806C68.0201 277.005 68.0201 272.464 70.8205 269.663V269.663Z" fill="url(#paint6_radial_4766_12970)"/>
<path d="M203.017 300.35C211.103 303.44 216.906 307.892 221.417 313.069C220.403 315.836 218.793 318.374 216.647 320.52L212.803 324.364C212.074 325.093 211.301 325.76 210.488 326.363C207.096 321.817 202.879 318.273 196.583 315.927L203.017 300.35Z" fill="#5C586F"/>
<path d="M63.3834 174.945L67.2285 171.1C70.0289 168.3 74.5705 168.3 77.3705 171.1L207.182 300.911C209.982 303.712 209.982 308.253 207.182 311.053L203.337 314.899C200.536 317.699 195.995 317.699 193.195 314.899L63.3834 185.088C60.583 182.287 60.583 177.746 63.3834 174.945V174.945Z" fill="url(#paint7_linear_4766_12970)"/>
<path d="M166.584 307.227L93.6253 286.193C101.648 280.221 111.553 276.788 122.126 276.788C142.341 276.788 159.657 289.432 166.584 307.227Z" fill="#2ECDF9"/>
<path d="M81.3695 358.77C68.6216 358.77 58.2877 348.436 58.2877 335.688C58.2877 322.94 68.6216 312.606 81.3695 312.606C84.2102 312.606 86.9294 313.122 89.4425 314.06C93.8511 300.209 106.815 290.174 122.126 290.174C141.069 290.174 156.424 305.529 156.424 324.472C156.424 324.831 156.408 325.186 156.397 325.543C165.231 325.934 172.273 333.217 172.273 342.147C172.273 351.327 164.831 358.77 155.65 358.77H81.3695Z" fill="url(#paint8_linear_4766_12970)"/>
</g>
<path opacity="0.5" d="M248.082 81.3923C235.334 81.3923 225 73.5017 225 63.7679C225 54.034 235.334 46.1435 248.082 46.1435C250.922 46.1435 253.642 46.5373 256.155 47.2538C260.563 36.6778 273.527 29.0151 288.839 29.0151C307.781 29.0151 323.137 40.7401 323.137 55.2037C323.137 55.478 323.12 55.7492 323.109 56.0214C331.943 56.3199 338.985 61.881 338.985 68.6997C338.985 75.7095 331.543 81.3923 322.362 81.3923H248.082Z" fill="url(#paint9_linear_4766_12970)"/>
</g>
<defs>
<linearGradient id="paint0_linear_4766_12970" x1="281.712" y1="346.675" x2="196.584" y2="346.675" gradientUnits="userSpaceOnUse">
<stop stop-color="#4F4C5F"/>
<stop offset="0.9783" stop-color="#6A647F"/>
</linearGradient>
<linearGradient id="paint1_linear_4766_12970" x1="279.236" y1="239.819" x2="165.25" y2="239.819" gradientUnits="userSpaceOnUse">
<stop stop-color="#D0D7D7"/>
<stop offset="1" stop-color="#EFEFEF"/>
</linearGradient>
<linearGradient id="paint2_linear_4766_12970" x1="193.195" y1="279.99" x2="84.808" y2="279.99" gradientUnits="userSpaceOnUse">
<stop offset="0.0223" stop-color="#A4E6FF"/>
<stop offset="0.9994" stop-color="#5BD6FD"/>
</linearGradient>
<linearGradient id="paint3_linear_4766_12970" x1="172.273" y1="300.912" x2="172.273" y2="192.525" gradientUnits="userSpaceOnUse">
<stop stop-color="#FF889E"/>
<stop offset="0.9788" stop-color="#F5385D"/>
</linearGradient>
<linearGradient id="paint4_linear_4766_12970" x1="109.39" y1="227.375" x2="63.3835" y2="227.375" gradientUnits="userSpaceOnUse">
<stop offset="0.0223" stop-color="#F9F2AB"/>
<stop offset="0.9994" stop-color="#F6E66A"/>
</linearGradient>
<linearGradient id="paint5_linear_4766_12970" x1="161.946" y1="194.104" x2="77.3706" y2="194.104" gradientUnits="userSpaceOnUse">
<stop stop-color="#00C4A2"/>
<stop offset="0.9794" stop-color="#76E6D5"/>
</linearGradient>
<radialGradient id="paint6_radial_4766_12970" cx="0" cy="0" r="1" gradientUnits="userSpaceOnUse" gradientTransform="translate(123.378 231.095) rotate(180) scale(54.6573 54.6573)">
<stop stop-color="#D86743"/>
<stop offset="0.9788" stop-color="#E99780"/>
</radialGradient>
<linearGradient id="paint7_linear_4766_12970" x1="209.282" y1="242.999" x2="61.2831" y2="242.999" gradientUnits="userSpaceOnUse">
<stop stop-color="#D86743"/>
<stop offset="0.9788" stop-color="#E99780"/>
</linearGradient>
<linearGradient id="paint8_linear_4766_12970" x1="172.273" y1="324.472" x2="58.2877" y2="324.472" gradientUnits="userSpaceOnUse">
<stop stop-color="#D0D7D7"/>
<stop offset="1" stop-color="#EFEFEF"/>
</linearGradient>
<linearGradient id="paint9_linear_4766_12970" x1="338.985" y1="55.2037" x2="225" y2="55.2037" gradientUnits="userSpaceOnUse">
<stop stop-color="#D0D7D7"/>
<stop offset="1" stop-color="#EFEFEF"/>
</linearGradient>
<clipPath id="clip0_4766_12970">
<rect width="340" height="434" fill="white"/>
</clipPath>
<clipPath id="clip1_4766_12970">
<rect width="224" height="224" fill="white" transform="matrix(-1 0 0 1 282 169)"/>
</clipPath>
</defs>
</svg>
