<svg width="225" height="38" viewBox="0 0 225 38" fill="none" xmlns="http://www.w3.org/2000/svg">
<path d="M93.608 34V23.66H90V19.832H102.54V23.66H98.932V34H93.608ZM111.352 34.22C109.753 34.22 108.389 33.9853 107.26 33.516C106.131 33.032 105.265 32.2547 104.664 31.184C104.063 30.1133 103.762 28.6907 103.762 26.916C103.762 25.1267 104.063 23.704 104.664 22.648C105.265 21.5773 106.131 20.8073 107.26 20.338C108.389 19.854 109.753 19.612 111.352 19.612C112.951 19.612 114.315 19.854 115.444 20.338C116.573 20.8073 117.439 21.5773 118.04 22.648C118.641 23.704 118.942 25.1267 118.942 26.916C118.942 28.6907 118.641 30.1133 118.04 31.184C117.439 32.2547 116.573 33.032 115.444 33.516C114.315 33.9853 112.951 34.22 111.352 34.22ZM111.352 29.71C112.129 29.71 112.679 29.5047 113.002 29.094C113.339 28.6687 113.508 27.9427 113.508 26.916C113.508 25.8893 113.339 25.1707 113.002 24.76C112.679 24.3347 112.129 24.122 111.352 24.122C110.575 24.122 110.017 24.3347 109.68 24.76C109.357 25.1707 109.196 25.8893 109.196 26.916C109.196 27.9427 109.357 28.6687 109.68 29.094C110.017 29.5047 110.575 29.71 111.352 29.71ZM123.843 34V28.852L118.717 19.832H124.261L126.505 24.342L128.749 19.832H134.293L129.167 28.852V34H123.843ZM139.839 34.22C138.842 34.22 137.881 34.1393 136.957 33.978C136.033 33.802 135.256 33.5527 134.625 33.23V29.248C135.315 29.5853 136.092 29.864 136.957 30.084C137.823 30.304 138.593 30.414 139.267 30.414C139.707 30.414 140.052 30.3627 140.301 30.26C140.551 30.1427 140.675 29.9813 140.675 29.776C140.675 29.512 140.441 29.3067 139.971 29.16C139.502 29.0133 138.886 28.8007 138.123 28.522C137.214 28.17 136.495 27.8033 135.967 27.422C135.439 27.0407 135.058 26.586 134.823 26.058C134.603 25.5153 134.493 24.8407 134.493 24.034C134.493 21.086 136.569 19.612 140.719 19.612C141.189 19.612 141.709 19.6487 142.281 19.722C142.868 19.7807 143.433 19.8613 143.975 19.964C144.533 20.0667 145.002 20.1767 145.383 20.294V24.298C144.577 23.9607 143.865 23.7333 143.249 23.616C142.633 23.4987 142.091 23.44 141.621 23.44C141.255 23.44 140.881 23.4767 140.499 23.55C140.118 23.6087 139.927 23.7553 139.927 23.99C139.927 24.1807 140.096 24.3347 140.433 24.452C140.771 24.5547 141.306 24.7087 142.039 24.914C143.213 25.2367 144.093 25.6253 144.679 26.08C145.266 26.52 145.655 27.048 145.845 27.664C146.051 28.2653 146.153 28.962 146.153 29.754C146.153 31.1033 145.625 32.1887 144.569 33.01C143.513 33.8167 141.937 34.22 139.839 34.22ZM158.647 34.22C157.649 34.22 156.689 34.1393 155.765 33.978C154.841 33.802 154.063 33.5527 153.433 33.23V29.248C154.122 29.5853 154.899 29.864 155.765 30.084C156.63 30.304 157.4 30.414 158.075 30.414C158.515 30.414 158.859 30.3627 159.109 30.26C159.358 30.1427 159.483 29.9813 159.483 29.776C159.483 29.512 159.248 29.3067 158.779 29.16C158.309 29.0133 157.693 28.8007 156.931 28.522C156.021 28.17 155.303 27.8033 154.775 27.422C154.247 27.0407 153.865 26.586 153.631 26.058C153.411 25.5153 153.301 24.8407 153.301 24.034C153.301 21.086 155.376 19.612 159.527 19.612C159.996 19.612 160.517 19.6487 161.089 19.722C161.675 19.7807 162.24 19.8613 162.783 19.964C163.34 20.0667 163.809 20.1767 164.191 20.294V24.298C163.384 23.9607 162.673 23.7333 162.057 23.616C161.441 23.4987 160.898 23.44 160.429 23.44C160.062 23.44 159.688 23.4767 159.307 23.55C158.925 23.6087 158.735 23.7553 158.735 23.99C158.735 24.1807 158.903 24.3347 159.241 24.452C159.578 24.5547 160.113 24.7087 160.847 24.914C162.02 25.2367 162.9 25.6253 163.487 26.08C164.073 26.52 164.462 27.048 164.653 27.664C164.858 28.2653 164.961 28.962 164.961 29.754C164.961 31.1033 164.433 32.1887 163.377 33.01C162.321 33.8167 160.744 34.22 158.647 34.22ZM169.989 34V23.66H166.381V19.832H178.921V23.66H175.313V34H169.989ZM187.733 34.22C186.135 34.22 184.771 33.9853 183.641 33.516C182.512 33.032 181.647 32.2547 181.045 31.184C180.444 30.1133 180.143 28.6907 180.143 26.916C180.143 25.1267 180.444 23.704 181.045 22.648C181.647 21.5773 182.512 20.8073 183.641 20.338C184.771 19.854 186.135 19.612 187.733 19.612C189.332 19.612 190.696 19.854 191.825 20.338C192.955 20.8073 193.82 21.5773 194.421 22.648C195.023 23.704 195.323 25.1267 195.323 26.916C195.323 28.6907 195.023 30.1133 194.421 31.184C193.82 32.2547 192.955 33.032 191.825 33.516C190.696 33.9853 189.332 34.22 187.733 34.22ZM187.733 29.71C188.511 29.71 189.061 29.5047 189.383 29.094C189.721 28.6687 189.889 27.9427 189.889 26.916C189.889 25.8893 189.721 25.1707 189.383 24.76C189.061 24.3347 188.511 24.122 187.733 24.122C186.956 24.122 186.399 24.3347 186.061 24.76C185.739 25.1707 185.577 25.8893 185.577 26.916C185.577 27.9427 185.739 28.6687 186.061 29.094C186.399 29.5047 186.956 29.71 187.733 29.71ZM197.517 34V19.832H205.481C206.699 19.832 207.703 20.0667 208.495 20.536C209.287 20.9907 209.874 21.6213 210.255 22.428C210.651 23.22 210.849 24.122 210.849 25.134C210.849 26.0873 210.6 26.9233 210.101 27.642C209.617 28.3607 209.031 28.9547 208.341 29.424C208.503 29.5267 208.627 29.644 208.715 29.776C208.803 29.8933 208.877 30.018 208.935 30.15L210.607 34H205.063L203.677 30.854C203.604 30.678 203.523 30.5607 203.435 30.502C203.347 30.4287 203.223 30.392 203.061 30.392H202.841V34H197.517ZM202.841 26.234H204.139C205.005 26.234 205.437 25.8673 205.437 25.134C205.437 24.7233 205.335 24.43 205.129 24.254C204.939 24.078 204.638 23.99 204.227 23.99H202.841V26.234ZM213.055 34V19.832H224.385V23.66H218.379V24.936H223.549V28.896H218.379V30.172H224.385V34H213.055Z" fill="white"/>
<g clip-path="url(#clip0_4765_12576)">
<path d="M67 38.5C67 34.7573 66.2628 31.0513 64.8306 27.5935C63.3983 24.1357 61.299 20.9939 58.6525 18.3475C56.0061 15.701 52.8643 13.6017 49.4065 12.1694C45.9487 10.7372 42.2427 10 38.5 10C34.7573 10 31.0513 10.7372 27.5935 12.1694C24.1357 13.6017 20.9939 15.701 18.3475 18.3475C15.701 20.9939 13.6017 24.1357 12.1694 27.5935C10.7372 31.0513 10 34.7573 10 38.5L15.7 38.5C15.7 35.5059 16.2897 32.541 17.4355 29.7748C18.5814 27.0086 20.2608 24.4951 22.378 22.378C24.4951 20.2608 27.0086 18.5814 29.7748 17.4355C32.541 16.2897 35.5059 15.7 38.5 15.7C41.4941 15.7 44.459 16.2897 47.2252 17.4355C49.9914 18.5814 52.5049 20.2608 54.622 22.378C56.7392 24.4951 58.4186 27.0086 59.5645 29.7748C60.7103 32.541 61.3 35.5059 61.3 38.5H67Z" fill="#FDF6A6"/>
<path d="M78 39C78 33.8784 76.9912 28.807 75.0313 24.0753C73.0714 19.3436 70.1986 15.0443 66.5772 11.4228C62.9557 7.80135 58.6564 4.92863 53.9247 2.9687C49.193 1.00876 44.1216 -2.2387e-07 39 0C33.8784 2.2387e-07 28.807 1.00877 24.0753 2.9687C19.3436 4.92863 15.0443 7.80135 11.4228 11.4228C7.80135 15.0443 4.92863 19.3437 2.9687 24.0753C1.00876 28.807 -4.4774e-07 33.8785 0 39L5.46 39C5.46 34.5955 6.32754 30.2341 8.01308 26.1648C9.69862 22.0955 12.1692 18.3981 15.2836 15.2836C18.3981 12.1692 22.0955 9.69862 26.1648 8.01308C30.2341 6.32754 34.5955 5.46 39 5.46C43.4045 5.46 47.7659 6.32754 51.8352 8.01308C55.9045 9.69862 59.6019 12.1692 62.7164 15.2836C65.8308 18.3981 68.3014 22.0955 69.9869 26.1648C71.6725 30.2341 72.54 34.5955 72.54 39H78Z" fill="#FAED4D"/>
<path d="M56 38C56 35.6362 55.5344 33.2956 54.6298 31.1117C53.7252 28.9278 52.3994 26.9435 50.7279 25.2721C49.0565 23.6006 47.0722 22.2748 44.8883 21.3702C42.7044 20.4656 40.3638 20 38 20C35.6362 20 33.2956 20.4656 31.1117 21.3702C28.9278 22.2748 26.9435 23.6006 25.2721 25.2721C23.6006 26.9435 22.2748 28.9278 21.3702 31.1117C20.4656 33.2956 20 35.6362 20 38L25.4 38C25.4 36.3453 25.7259 34.7069 26.3591 33.1782C26.9923 31.6495 27.9204 30.2605 29.0905 29.0905C30.2605 27.9204 31.6495 26.9923 33.1782 26.3591C34.7069 25.7259 36.3453 25.4 38 25.4C39.6547 25.4 41.2931 25.7259 42.8218 26.3591C44.3505 26.9923 45.7395 27.9204 46.9095 29.0905C48.0796 30.2605 49.0077 31.6495 49.6409 33.1782C50.2741 34.7069 50.6 36.3453 50.6 38H56Z" fill="#FEFBD2"/>
</g>
<defs>
<clipPath id="clip0_4765_12576">
<rect width="78" height="38" fill="white"/>
</clipPath>
</defs>
</svg>
