<svg width="156" height="125" viewBox="0 0 156 125" fill="none" xmlns="http://www.w3.org/2000/svg">
<g opacity="0.5">
<path d="M125.188 9.1781C119.349 5.76219 112.065 10.2059 112.307 16.9667C112.902 33.6077 106.849 50.4422 94.1455 63.1454C81.4421 75.8489 64.6076 81.9025 47.9665 81.3071C41.2058 81.0652 36.7623 88.3492 40.178 94.1884C51.0253 112.732 71.2049 125.152 94.2752 124.999C128.123 124.774 155.774 97.1233 155.999 63.2753C156.152 40.2053 143.732 20.0254 125.188 9.1781V9.1781Z" fill="url(#paint0_linear_4768_13526)"/>
<path d="M91.6575 124.96C92.6171 122.614 93.1486 120.047 93.1486 117.356C93.1486 106.252 84.1474 97.251 73.0438 97.251C64.3038 97.251 56.8692 102.829 54.0991 110.619C64.3492 119.161 77.3916 124.464 91.6575 124.96V124.96Z" fill="url(#paint1_linear_4768_13526)"/>
<path d="M81.235 96.926C83.4139 96.926 85.1803 95.5065 85.1803 93.7555C85.1803 92.0044 83.4139 90.585 81.235 90.585C79.0561 90.585 77.2898 92.0044 77.2898 93.7555C77.2898 95.5065 79.0561 96.926 81.235 96.926Z" fill="#EAADCD"/>
<path d="M127.664 96.926C129.843 96.926 131.609 95.5065 131.609 93.7555C131.609 92.0044 129.843 90.585 127.664 90.585C125.485 90.585 123.719 92.0044 123.719 93.7555C123.719 95.5065 125.485 96.926 127.664 96.926Z" fill="#EAADCD"/>
<path d="M87.9989 93.7552C92.3196 93.7552 95.8223 90.2526 95.8223 85.9318C95.8223 81.6111 92.3196 78.1084 87.9989 78.1084C83.6781 78.1084 80.1754 81.6111 80.1754 85.9318C80.1754 90.2526 83.6781 93.7552 87.9989 93.7552Z" fill="white"/>
<path d="M84.8382 90.5939C87.4133 90.5939 89.5009 88.5064 89.5009 85.9312C89.5009 83.3561 87.4133 81.2686 84.8382 81.2686C82.2631 81.2686 80.1755 83.3561 80.1755 85.9312C80.1755 88.5064 82.2631 90.5939 84.8382 90.5939Z" fill="#3B3B44"/>
<path d="M120.9 93.7552C125.221 93.7552 128.723 90.2526 128.723 85.9318C128.723 81.6111 125.221 78.1084 120.9 78.1084C116.579 78.1084 113.076 81.6111 113.076 85.9318C113.076 90.2526 116.579 93.7552 120.9 93.7552Z" fill="white"/>
<path d="M117.739 90.5949C120.314 90.5949 122.402 88.5073 122.402 85.9322C122.402 83.3571 120.314 81.2695 117.739 81.2695C115.164 81.2695 113.077 83.3571 113.077 85.9322C113.077 88.5073 115.164 90.5949 117.739 90.5949Z" fill="#3B3B44"/>
<path d="M106.454 87.832H102.444C101.65 87.832 100.95 88.354 100.726 89.1163C100.02 91.5174 99.209 96.4458 104.449 96.4458C109.689 96.4458 108.879 91.5171 108.173 89.1163C107.949 88.354 107.249 87.832 106.454 87.832V87.832Z" fill="#3B3B44"/>
<path d="M111.964 26.0889C110.579 38.5792 105.418 50.7298 96.4739 60.6878C99.823 63.3657 104.067 64.9706 108.689 64.9706C119.502 64.9706 128.269 56.2045 128.269 45.3907C128.269 35.6937 121.218 27.6481 111.964 26.0889Z" fill="url(#paint2_linear_4768_13526)"/>
<path d="M152.874 69.9844C143.271 69.9844 135.487 77.7687 135.487 87.3714C135.487 93.1062 138.264 98.191 142.546 101.358C149.521 92.5658 154.174 81.8611 155.562 70.1917C154.685 70.0557 153.788 69.9844 152.874 69.9844V69.9844Z" fill="url(#paint3_linear_4768_13526)"/>
</g>
<g clip-path="url(#clip0_4768_13526)">
<path d="M51.105 19.6106L42.5461 18.3767L38.7184 10.6826C36.4345 6.09183 29.8359 6.09174 27.5521 10.6826L23.7244 18.3767L15.1655 19.6106C10.0587 20.3467 8.01961 26.5726 11.715 30.1461L17.9083 36.1351L16.4463 44.5918C15.574 49.6375 20.9125 53.4855 25.4802 51.1031L33.1354 47.1105L40.7908 51.1031C45.3584 53.4855 50.6968 49.6376 49.8246 44.5918L48.3626 36.1351L54.5559 30.1461C58.2509 26.5726 56.2118 20.3468 51.105 19.6106Z" fill="url(#paint4_linear_4768_13526)"/>
<path d="M39.8865 20.5642C39.7834 20.6665 39.6621 20.7541 39.5241 20.8216C38.8462 21.1534 38.0256 20.8774 37.6909 20.2048L36.264 17.3366C35.9294 16.6642 36.2076 15.8499 36.8856 15.5179C37.5635 15.1861 38.3842 15.4622 38.7189 16.1347L40.1458 19.0029C40.4122 19.5385 40.2898 20.1641 39.8865 20.5642Z" fill="#FFE9CC"/>
<path d="M36.2445 13.9284C36.1415 14.0306 36.0201 14.1182 35.8822 14.1857C35.2043 14.5175 34.3835 14.2414 34.0489 13.569C33.6663 12.8 33.4901 12.7165 33.2828 12.6827C32.5368 12.5611 32.0315 11.8625 32.1541 11.1225C32.2767 10.3825 32.9809 9.88117 33.7268 10.0028C35.4691 10.2869 36.1679 11.6919 36.5038 12.367C36.7703 12.9027 36.6479 13.5283 36.2445 13.9284V13.9284Z" fill="#FFE9CC"/>
<path d="M23.6996 35.265C23.6996 34.4147 22.835 33.7254 21.7684 33.7254C20.7018 33.7254 19.8372 34.4147 19.8372 35.265C19.8372 36.1154 20.7018 36.8047 21.7684 36.8047C22.835 36.8047 23.6996 36.1154 23.6996 35.265Z" fill="#FF75C0"/>
<path d="M46.4261 35.268C46.4261 34.4177 45.5615 33.7283 44.4949 33.7283C43.4284 33.7283 42.5638 34.4177 42.5638 35.268C42.5638 36.1183 43.4284 36.8076 44.4949 36.8076C45.5615 36.8076 46.4261 36.1183 46.4261 35.268Z" fill="#FF75C0"/>
<path d="M25.082 31.9698C26.0108 31.9698 26.8681 32.1737 27.5595 32.518C28.147 32.8106 28.8476 32.4151 28.8998 31.765C28.9144 31.5825 28.916 31.3962 28.9036 31.2072C28.7755 29.2643 27.1448 27.7127 25.1827 27.6628C23.0215 27.6078 21.2523 29.3294 21.2523 31.461C21.2523 31.5691 21.2569 31.6763 21.2658 31.7821C21.3203 32.4247 22.0232 32.8077 22.6041 32.5183C23.2954 32.1738 24.153 31.9699 25.082 31.9698V31.9698Z" fill="white"/>
<path d="M33.1353 36.5663C32.3016 36.5663 31.468 36.2899 30.7724 35.737C30.1273 35.2242 30.0232 34.2897 30.5402 33.6497C31.057 33.0096 31.999 32.9066 32.6441 33.4193C32.9333 33.6491 33.3373 33.6491 33.6265 33.4193C34.2715 32.9065 35.2134 33.0096 35.7305 33.6497C36.2473 34.2898 36.1434 35.2242 35.4982 35.737C34.8026 36.29 33.9689 36.5664 33.1353 36.5663Z" fill="#383842"/>
<path d="M25.082 31.9695C25.8482 31.9695 26.5657 32.1083 27.1817 32.3502C27.2995 32.077 27.3646 31.7767 27.3647 31.4607C27.3647 30.21 26.3429 29.1962 25.0821 29.1962C23.8215 29.1962 22.7996 30.2101 22.7995 31.4607C22.7995 31.7766 22.8646 32.0769 22.9825 32.3502C23.5985 32.1084 24.3158 31.9695 25.082 31.9695V31.9695Z" fill="#383842"/>
<path d="M41.1887 31.9698C42.1175 31.9698 42.9747 32.1737 43.6662 32.518C44.2538 32.8106 44.9543 32.4151 45.0065 31.765C45.0211 31.5825 45.0227 31.3962 45.0103 31.2072C44.8822 29.2643 43.2515 27.7127 41.2894 27.6628C39.1282 27.6078 37.3589 29.3294 37.3589 31.461C37.3589 31.5691 37.3636 31.6763 37.3725 31.7821C37.427 32.4247 38.1299 32.8077 38.7107 32.5182C39.4021 32.1738 40.2596 31.9698 41.1887 31.9698V31.9698Z" fill="white"/>
<path d="M41.1885 31.9696C41.9546 31.9696 42.6721 32.1083 43.2882 32.3502C43.406 32.077 43.4712 31.7767 43.4712 31.4608C43.4713 30.2101 42.4493 29.1963 41.1886 29.1963C39.9278 29.1963 38.906 30.2101 38.9059 31.4608C38.9059 31.7767 38.9712 32.077 39.089 32.3502C39.7048 32.1083 40.4222 31.9697 41.1885 31.9696Z" fill="#383842"/>
<path d="M4.51062 10.1368C4.16022 11.7859 2.95911 13.0015 1.25621 13.3509C0.662161 13.4728 0.238251 13.9953 0.238251 14.6103V14.6782C0.238251 15.2821 0.66572 15.8026 1.26169 15.9256C2.96103 16.2765 4.15994 17.4906 4.51021 19.1371C4.63628 19.7293 5.14314 20.1649 5.76908 20.1649H5.85066C6.4573 20.1649 6.98401 19.7445 7.10692 19.1551C7.45897 17.4663 8.68376 16.2747 10.3453 15.9268C10.9422 15.8018 11.3814 15.2989 11.3814 14.6936V14.5817C11.3814 13.9764 10.9422 13.4735 10.3453 13.3484C8.6839 13.0004 7.45911 11.8089 7.10692 10.1202C6.98401 9.5309 6.4573 9.11035 5.83492 9.11035H5.7532C5.14368 9.11049 4.63641 9.54516 4.51062 10.1368V10.1368Z" fill="url(#paint5_linear_4768_13526)"/>
<path d="M57.7751 56.5496C56.1128 56.8972 54.8875 58.0888 54.5353 59.7782C54.4124 60.3675 53.8857 60.7881 53.2658 60.7881H53.1973C52.5886 60.7881 52.064 60.364 51.94 59.7727C51.5863 58.0869 50.3624 56.8975 48.7027 56.55C48.1057 56.4249 47.6666 55.9221 47.6666 55.3011V55.2202C47.6666 54.6184 48.0904 54.0958 48.6845 53.9739C50.3868 53.6246 51.5879 52.4096 51.9386 50.7612C52.0646 50.169 52.5715 49.7334 53.1817 49.7334H53.2945C53.9046 49.7334 54.4116 50.169 54.5376 50.7612C54.8884 52.4094 56.0894 53.6245 57.7916 53.9739C58.3857 54.0958 58.8096 54.6184 58.8096 55.2358V55.3169C58.8096 55.9216 58.3716 56.4249 57.7751 56.5496V56.5496Z" fill="url(#paint6_linear_4768_13526)"/>
</g>
<defs>
<linearGradient id="paint0_linear_4768_13526" x1="97.4999" y1="128.859" x2="97.4999" y2="52.0748" gradientUnits="userSpaceOnUse">
<stop stop-color="#9FD8E6"/>
<stop offset="1" stop-color="#C4E8F0"/>
</linearGradient>
<linearGradient id="paint1_linear_4768_13526" x1="73.6239" y1="98.6523" x2="73.6239" y2="120.482" gradientUnits="userSpaceOnUse">
<stop stop-color="#6DC8DD"/>
<stop offset="1" stop-color="#9FD8E6"/>
</linearGradient>
<linearGradient id="paint2_linear_4768_13526" x1="112.371" y1="66.2533" x2="112.371" y2="40.7359" gradientUnits="userSpaceOnUse">
<stop stop-color="#6DC8DD"/>
<stop offset="1" stop-color="#9FD8E6"/>
</linearGradient>
<linearGradient id="paint3_linear_4768_13526" x1="145.524" y1="96.6368" x2="145.524" y2="80.468" gradientUnits="userSpaceOnUse">
<stop stop-color="#6DC8DD"/>
<stop offset="1" stop-color="#9FD8E6"/>
</linearGradient>
<linearGradient id="paint4_linear_4768_13526" x1="16.8031" y1="16.235" x2="49.2072" y2="48.8984" gradientUnits="userSpaceOnUse">
<stop offset="0.0223" stop-color="#FCCB88"/>
<stop offset="0.9994" stop-color="#F7AC3E"/>
</linearGradient>
<linearGradient id="paint5_linear_4768_13526" x1="0.238388" y1="14.6378" x2="11.3815" y2="14.6378" gradientUnits="userSpaceOnUse">
<stop offset="0.0223" stop-color="#F9F2AB"/>
<stop offset="0.9994" stop-color="#F6E66A"/>
</linearGradient>
<linearGradient id="paint6_linear_4768_13526" x1="47.6665" y1="55.2607" x2="58.8096" y2="55.2607" gradientUnits="userSpaceOnUse">
<stop offset="0.0223" stop-color="#F9F2AB"/>
<stop offset="0.9994" stop-color="#F6E66A"/>
</linearGradient>
<clipPath id="clip0_4768_13526">
<rect width="66" height="65" fill="white"/>
</clipPath>
</defs>
</svg>
