<svg width="645" height="1002" viewBox="0 0 645 1002" fill="none" xmlns="http://www.w3.org/2000/svg">
<path opacity="0.5" d="M208.207 189C181.03 189 159 166.855 159 139.536C159 112.217 181.03 90.0718 208.207 90.0718C214.263 90.0718 220.06 91.1772 225.417 93.1882C234.816 63.5057 262.453 42 295.095 42C335.477 42 368.213 74.9069 368.213 115.5C368.213 116.27 368.179 117.031 368.155 117.795C386.987 118.633 402 134.24 402 153.377C402 173.051 386.134 189 366.562 189H208.207Z" fill="url(#paint0_linear_4772_13715)"/>
<path opacity="0.5" d="M451.207 604C424.03 604 402 581.855 402 554.536C402 527.217 424.03 505.072 451.207 505.072C457.263 505.072 463.06 506.177 468.417 508.188C477.816 478.506 505.453 457 538.095 457C578.477 457 611.213 489.907 611.213 530.5C611.213 531.27 611.179 532.031 611.155 532.795C629.987 533.633 645 549.24 645 568.377C645 588.051 629.134 604 609.562 604H451.207Z" fill="url(#paint1_linear_4772_13715)"/>
<path opacity="0.3" d="M458.283 1002C472.486 1002 484 990.551 484 976.427C484 962.303 472.486 950.853 458.283 950.853C455.118 950.853 452.088 951.425 449.288 952.465C444.376 937.119 429.932 926 412.872 926C391.767 926 374.658 943.013 374.658 964C374.658 964.398 374.676 964.792 374.689 965.187C364.846 965.62 357 973.689 357 983.583C357 993.754 365.292 1002 375.521 1002H458.283Z" fill="url(#paint2_linear_4772_13715)"/>
<path opacity="0.3" d="M25.7173 166C11.5138 166 1.29553e-06 154.551 1.29553e-06 140.427C1.29553e-06 126.303 11.5138 114.853 25.7173 114.853C28.8822 114.853 31.912 115.425 34.712 116.465C39.624 101.119 54.0681 90 71.1277 90C92.2328 90 109.342 107.013 109.342 128C109.342 128.398 109.324 128.792 109.311 129.187C119.154 129.62 127 137.689 127 147.583C127 157.754 118.708 166 108.479 166H25.7173Z" fill="url(#paint3_linear_4772_13715)"/>
<path d="M420.8 813.19L424.192 809.798C425.782 808.208 428.362 808.208 429.952 809.798L460.896 840.743C462.487 842.333 462.487 844.913 460.896 846.503L457.505 849.895C455.914 851.486 453.335 851.486 451.744 849.895L420.8 818.951C419.209 817.36 419.209 814.781 420.8 813.19V813.19Z" fill="url(#paint4_linear_4772_13715)"/>
<path d="M434.27 788.205C436.236 786.24 439.423 786.24 441.389 788.205L442.255 789.071C447.049 793.865 454.85 793.865 459.645 789.071C464.439 784.276 464.439 776.475 459.645 771.681L446.592 758.628C444.626 756.662 444.626 753.475 446.592 751.509C448.558 749.544 451.745 749.544 453.711 751.509L466.763 764.562C475.483 773.282 475.483 787.47 466.763 796.189C458.044 804.909 443.855 804.909 435.136 796.189L434.27 795.324C432.305 793.358 432.305 790.171 434.27 788.205V788.205Z" fill="url(#paint5_linear_4772_13715)"/>
<path d="M434.27 788.205C436.236 786.239 439.423 786.239 441.389 788.205L442.255 789.07C445.933 792.748 451.379 793.601 455.881 791.636C455.19 795.175 453.466 798.429 450.86 801.036L449.238 802.657C444.094 802.266 439.061 800.114 435.136 796.189L434.27 795.323C432.305 793.358 432.305 790.17 434.27 788.205V788.205Z" fill="#423E4F"/>
<path d="M434.365 768.727L445.811 780.173C450.18 784.542 450.18 791.624 445.813 795.991L434.363 807.442L422.125 786.328L434.365 768.727Z" fill="url(#paint6_linear_4772_13715)"/>
<path d="M386.522 743.712L401.898 736.26L410.442 744.804L422.125 786.328L410.442 831.362L406.991 834.813C402.622 839.182 395.542 839.18 391.173 834.811L386.522 830.16L372.201 783.045L386.522 743.712Z" fill="url(#paint7_linear_4772_13715)"/>
<path d="M362.599 759.246L372.201 783.045L362.599 806.237L347.26 790.897L362.599 759.246Z" fill="url(#paint8_linear_4772_13715)"/>
<path d="M424.192 809.798C425.782 808.208 428.362 808.208 429.952 809.798L437.034 816.88L427.881 826.032L420.8 818.951C419.209 817.36 419.209 814.781 420.8 813.191L424.192 809.798Z" fill="#F0E02C"/>
<path d="M434.365 768.725L434.363 807.44L410.442 831.361V744.803L434.365 768.725Z" fill="url(#paint9_linear_4772_13715)"/>
<path d="M362.601 759.244L365.097 754.096L386.522 743.711V830.159L362.599 806.236V759.246L362.601 759.244Z" fill="url(#paint10_linear_4772_13715)"/>
<path d="M388.411 748.086L392.548 739.484L401.898 736.26L407.954 742.316L396.469 753.8C394.513 755.757 391.34 755.757 389.383 753.8C387.878 752.296 387.488 750.004 388.411 748.086V748.086Z" fill="#FF88CA"/>
<path d="M341.657 719H399.753C406.914 719 410.5 727.657 405.437 732.721L343.721 794.437C338.657 799.5 330 795.914 330 788.753V730.657C330 724.219 335.219 719 341.657 719V719Z" fill="url(#paint11_linear_4772_13715)"/>
<path d="M338.534 750.446C340.102 750.446 341.378 749.18 341.388 747.61C341.397 746.221 341.407 744.833 341.419 743.444C341.431 741.868 340.163 740.579 338.587 740.566H338.564C336.998 740.566 335.722 741.829 335.71 743.398C335.698 744.79 335.688 746.181 335.679 747.573C335.669 749.149 336.938 750.435 338.515 750.446C338.521 750.446 338.528 750.446 338.534 750.446V750.446Z" fill="#FFB2C1"/>
<path d="M338.498 737.481C338.526 737.481 338.553 737.481 338.581 737.48C340.157 737.435 341.398 736.121 341.353 734.545C341.31 733.018 341.33 731.475 341.414 729.958C341.501 728.384 340.296 727.037 338.722 726.95C337.147 726.862 335.801 728.068 335.714 729.642C335.621 731.317 335.599 733.021 335.646 734.707C335.69 736.256 336.959 737.481 338.498 737.481V737.481Z" fill="#FFB2C1"/>
<path d="M432.847 737.764C433.97 736.641 435.791 736.641 436.914 737.764L441.507 742.357C442.631 743.481 442.631 745.302 441.507 746.425C440.384 747.549 438.563 747.549 437.44 746.425L432.847 741.832C431.723 740.709 431.723 738.888 432.847 737.764Z" fill="#F0E02C"/>
<path d="M450.863 732.273C452.452 732.273 453.74 733.561 453.74 735.15V741.646C453.74 743.234 452.452 744.522 450.863 744.522C449.275 744.522 447.987 743.234 447.987 741.646V735.15C447.987 733.561 449.275 732.273 450.863 732.273V732.273Z" fill="#F0E02C"/>
<path d="M430.233 752.904H436.729C438.317 752.904 439.605 754.192 439.605 755.781C439.605 757.369 438.317 758.657 436.729 758.657H430.233C428.644 758.657 427.356 757.369 427.356 755.781C427.356 754.192 428.644 752.904 430.233 752.904Z" fill="#F0E02C"/>
<path d="M382.53 740.149C381.105 738.723 381.387 736.13 383.161 734.356C384.934 732.583 387.528 732.3 388.953 733.726C390.379 735.151 390.096 737.744 388.323 739.518C386.549 741.292 383.956 741.574 382.53 740.149Z" fill="#FD9BAE"/>
<path d="M344.74 777.947C343.315 776.522 343.597 773.929 345.371 772.155C347.144 770.381 349.738 770.099 351.163 771.525C352.589 772.95 352.306 775.543 350.533 777.317C348.759 779.09 346.166 779.373 344.74 777.947Z" fill="#FD9BAE"/>
<path d="M373.854 745.077C368.88 745.077 364.847 741.044 364.847 736.07C364.847 731.095 368.88 727.062 373.854 727.062C378.829 727.062 382.861 731.095 382.861 736.07C382.861 741.044 378.829 745.077 373.854 745.077Z" fill="white"/>
<path d="M347.069 771.86C342.094 771.86 338.062 767.828 338.062 762.853C338.062 757.878 342.094 753.846 347.069 753.846C352.043 753.846 356.076 757.878 356.076 762.853C356.076 767.828 352.043 771.86 347.069 771.86Z" fill="white"/>
<path d="M372.381 740.942C372.578 740.942 372.779 740.915 372.979 740.857C374.115 740.527 374.768 739.339 374.438 738.203C374.251 737.562 374.597 737.127 374.755 736.969C374.912 736.811 375.347 736.465 375.989 736.652C377.124 736.982 378.312 736.329 378.642 735.193C378.972 734.058 378.319 732.87 377.184 732.54C375.244 731.977 373.154 732.514 371.727 733.942C370.299 735.369 369.762 737.46 370.326 739.398C370.598 740.334 371.453 740.942 372.381 740.942V740.942Z" fill="#383842"/>
<path d="M345.595 767.727C345.793 767.727 345.994 767.7 346.194 767.642C347.329 767.312 347.982 766.124 347.652 764.988C347.466 764.347 347.812 763.911 347.969 763.754C348.127 763.596 348.562 763.25 349.203 763.437C350.339 763.767 351.527 763.114 351.857 761.978C352.187 760.843 351.534 759.655 350.398 759.325C348.459 758.762 346.369 759.299 344.942 760.726C343.514 762.154 342.977 764.245 343.54 766.183C343.812 767.119 344.667 767.727 345.595 767.727V767.727Z" fill="#383842"/>
<path d="M366.511 760.53L371.531 755.51C372.93 754.111 372.93 751.842 371.531 750.442C370.131 749.043 367.862 749.043 366.463 750.442L361.443 755.462C360.044 756.861 360.044 759.13 361.443 760.53C362.843 761.929 365.112 761.929 366.511 760.53V760.53Z" fill="#383842"/>
<defs>
<linearGradient id="paint0_linear_4772_13715" x1="402" y1="115.5" x2="159" y2="115.5" gradientUnits="userSpaceOnUse">
<stop stop-color="#D0D7D7"/>
<stop offset="1" stop-color="#EFEFEF"/>
</linearGradient>
<linearGradient id="paint1_linear_4772_13715" x1="645" y1="530.5" x2="402" y2="530.5" gradientUnits="userSpaceOnUse">
<stop stop-color="#D0D7D7"/>
<stop offset="1" stop-color="#EFEFEF"/>
</linearGradient>
<linearGradient id="paint2_linear_4772_13715" x1="357" y1="964" x2="484" y2="964" gradientUnits="userSpaceOnUse">
<stop stop-color="#D0D7D7"/>
<stop offset="1" stop-color="#EFEFEF"/>
</linearGradient>
<linearGradient id="paint3_linear_4772_13715" x1="127" y1="128" x2="0" y2="128" gradientUnits="userSpaceOnUse">
<stop stop-color="#D0D7D7"/>
<stop offset="1" stop-color="#EFEFEF"/>
</linearGradient>
<linearGradient id="paint4_linear_4772_13715" x1="462.09" y1="829.847" x2="419.607" y2="829.847" gradientUnits="userSpaceOnUse">
<stop offset="0.000558036" stop-color="#F6E66A"/>
<stop offset="0.9777" stop-color="#F9F2AB"/>
</linearGradient>
<linearGradient id="paint5_linear_4772_13715" x1="453.05" y1="802.729" x2="453.05" y2="750.035" gradientUnits="userSpaceOnUse">
<stop stop-color="#4F4C5F"/>
<stop offset="0.9783" stop-color="#6A647F"/>
</linearGradient>
<linearGradient id="paint6_linear_4772_13715" x1="449.088" y1="788.084" x2="422.125" y2="788.084" gradientUnits="userSpaceOnUse">
<stop offset="0.0212" stop-color="#FFB3DD"/>
<stop offset="1" stop-color="#FF88CA"/>
</linearGradient>
<linearGradient id="paint7_linear_4772_13715" x1="422.125" y1="787.174" x2="372.201" y2="787.174" gradientUnits="userSpaceOnUse">
<stop offset="0.0212" stop-color="#FFB3DD"/>
<stop offset="1" stop-color="#FF88CA"/>
</linearGradient>
<linearGradient id="paint8_linear_4772_13715" x1="372.201" y1="782.741" x2="347.26" y2="782.741" gradientUnits="userSpaceOnUse">
<stop offset="0.0212" stop-color="#FFB3DD"/>
<stop offset="1" stop-color="#FF88CA"/>
</linearGradient>
<linearGradient id="paint9_linear_4772_13715" x1="434.365" y1="788.082" x2="410.442" y2="788.082" gradientUnits="userSpaceOnUse">
<stop stop-color="#A47CD1"/>
<stop offset="0.9777" stop-color="#8B59C5"/>
</linearGradient>
<linearGradient id="paint10_linear_4772_13715" x1="386.522" y1="786.935" x2="362.599" y2="786.935" gradientUnits="userSpaceOnUse">
<stop stop-color="#A47CD1"/>
<stop offset="0.9777" stop-color="#8B59C5"/>
</linearGradient>
<linearGradient id="paint11_linear_4772_13715" x1="390.549" y1="706.444" x2="317.444" y2="779.549" gradientUnits="userSpaceOnUse">
<stop stop-color="#FF889E"/>
<stop offset="0.9788" stop-color="#F5385D"/>
</linearGradient>
</defs>
</svg>
