<svg width="373" height="893" viewBox="0 0 373 893" fill="none" xmlns="http://www.w3.org/2000/svg">
<path opacity="0.5" d="M49.2071 666C22.0304 666 3.37803e-06 643.855 3.37803e-06 616.536C3.37803e-06 589.217 22.0304 567.072 49.2071 567.072C55.2629 567.072 61.0599 568.177 66.4174 570.188C75.8159 540.506 103.453 519 136.095 519C176.477 519 209.213 551.907 209.213 592.5C209.213 593.27 209.179 594.031 209.155 594.795C227.987 595.633 243 611.24 243 630.377C243 650.051 227.134 666 207.562 666H49.2071Z" fill="url(#paint0_linear_4772_13748)"/>
<path opacity="0.3" d="M159.283 893C173.486 893 185 881.551 185 867.427C185 853.303 173.486 841.853 159.283 841.853C156.118 841.853 153.088 842.425 150.288 843.465C145.376 828.119 130.932 817 113.872 817C92.7672 817 75.6583 834.013 75.6583 855C75.6583 855.398 75.6762 855.792 75.6886 856.187C65.8462 856.62 58 864.689 58 874.583C58 884.754 66.2922 893 76.5208 893H159.283Z" fill="url(#paint1_linear_4772_13748)"/>
<path opacity="0.5" d="M271.717 173C257.514 173 246 161.551 246 147.427C246 133.303 257.514 121.853 271.717 121.853C274.882 121.853 277.912 122.425 280.712 123.465C285.624 108.119 300.068 97 317.128 97C338.233 97 355.342 114.013 355.342 135C355.342 135.398 355.324 135.792 355.311 136.187C365.154 136.62 373 144.689 373 154.583C373 164.754 364.708 173 354.479 173H271.717Z" fill="url(#paint2_linear_4772_13748)"/>
<path opacity="0.3" d="M244.717 757C230.514 757 219 745.551 219 731.427C219 717.303 230.514 705.853 244.717 705.853C247.882 705.853 250.912 706.425 253.712 707.465C258.624 692.119 273.068 681 290.128 681C311.233 681 328.342 698.013 328.342 719C328.342 719.398 328.324 719.792 328.311 720.187C338.154 720.62 346 728.689 346 738.583C346 748.754 337.708 757 327.479 757H244.717Z" fill="url(#paint3_linear_4772_13748)"/>
<path opacity="0.3" d="M270.99 82C280.385 82 288 74.4675 288 65.1755C288 55.8834 280.385 48.351 270.99 48.351C268.897 48.351 266.893 48.7269 265.041 49.4109C261.792 39.3149 252.238 32 240.955 32C226.996 32 215.679 43.1928 215.679 57C215.679 57.2618 215.691 57.5207 215.7 57.7806C209.19 58.0655 204 63.3742 204 69.8835C204 76.5752 209.485 82 216.25 82H270.99Z" fill="url(#paint4_linear_4772_13748)"/>
<path d="M313.208 284.072C329.514 276.698 332.827 260.366 333.482 248.152C333.774 242.709 329.291 238.226 323.847 238.517C311.634 239.172 295.302 242.486 287.927 258.792L313.208 284.072Z" fill="url(#paint5_linear_4772_13748)"/>
<path d="M281.072 258.792C273.698 242.486 257.366 239.172 245.152 238.517C239.709 238.226 235.226 242.709 235.517 248.152C236.172 260.366 239.486 276.698 255.792 284.072L281.072 258.792Z" fill="url(#paint6_linear_4772_13748)"/>
<path d="M255.792 290.928C239.486 298.302 236.173 314.634 235.518 326.848C235.226 332.291 239.71 336.774 245.153 336.483C257.367 335.828 273.699 332.514 281.073 316.208L255.792 290.928Z" fill="url(#paint7_linear_4772_13748)"/>
<path d="M243.749 300.389C241.41 303.446 239.72 306.822 238.502 310.29C243.495 320.326 251.675 328.507 261.712 333.499C265.18 332.281 268.556 330.592 271.613 328.252C258.379 324.07 247.931 313.622 243.749 300.389Z" fill="#E06E1C"/>
<path d="M287.927 316.208C295.302 332.514 311.634 335.828 323.847 336.483C329.291 336.774 333.774 332.291 333.482 326.848C332.827 314.634 329.514 298.302 313.208 290.928L287.927 316.208Z" fill="url(#paint8_linear_4772_13748)"/>
<path d="M302.376 264.777C308.692 248.033 299.486 234.141 291.313 225.041C287.67 220.986 281.33 220.986 277.687 225.041C269.514 234.141 260.308 248.033 266.624 264.777H302.376Z" fill="url(#paint9_linear_4772_13748)"/>
<path d="M261.777 269.624C245.033 263.308 231.141 272.513 222.041 280.687C217.986 284.33 217.986 290.67 222.041 294.313C231.141 302.486 245.033 311.692 261.777 305.376V269.624Z" fill="url(#paint10_linear_4772_13748)"/>
<path d="M266.624 310.223C260.308 326.967 269.514 340.858 277.687 349.958C281.33 354.013 287.671 354.013 291.313 349.958C299.487 340.858 308.692 326.967 302.376 310.223H266.624Z" fill="url(#paint11_linear_4772_13748)"/>
<path d="M284.5 330.231C277.394 330.231 270.694 328.495 264.799 325.426C265.306 329.247 266.5 332.834 268.094 336.152C273.248 337.896 278.765 338.843 284.5 338.843C286.054 338.843 287.591 338.773 289.11 338.636C291.404 338.43 293.137 336.47 293.043 334.169C292.943 331.712 290.809 329.838 288.361 330.058C287.089 330.173 285.801 330.231 284.5 330.231V330.231Z" fill="#FCB500"/>
<path d="M307.224 305.376C323.968 311.692 337.859 302.486 346.959 294.313C351.014 290.67 351.014 284.329 346.959 280.687C337.859 272.513 323.968 263.308 307.224 269.624V305.376Z" fill="url(#paint12_linear_4772_13748)"/>
<path d="M284.5 330.231C308.1 330.231 327.231 311.1 327.231 287.5C327.231 263.901 308.1 244.77 284.5 244.77C260.901 244.77 241.769 263.901 241.769 287.5C241.769 311.1 260.901 330.231 284.5 330.231Z" fill="url(#paint13_linear_4772_13748)"/>
<path d="M261.566 293.862C263.718 293.862 265.463 292.46 265.463 290.73C265.463 289 263.718 287.598 261.566 287.598C259.413 287.598 257.668 289 257.668 290.73C257.668 292.46 259.413 293.862 261.566 293.862Z" fill="#EAADCD"/>
<path d="M307.434 293.862C309.587 293.862 311.332 292.46 311.332 290.73C311.332 289 309.587 287.598 307.434 287.598C305.282 287.598 303.537 289 303.537 290.73C303.537 292.46 305.282 293.862 307.434 293.862Z" fill="#EAADCD"/>
<path d="M268.248 284.035C270.122 284.035 271.852 284.45 273.247 285.151C274.433 285.746 275.847 284.941 275.952 283.619C275.982 283.247 275.985 282.868 275.96 282.484C275.701 278.532 272.41 275.376 268.451 275.274C264.089 275.162 260.519 278.664 260.519 283.001C260.519 283.22 260.528 283.438 260.546 283.654C260.656 284.961 262.074 285.74 263.247 285.151C264.642 284.45 266.373 284.035 268.248 284.035Z" fill="white"/>
<path d="M284.5 293.388C282.818 293.388 281.135 292.825 279.731 291.701C278.429 290.658 278.219 288.756 279.262 287.455C280.305 286.152 282.206 285.943 283.508 286.986C284.092 287.453 284.907 287.453 285.491 286.986C286.793 285.943 288.694 286.152 289.737 287.455C290.78 288.756 290.57 290.658 289.269 291.701C287.865 292.826 286.182 293.388 284.5 293.388V293.388Z" fill="#3B3B44"/>
<path d="M268.248 284.036C269.794 284.036 271.242 284.318 272.485 284.81C272.723 284.255 272.854 283.644 272.854 283.001C272.854 280.457 270.792 278.395 268.248 278.395C265.704 278.395 263.642 280.457 263.642 283.001C263.642 283.644 263.773 284.254 264.011 284.81C265.254 284.318 266.702 284.036 268.248 284.036Z" fill="#3B3B44"/>
<path d="M300.752 284.035C302.627 284.035 304.357 284.45 305.752 285.151C306.937 285.746 308.351 284.941 308.456 283.619C308.486 283.247 308.489 282.868 308.464 282.484C308.205 278.532 304.914 275.376 300.955 275.274C296.594 275.162 293.023 278.664 293.023 283.001C293.023 283.22 293.032 283.438 293.05 283.654C293.16 284.961 294.579 285.74 295.751 285.151C297.147 284.45 298.877 284.035 300.752 284.035V284.035Z" fill="white"/>
<path d="M300.752 284.036C302.298 284.036 303.746 284.318 304.989 284.81C305.227 284.255 305.358 283.644 305.358 283.001C305.358 280.457 303.296 278.395 300.752 278.395C298.208 278.395 296.146 280.457 296.146 283.001C296.146 283.644 296.277 284.254 296.515 284.81C297.758 284.318 299.205 284.036 300.752 284.036V284.036Z" fill="#3B3B44"/>
<path d="M241.769 287.5C241.769 280.393 243.508 273.693 246.577 267.797C242.755 268.304 239.167 269.5 235.848 271.094C234.105 276.248 233.158 281.765 233.158 287.5C233.158 293.236 234.108 298.753 235.852 303.907C239.17 305.501 242.758 306.696 246.579 307.203C243.509 301.307 241.769 294.608 241.769 287.5Z" fill="#FCB500"/>
<path d="M299.782 258.734C299.397 258.734 299.006 258.649 298.637 258.468C297.792 258.055 296.918 257.674 296.04 257.337C294.695 256.82 294.023 255.311 294.54 253.966C295.056 252.62 296.567 251.949 297.911 252.465C298.932 252.857 299.948 253.3 300.93 253.78C302.225 254.413 302.761 255.976 302.128 257.271C301.675 258.196 300.747 258.734 299.782 258.734V258.734Z" fill="#FFFDE3"/>
<path d="M313.82 271.19C312.965 271.19 312.127 270.77 311.627 269.999C310.226 267.835 308.564 265.836 306.687 264.059C305.641 263.068 305.596 261.416 306.587 260.37C307.578 259.324 309.229 259.278 310.276 260.27C312.453 262.332 314.382 264.651 316.008 267.162C316.791 268.372 316.446 269.988 315.236 270.771C314.798 271.055 314.306 271.19 313.82 271.19V271.19Z" fill="#FFFDE3"/>
<defs>
<linearGradient id="paint0_linear_4772_13748" x1="243" y1="592.5" x2="0" y2="592.5" gradientUnits="userSpaceOnUse">
<stop stop-color="#D0D7D7"/>
<stop offset="1" stop-color="#EFEFEF"/>
</linearGradient>
<linearGradient id="paint1_linear_4772_13748" x1="58" y1="855" x2="185" y2="855" gradientUnits="userSpaceOnUse">
<stop stop-color="#D0D7D7"/>
<stop offset="1" stop-color="#EFEFEF"/>
</linearGradient>
<linearGradient id="paint2_linear_4772_13748" x1="373" y1="135" x2="246" y2="135" gradientUnits="userSpaceOnUse">
<stop stop-color="#D0D7D7"/>
<stop offset="1" stop-color="#EFEFEF"/>
</linearGradient>
<linearGradient id="paint3_linear_4772_13748" x1="346" y1="719" x2="219" y2="719" gradientUnits="userSpaceOnUse">
<stop stop-color="#D0D7D7"/>
<stop offset="1" stop-color="#EFEFEF"/>
</linearGradient>
<linearGradient id="paint4_linear_4772_13748" x1="204" y1="57" x2="288" y2="57" gradientUnits="userSpaceOnUse">
<stop stop-color="#D0D7D7"/>
<stop offset="1" stop-color="#EFEFEF"/>
</linearGradient>
<linearGradient id="paint5_linear_4772_13748" x1="310.712" y1="289.459" x2="310.712" y2="230.792" gradientUnits="userSpaceOnUse">
<stop stop-color="#EA7D32"/>
<stop offset="1" stop-color="#F0B160"/>
</linearGradient>
<linearGradient id="paint6_linear_4772_13748" x1="258.288" y1="289.458" x2="258.288" y2="230.792" gradientUnits="userSpaceOnUse">
<stop stop-color="#EA7D32"/>
<stop offset="1" stop-color="#F0B160"/>
</linearGradient>
<linearGradient id="paint7_linear_4772_13748" x1="258.288" y1="285.542" x2="258.288" y2="344.208" gradientUnits="userSpaceOnUse">
<stop stop-color="#EA7D32"/>
<stop offset="1" stop-color="#F0B160"/>
</linearGradient>
<linearGradient id="paint8_linear_4772_13748" x1="310.712" y1="285.542" x2="310.712" y2="344.208" gradientUnits="userSpaceOnUse">
<stop stop-color="#EA7D32"/>
<stop offset="1" stop-color="#F0B160"/>
</linearGradient>
<linearGradient id="paint9_linear_4772_13748" x1="284.5" y1="254.774" x2="284.5" y2="221.931" gradientUnits="userSpaceOnUse">
<stop stop-color="#F4C22C"/>
<stop offset="1" stop-color="#F9E198"/>
</linearGradient>
<linearGradient id="paint10_linear_4772_13748" x1="251.774" y1="287.5" x2="218.931" y2="287.5" gradientUnits="userSpaceOnUse">
<stop stop-color="#F4C22C"/>
<stop offset="1" stop-color="#F9E198"/>
</linearGradient>
<linearGradient id="paint11_linear_4772_13748" x1="284.5" y1="320.226" x2="284.5" y2="353.069" gradientUnits="userSpaceOnUse">
<stop stop-color="#F4C22C"/>
<stop offset="1" stop-color="#F9E198"/>
</linearGradient>
<linearGradient id="paint12_linear_4772_13748" x1="317.227" y1="287.5" x2="350.07" y2="287.5" gradientUnits="userSpaceOnUse">
<stop stop-color="#F4C22C"/>
<stop offset="1" stop-color="#F9E198"/>
</linearGradient>
<linearGradient id="paint13_linear_4772_13748" x1="284.5" y1="356.027" x2="284.5" y2="202.028" gradientUnits="userSpaceOnUse">
<stop stop-color="#F4D952"/>
<stop offset="1" stop-color="#F9EDAF"/>
</linearGradient>
</defs>
</svg>
