<?xml version="1.0" encoding="utf-8"?><svg xmlns="http://www.w3.org/2000/svg" xmlns:xlink="http://www.w3.org/1999/xlink"><symbol viewBox="0 0 24 24" id="alarm" xmlns="http://www.w3.org/2000/svg"><g clip-path="url(#aaa)"><path d="m22 5.72-4.6-3.86-1.29 1.53 4.6 3.86L22 5.72ZM7.88 3.39 6.6 1.86 2 5.71l1.29 1.53 4.59-3.85ZM12.5 8H11v6l4.75 2.85.75-1.23-4-2.37V8ZM12 4a9 9 0 0 0-9 9c0 4.97 4.02 9 9 9a9 9 0 0 0 0-18Zm0 16c-3.87 0-7-3.13-7-7s3.13-7 7-7 7 3.13 7 7-3.13 7-7 7Z"/></g><defs><clipPath id="aaa"><path d="M0 0h24v24H0z"/></clipPath></defs></symbol><symbol viewBox="0 0 22 24" id="basket" xmlns="http://www.w3.org/2000/svg"><g clip-path="url(#aba)"><path d="M10.363 18.443a2.046 2.046 0 0 0-2.045 2.042 2.046 2.046 0 0 0 4.09 0 2.046 2.046 0 0 0-2.045-2.042Zm6.134 0a2.046 2.046 0 0 0-2.045 2.042 2.046 2.046 0 0 0 4.089 0 2.046 2.046 0 0 0-2.044-2.042Zm3.978-8.199L7.413 6.891a.614.614 0 0 0-.75.73L8.67 16.4h-.786L5.482 5.895a.613.613 0 0 0-.474-.464l-4.27-.882A.614.614 0 0 0 .489 5.75l3.885.802L6.797 17.15a.613.613 0 0 0 .598.477h12.07a.615.615 0 0 0 .607-.53l.858-6.175a.613.613 0 0 0-.455-.678Zm-8.14 3.91a.613.613 0 0 1-1.227 0v-2.696a.613.613 0 0 1 1.227 0v2.696Zm2.625 0a.613.613 0 0 1-1.227 0v-1.88a.613.613 0 0 1 1.227 0v1.88Zm2.625 0a.613.613 0 0 1-1.227 0v-1.226a.613.613 0 0 1 1.227 0v1.226Z"/></g><path fill-rule="evenodd" clip-rule="evenodd" d="M16.268 4.568a2.996 2.996 0 0 0-1.693-.523c-.627 0-1.21.193-1.693.523-.28-.843-.492-1.752-.492-2.383C12.39.98 13.37 0 14.575 0s2.185.98 2.185 2.185c0 .631-.212 1.54-.492 2.383Zm-4.722 2.274.024.006v-.011l-.024.005Zm4.972 1.217c-1.333-.33-2.766-.681-4.129-1.013a2.185 2.185 0 1 1 4.129 1.013Zm4.436 1.103c-.866-.217-2.155-.538-3.618-.9a2.995 2.995 0 0 0 .243-1.425c.87.18 1.762.45 2.308.765.596.344.969.928 1.067 1.56ZM9.869 6.439c-.36-.086-.706-.167-1.03-.243a2.19 2.19 0 0 1-.376-2.667 2.188 2.188 0 0 1 3.147-.7c.098.738.338 1.599.61 2.353a3.01 3.01 0 0 0-.449.774c-.628.113-1.305.278-1.902.483Zm10.124.075a3.43 3.43 0 0 1-.217.114c-.696-.295-1.587-.526-2.397-.672a3.01 3.01 0 0 0-.449-.774c.262-.727.494-1.553.599-2.273.095-.067.189-.128.278-.18a2.188 2.188 0 0 1 2.986.8 2.188 2.188 0 0 1-.8 2.985Z"/><defs><clipPath id="aba"><path transform="translate(0 3.064)" d="M0 0h20.936v20.936H0z"/></clipPath></defs></symbol><symbol viewBox="0 0 24 24" id="bin" xmlns="http://www.w3.org/2000/svg"><path d="M6 18.222C6 19.2 6.9 20 8 20h8c1.1 0 2-.8 2-1.778V7.556H6v10.666ZM19 4.89h-3.5l-1-.89h-5l-1 .889H5v1.778h14V4.889Z"/></symbol><symbol viewBox="0 0 24 24" id="cart" xmlns="http://www.w3.org/2000/svg"><path d="m17.684 9.723-4.779-7.258A1.078 1.078 0 0 0 12 2c-.35 0-.698.155-.905.476L6.316 9.723H1.091a1.102 1.102 0 0 0-1.047 1.405l2.77 10.257A2.177 2.177 0 0 0 4.91 23h14.182c1.003 0 1.843-.686 2.105-1.615l2.771-10.257.033-.299c0-.608-.49-1.106-1.09-1.106h-5.226Zm-8.957 0L12 4.855l3.273 4.868H8.727ZM12 18.574c-1.2 0-2.182-.996-2.182-2.213S10.8 14.15 12 14.15s2.182.995 2.182 2.212S13.2 18.574 12 18.574Z"/></symbol><symbol viewBox="0 0 344.96 344.96" id="check" xmlns="http://www.w3.org/2000/svg"><g data-name="Слой 2"><path class="aecls-1" d="m321.85 86.24-40-23.11-23.1-40H212.5L172.48 0l-40 23.11H86.24l-23.11 40-40 23.1v46.21L0 172.48l23.11 40v46.21l40 23.11 23.11 40h46.21l40 23.1 40-23.11h46.21l23.11-40 40-23.11V212.5l23.11-40-23.11-40V86.24ZM156.91 243.07a16.79 16.79 0 0 1-23.34 0l-50.45-50.44a16.19 16.19 0 0 1 0-22.89l13.35-13.35a16.19 16.19 0 0 1 22.89 0l25.87 25.87 80.34-80.35a16.19 16.19 0 0 1 22.89 0l13.35 13.35a16.19 16.19 0 0 1 0 22.89Z" data-name="Capa 1"/></g></symbol><symbol viewBox="0 0 24 24" id="chevron-left" xmlns="http://www.w3.org/2000/svg"><path d="M16.413 3.413a1 1 0 0 1 0 1.414l-6.466 6.466a1 1 0 0 0 0 1.414l6.466 6.466a1 1 0 0 1 0 1.414l-.706.706a1 1 0 0 1-1.414 0l-8.586-8.586a1 1 0 0 1 0-1.414l8.586-8.586a1 1 0 0 1 1.414 0l.706.706Z"/></symbol><symbol viewBox="0 0 24 24" id="chevron-right" xmlns="http://www.w3.org/2000/svg"><path d="M7.587 3.413a1 1 0 0 0 0 1.414l6.466 6.466a1 1 0 0 1 0 1.414l-6.466 6.466a1 1 0 0 0 0 1.414l.706.706a1 1 0 0 0 1.414 0l8.586-8.586a1 1 0 0 0 0-1.414L9.707 2.707a1 1 0 0 0-1.414 0l-.706.706Z"/></symbol><symbol viewBox="0 0 24 24" id="compare" xmlns="http://www.w3.org/2000/svg"><path d="M3 8.4h3.857V21H3V8.4ZM10.2 3h3.6v18h-3.6V3Zm7.2 10.286H21V21h-3.6v-7.714Z"/></symbol><symbol viewBox="0 0 24 24" id="delivery" xmlns="http://www.w3.org/2000/svg"><path d="M20 8h-3V4H3c-1.1 0-2 .9-2 2v11h2c0 1.66 1.34 3 3 3s3-1.34 3-3h6c0 1.66 1.34 3 3 3s3-1.34 3-3h2v-5l-3-4ZM6 18.5c-.83 0-1.5-.67-1.5-1.5s.67-1.5 1.5-1.5 1.5.67 1.5 1.5-.67 1.5-1.5 1.5Zm13.5-9 1.96 2.5H17V9.5h2.5Zm-1.5 9c-.83 0-1.5-.67-1.5-1.5s.67-1.5 1.5-1.5 1.5.67 1.5 1.5-.67 1.5-1.5 1.5Z"/></symbol><symbol viewBox="0 0 24 24" id="done" xmlns="http://www.w3.org/2000/svg"><path d="M9 16.2 4.8 12l-1.4 1.4L9 19 21 7l-1.4-1.4L9 16.2Z"/></symbol><symbol viewBox="0 0 24 24" id="edit" xmlns="http://www.w3.org/2000/svg"><path d="M4 16.667V20h3.333l9.83-9.83-3.333-3.333L4 16.667Zm15.74-9.074a.885.885 0 0 0 0-1.253l-2.08-2.08a.885.885 0 0 0-1.253 0l-1.626 1.626 3.333 3.333 1.626-1.626Z"/></symbol><symbol viewBox="0 0 32 32" id="facebook" xmlns="http://www.w3.org/2000/svg"><g clip-path="url(#ala)"><path d="M32 16c0-8.838-7.163-16-16-16C7.162 0 0 7.162 0 16c0 8.837 7.162 16 16 16 .094 0 .188 0 .281-.006v-12.45h-3.437v-4.007h3.437v-2.95c0-3.418 2.088-5.28 5.138-5.28 1.462 0 2.718.105 3.081.155v3.575h-2.1c-1.656 0-1.981.788-1.981 1.944v2.55h3.968l-.518 4.007h-3.45V31.38C27.106 29.462 32 23.306 32 16Z"/></g><defs><clipPath id="ala"><path d="M0 0h32v32H0z"/></clipPath></defs></symbol><symbol viewBox="0 0 24 24" id="fb" xmlns="http://www.w3.org/2000/svg"><path d="M13.397 20.997v-8.196h2.765l.411-3.209h-3.176V7.548c0-.926.258-1.56 1.587-1.56h1.684v-2.86A22.108 22.108 0 0 0 14.201 3c-2.444 0-4.122 1.492-4.122 4.231v2.355H7.332v3.21h2.753v8.201h3.312Z"/></symbol><symbol viewBox="0 0 24 24" id="guest" xmlns="http://www.w3.org/2000/svg"><path d="M8.662 11.55a1.313 1.313 0 1 0 .001 2.626 1.313 1.313 0 0 0 0-2.626Zm6.3 0a1.313 1.313 0 1 0 .001 2.626 1.313 1.313 0 0 0 0-2.626Zm-3.15-10.238c-5.795 0-10.5 4.704-10.5 10.5s4.704 10.5 10.5 10.5 10.5-4.704 10.5-10.5c0-5.795-4.704-10.5-10.5-10.5Zm0 18.9c-4.63 0-8.4-3.769-8.4-8.4 0-.304.022-.608.053-.902a10.565 10.565 0 0 0 5.47-5.639A10.473 10.473 0 0 0 19.866 9.44c.22.745.346 1.543.346 2.373 0 4.63-3.769 8.4-8.4 8.4Z"/><g clip-path="url(#ana)"><path d="M19.44 12.172s-.554.012-.554.457c0 1.097.012 3.45-2.86 3.45-2.3 0-3.398-1.188-3.582-2.5-.076-.546-.266-1.141-.818-1.141-.551 0-.74.594-.817 1.14-.185 1.313-1.284 2.5-3.583 2.5-2.874 0-2.862-2.354-2.862-3.45 0-.444-.554-.456-.554-.456v-1.086s1.064-.164 2.69-.164c1.625 0 2.272 0 3.567.129a19.74 19.74 0 0 0 1.558.085s.796-.008 1.559-.085c1.293-.13 1.941-.13 3.566-.13 1.626 0 2.69.165 2.69.165v1.086Z"/><path d="M16.75 11.309c1.056 0 1.876.07 2.304.118v.432c-.311.119-.555.38-.555.77v.014c0 .526 0 1.32-.317 1.96-.363.733-1.068 1.088-2.156 1.088-1.814 0-3.01-.81-3.2-2.167-.171-1.218-.747-1.473-1.2-1.473-.454 0-1.028.255-1.2 1.473-.192 1.358-1.388 2.167-3.2 2.167-1.089 0-1.794-.357-2.157-1.089-.317-.64-.317-1.435-.317-1.96v-.013c0-.391-.245-.651-.555-.77v-.432A21.242 21.242 0 0 1 6.5 11.31c1.64 0 2.253 0 3.528.127a20 20 0 0 0 1.593.087h.008c.033 0 .82-.01 1.593-.087 1.274-.127 1.887-.127 3.528-.127Zm0-.387c-1.625 0-2.273 0-3.565.129-.765.077-1.56.085-1.56.085s-.796-.008-1.559-.085c-1.293-.13-1.941-.13-3.565-.13-1.626 0-2.69.165-2.69.165v1.086s.554.012.554.457c-.001 1.095-.013 3.45 2.86 3.45 2.3 0 3.398-1.188 3.583-2.5.076-.546.265-1.141.817-1.141.552 0 .741.594.817 1.14.184 1.313 1.283 2.5 3.582 2.5 2.872 0 2.86-2.354 2.86-3.45 0-.444.555-.456.555-.456v-1.086c.001 0-1.065-.164-2.689-.164Z"/><path d="M6.168 13.281c-.012.208-.096.401-.3.44a.378.378 0 0 1-.44-.3c-.072-.388.012-.752.238-1.024a1.107 1.107 0 0 1 .857-.4c.208 0 .392.128.392.335 0 .245-.195.349-.392.417-.184.063-.339.28-.355.532Zm8.282 0c-.012.208-.096.401-.3.44a.378.378 0 0 1-.44-.3c-.071-.388.012-.752.238-1.024a1.107 1.107 0 0 1 .857-.4c.208 0 .392.128.392.335 0 .245-.195.349-.392.417-.184.063-.339.28-.354.532Z"/></g><defs><clipPath id="ana"><path transform="translate(3.375 5.25)" d="M0 0h16.5v16.5H0z"/></clipPath></defs></symbol><symbol viewBox="0 0 24 24" id="heart" xmlns="http://www.w3.org/2000/svg"><path d="m12 21-1.45-1.295C5.4 15.125 2 12.103 2 8.395 2 5.374 4.42 3 7.5 3c1.74 0 3.41.795 4.5 2.05A6.037 6.037 0 0 1 16.5 3C19.58 3 22 5.374 22 8.395c0 3.708-3.4 6.73-8.55 11.32L12 21Z"/></symbol><symbol viewBox="0 0 32 32" id="instagram" xmlns="http://www.w3.org/2000/svg"><g clip-path="url(#apa)"><path d="M19.063 16a3.062 3.062 0 1 1-6.125 0 3.062 3.062 0 0 1 6.124 0Z"/><path d="M23.162 10.581a2.847 2.847 0 0 0-.687-1.056 2.845 2.845 0 0 0-1.056-.687c-.324-.126-.81-.276-1.706-.317-.97-.044-1.26-.053-3.713-.053-2.453 0-2.744.01-3.713.053-.895.041-1.382.19-1.706.317a2.84 2.84 0 0 0-1.056.687 2.84 2.84 0 0 0-.687 1.056c-.126.324-.276.81-.317 1.706-.044.97-.053 1.26-.053 3.713 0 2.453.01 2.744.053 3.713.041.895.19 1.382.317 1.706.147.399.382.76.687 1.056.296.305.657.54 1.056.687.324.126.81.276 1.706.317.97.044 1.26.053 3.713.053 2.453 0 2.744-.01 3.712-.053.896-.041 1.383-.19 1.707-.317a3.043 3.043 0 0 0 1.743-1.743c.126-.324.276-.81.317-1.706.044-.97.053-1.26.053-3.713 0-2.453-.01-2.744-.053-3.713-.041-.895-.19-1.382-.317-1.706ZM16 20.718a4.718 4.718 0 1 1 0-9.436 4.718 4.718 0 0 1 0 9.436Zm4.904-8.52a1.103 1.103 0 1 1 0-2.205 1.103 1.103 0 0 1 0 2.205Z"/><path d="M16 0C7.165 0 0 7.165 0 16s7.165 16 16 16 16-7.165 16-16S24.835 0 16 0Zm9.132 19.788c-.044.978-.2 1.646-.427 2.23a4.698 4.698 0 0 1-2.687 2.687c-.584.227-1.252.382-2.23.427-.98.045-1.293.055-3.788.055s-2.808-.01-3.788-.055c-.978-.045-1.646-.2-2.23-.427a4.501 4.501 0 0 1-1.627-1.06 4.504 4.504 0 0 1-1.06-1.627c-.227-.584-.382-1.252-.427-2.23-.045-.98-.056-1.293-.056-3.788s.011-2.808.056-3.788c.044-.978.2-1.646.427-2.23a4.5 4.5 0 0 1 1.06-1.627 4.5 4.5 0 0 1 1.627-1.06c.584-.227 1.252-.382 2.23-.427.98-.045 1.293-.056 3.788-.056s2.808.011 3.788.056c.978.045 1.646.2 2.23.427.613.23 1.168.592 1.627 1.06.468.459.83 1.014 1.06 1.627.227.584.383 1.252.427 2.23.045.98.055 1.293.055 3.788s-.01 2.808-.055 3.788Z"/></g><defs><clipPath id="apa"><path d="M0 0h32v32H0z"/></clipPath></defs></symbol><symbol viewBox="0 0 14 20" id="location" xmlns="http://www.w3.org/2000/svg"><path d="M7 0C3.13 0 0 3.13 0 7c0 5.25 7 13 7 13s7-7.75 7-13c0-3.87-3.13-7-7-7Zm0 9.5a2.5 2.5 0 0 1 0-5 2.5 2.5 0 0 1 0 5Z"/></symbol><symbol viewBox="0 0 24 24" id="login" xmlns="http://www.w3.org/2000/svg"><path d="M10.09 15.59 11.5 17l5-5-5-5-1.41 1.41L12.67 11H3v2h9.67l-2.58 2.59ZM19 3H5a2 2 0 0 0-2 2v4h2V5h14v14H5v-4H3v4a2 2 0 0 0 2 2h14c1.1 0 2-.9 2-2V5c0-1.1-.9-2-2-2Z"/></symbol><symbol viewBox="0 0 24 24" id="market" xmlns="http://www.w3.org/2000/svg"><path d="M20 4H4v2h16V4Zm1 10v-2l-1-5H4l-1 5v2h1v6h10v-6h4v6h2v-6h1Zm-9 4H6v-4h6v4Z"/></symbol><symbol viewBox="0 0 24 24" id="message" xmlns="http://www.w3.org/2000/svg"><path d="M20.991 4.8c0-.99-.801-1.8-1.791-1.8H4.8C3.81 3 3 3.81 3 4.8v10.8c0 .99.81 1.8 1.8 1.8h12.6L21 21l-.009-16.2Z"/></symbol><symbol viewBox="0 0 24 24" id="more" xmlns="http://www.w3.org/2000/svg"><path d="M17.65 6.35A7.958 7.958 0 0 0 12 4c-4.42 0-7.99 3.58-7.99 8s3.57 8 7.99 8c3.73 0 6.84-2.55 7.73-6h-2.08A5.99 5.99 0 0 1 12 18c-3.31 0-6-2.69-6-6s2.69-6 6-6c1.66 0 3.14.69 4.22 1.78L13 11h7V4l-2.35 2.35Z"/></symbol><symbol viewBox="0 0 24 24" id="point" xmlns="http://www.w3.org/2000/svg"><g clip-path="url(#ava)"><path d="M18 8c0-3.31-2.69-6-6-6S6 4.69 6 8c0 4.5 6 11 6 11s6-6.5 6-11Zm-8 0c0-1.1.9-2 2-2s2 .9 2 2a2 2 0 1 1-4 0ZM5 20v2h14v-2H5Z"/></g><defs><clipPath id="ava"><path d="M0 0h24v24H0z"/></clipPath></defs></symbol><symbol viewBox="0 0 24 24" id="return" xmlns="http://www.w3.org/2000/svg"><path d="M12 6v3l4-4-4-4v3c-4.42 0-8 3.58-8 8 0 1.57.46 3.03 1.24 4.26L6.7 14.8A5.87 5.87 0 0 1 6 12c0-3.31 2.69-6 6-6Zm6.76 1.74L17.3 9.2c.44.84.7 1.79.7 2.8 0 3.31-2.69 6-6 6v-3l-4 4 4 4v-3c4.42 0 8-3.58 8-8 0-1.57-.46-3.03-1.24-4.26Z"/></symbol><symbol viewBox="0 0 24 24" id="search" xmlns="http://www.w3.org/2000/svg"><path d="M9.686 3a6.686 6.686 0 0 1 6.685 6.686 6.702 6.702 0 0 1-1.604 4.35l.278.278h.812L21 19.457 19.457 21l-5.143-5.143v-.812l-.277-.278a6.702 6.702 0 0 1-4.351 1.604A6.686 6.686 0 0 1 9.686 3Zm0 2.057a4.61 4.61 0 0 0-4.629 4.629 4.61 4.61 0 0 0 4.629 4.628 4.61 4.61 0 0 0 4.628-4.628 4.61 4.61 0 0 0-4.628-4.629Z"/></symbol><symbol viewBox="0 0 24 24" id="send" xmlns="http://www.w3.org/2000/svg"><path d="M2.01 21 23 12 2.01 3 2 10l15 2-15 2 .01 7Z"/></symbol><symbol viewBox="0 0 24 24" id="share" xmlns="http://www.w3.org/2000/svg"><path d="M17.167 15.723a2.82 2.82 0 0 0-1.851.696l-6.734-3.75c.047-.208.085-.416.085-.633 0-.217-.038-.425-.085-.632L15.24 7.69a2.89 2.89 0 0 0 1.927.732C18.734 8.422 20 7.21 20 5.71 20 4.21 18.734 3 17.167 3c-1.568 0-2.834 1.21-2.834 2.71 0 .218.038.426.085.633L7.76 10.057a2.89 2.89 0 0 0-1.927-.732C4.266 9.325 3 10.536 3 12.036c0 1.5 1.266 2.711 2.833 2.711a2.89 2.89 0 0 0 1.927-.732l6.724 3.76a2.445 2.445 0 0 0-.075.586c0 1.455 1.237 2.639 2.758 2.639 1.52 0 2.757-1.184 2.757-2.639 0-1.454-1.237-2.638-2.757-2.638Z"/></symbol><symbol viewBox="0 0 24 24" id="star" xmlns="http://www.w3.org/2000/svg"><g clip-path="url(#baa)"><path d="M12 17.27 18.18 21l-1.64-7.03L22 9.24l-7.19-.61L12 2 9.19 8.63 2 9.24l5.46 4.73L5.82 21 12 17.27Z"/></g><defs><clipPath id="baa"><path d="M0 0h24v24H0z"/></clipPath></defs></symbol><symbol viewBox="0 0 16 16" id="telegram" xmlns="http://www.w3.org/2000/svg"><path d="m14.629 3.698-2.012 9.618c-.152.679-.548.848-1.11.528l-3.066-2.29-1.48 1.442c-.163.166-.3.305-.616.305l.22-3.165 5.683-5.204c.247-.223-.054-.347-.384-.123L4.839 9.29l-3.024-.959c-.658-.208-.67-.667.137-.986L13.78 2.727c.548-.208 1.027.124.849.971Z"/></symbol><symbol viewBox="0 0 32 32" id="user" xmlns="http://www.w3.org/2000/svg"><path d="M11.55 15.4a1.75 1.75 0 1 0 .001 3.501 1.75 1.75 0 0 0-.001-3.501Zm8.4 0a1.75 1.75 0 1 0 .001 3.501 1.75 1.75 0 0 0-.001-3.501Zm-4.2-13.65c-7.728 0-14 6.272-14 14s6.272 14 14 14 14-6.272 14-14-6.272-14-14-14Zm0 25.2c-6.174 0-11.2-5.026-11.2-11.2 0-.406.028-.812.07-1.204a14.086 14.086 0 0 0 7.294-7.518c2.534 3.584 6.706 5.922 11.424 5.922 1.092 0 2.142-.126 3.15-.364.294.994.462 2.058.462 3.164 0 6.174-5.026 11.2-11.2 11.2Z"/></symbol><symbol viewBox="0 0 16 16" id="viber" xmlns="http://www.w3.org/2000/svg"><path d="M8 1.335c-1.071.013-3.374.19-4.662 1.37-.958.948-1.292 2.35-1.331 4.084-.033 1.728-.072 4.973 3.058 5.856v1.346s-.02.538.337.648c.438.14.688-.275 1.105-.72l.778-.879c2.142.178 3.782-.232 3.97-.293.435-.139 2.883-.451 3.283-3.696.41-3.351-.2-5.463-1.301-6.418h-.007c-.332-.306-1.668-1.279-4.652-1.29 0 0-.222-.014-.578-.008Zm.037.942a7.02 7.02 0 0 1 .488.011c2.527.007 3.732.767 4.017 1.023.927.794 1.405 2.697 1.055 5.495-.332 2.713-2.317 2.885-2.685 3.002-.156.05-1.6.406-3.42.289 0 0-1.356 1.634-1.78 2.055-.067.074-.146.095-.196.085-.071-.018-.093-.107-.089-.229l.013-2.233c-2.655-.733-2.498-3.5-2.47-4.946.033-1.446.304-2.628 1.113-3.43 1.088-.982 3.043-1.115 3.953-1.122Zm.2 1.446a.166.166 0 1 0 0 .332 3.136 3.136 0 0 1 2.242.883c.606.588.9 1.378.912 2.411 0 .092.074.167.167.167V7.51a.167.167 0 0 0 .168-.165 3.588 3.588 0 0 0-1.009-2.646c-.66-.645-1.496-.977-2.48-.977Zm-2.198.382a.523.523 0 0 0-.342.067H5.69a2.61 2.61 0 0 0-.637.523 1.003 1.003 0 0 0-.256.525.71.71 0 0 0 .026.302l.01.006c.172.504.396.988.67 1.444a8.48 8.48 0 0 0 1.29 1.762l.015.022.024.017.015.018.017.015c.532.505 1.127.94 1.769 1.295.734.4 1.18.588 1.447.667v.004c.078.024.15.034.221.034.228-.016.444-.109.613-.262a2.53 2.53 0 0 0 .517-.638v-.004c.128-.241.085-.469-.1-.623-.37-.323-.77-.61-1.195-.857-.285-.155-.574-.061-.69.095l-.25.315c-.129.156-.361.134-.361.134l-.007.004C7.093 8.527 6.63 6.772 6.63 6.772s-.022-.239.139-.36l.312-.252c.15-.122.254-.41.094-.695a7.498 7.498 0 0 0-.856-1.194.475.475 0 0 0-.28-.167Zm2.486.495c-.221 0-.221.334.003.334A2.098 2.098 0 0 1 10 5.572 1.94 1.94 0 0 1 10.5 7a.168.168 0 0 0 .167.165l.007.009a.169.169 0 0 0 .167-.167c.015-.662-.191-1.218-.595-1.663C9.84 4.9 9.273 4.65 8.549 4.6h-.024Zm.274.898c-.228-.006-.236.335-.01.341.55.029.816.306.851.877a.166.166 0 0 0 .165.163h.007a.168.168 0 0 0 .16-.178c-.039-.744-.445-1.164-1.166-1.202H8.8Z"/></symbol><symbol viewBox="0 0 24 24" id="vk" xmlns="http://www.w3.org/2000/svg"><path d="M21.579 6.855c.14-.465 0-.806-.662-.806h-2.193c-.558 0-.813.295-.953.619 0 0-1.115 2.719-2.695 4.482-.51.513-.743.675-1.021.675-.139 0-.341-.162-.341-.627V6.855c0-.558-.161-.806-.626-.806H9.642c-.348 0-.558.258-.558.504 0 .528.79.65.871 2.138v3.228c0 .707-.127.836-.407.836-.743 0-2.551-2.73-3.624-5.853-.209-.607-.42-.852-.98-.852H2.752c-.627 0-.752.295-.752.619 0 .582.743 3.462 3.461 7.27 1.812 2.602 4.363 4.012 6.687 4.012 1.393 0 1.565-.313 1.565-.853v-1.966c0-.626.133-.752.574-.752.324 0 .882.164 2.183 1.417 1.486 1.486 1.732 2.153 2.567 2.153h2.192c.626 0 .939-.313.759-.931-.197-.615-.907-1.51-1.849-2.57-.512-.603-1.277-1.253-1.51-1.578-.325-.42-.231-.604 0-.976.001 0 2.672-3.761 2.95-5.04Z"/></symbol><symbol viewBox="0 0 32 32" id="whatsapp" xmlns="http://www.w3.org/2000/svg"><g clip-path="url(#bfa)"><path d="M16 0C7.165 0 0 7.165 0 16s7.165 16 16 16 16-7.165 16-16S24.835 0 16 0Zm.34 25.316c-.001 0 0 0 0 0h-.005a9.573 9.573 0 0 1-4.576-1.166l-5.077 1.332 1.359-4.961a9.552 9.552 0 0 1-1.278-4.786c.002-5.278 4.298-9.573 9.576-9.573a9.515 9.515 0 0 1 6.774 2.808 9.514 9.514 0 0 1 2.802 6.772c-.002 5.279-4.298 9.574-9.576 9.574Z"/><path d="M16.343 7.78c-4.39 0-7.961 3.568-7.963 7.956a7.94 7.94 0 0 0 1.217 4.234l.189.301-.804 2.936 3.012-.79.29.173a7.947 7.947 0 0 0 4.052 1.109h.003c4.387 0 7.958-3.57 7.96-7.957a7.907 7.907 0 0 0-2.33-5.63 7.907 7.907 0 0 0-5.627-2.333Zm4.681 11.377c-.2.558-1.155 1.068-1.615 1.137a3.283 3.283 0 0 1-1.507-.095 13.79 13.79 0 0 1-1.364-.504c-2.4-1.036-3.968-3.452-4.088-3.611-.12-.16-.977-1.298-.977-2.475s.618-1.756.838-1.995a.88.88 0 0 1 .638-.3c.16 0 .319.002.458.008.147.008.345-.055.539.411.2.48.678 1.656.738 1.776.06.12.1.26.02.42-.08.159-.345.503-.599.817-.106.132-.244.25-.105.489.14.239.62 1.022 1.332 1.657.913.814 1.684 1.067 1.924 1.187.239.12.378.1.518-.06s.598-.698.758-.938c.16-.24.319-.2.538-.12.22.08 1.396.659 1.635.779.24.12.399.18.459.279.06.1.06.579-.14 1.138Z"/></g><defs><clipPath id="bfa"><path d="M0 0h32v32H0z"/></clipPath></defs></symbol><symbol viewBox="0 0 32 32" id="youtube" xmlns="http://www.w3.org/2000/svg"><g clip-path="url(#bga)"><path d="M14.007 18.998 19.212 16l-5.205-2.997v5.995Z"/><path d="M16 0C7.165 0 0 7.165 0 16s7.165 16 16 16 16-7.165 16-16S24.835 0 16 0Zm9.998 16.016s0 3.245-.412 4.81a2.505 2.505 0 0 1-1.762 1.762C22.258 23 16 23 16 23s-6.242 0-7.823-.428a2.506 2.506 0 0 1-1.763-1.763C6.002 19.261 6.002 16 6.002 16s0-3.245.412-4.81a2.556 2.556 0 0 1 1.763-1.778C9.74 9 16 9 16 9s6.259 0 7.823.428c.857.23 1.532.906 1.763 1.763.428 1.564.412 4.825.412 4.825Z"/></g><defs><clipPath id="bga"><path d="M0 0h32v32H0z"/></clipPath></defs></symbol></svg>