<svg width="131" height="131" viewBox="0 0 131 131" fill="none" xmlns="http://www.w3.org/2000/svg">
<path d="M94.2082 62.0723C110.514 54.6982 113.827 38.3662 114.482 26.1524C114.774 20.7091 110.291 16.2256 104.847 16.5174C92.6336 17.1724 76.3016 20.4858 68.9275 36.7916L94.2082 62.0723Z" fill="url(#paint0_linear_4772_11550)"/>
<path d="M62.0725 36.7916C54.6983 20.4858 38.3664 17.1724 26.1526 16.5174C20.7093 16.2256 16.2258 20.7091 16.5175 26.1524C17.1725 38.3662 20.4859 54.6982 36.7918 62.0723L62.0725 36.7916Z" fill="url(#paint1_linear_4772_11550)"/>
<path d="M36.792 68.9277C20.4861 76.3018 17.1728 92.6338 16.5178 104.848C16.226 110.291 20.7095 114.774 26.1528 114.483C38.3666 113.828 54.6986 110.514 62.0727 94.2084L36.792 68.9277Z" fill="url(#paint2_linear_4772_11550)"/>
<path d="M24.7491 78.3887C22.4097 81.4455 20.7202 84.8215 19.5018 88.2896C24.4945 98.326 32.6752 106.507 42.7116 111.499C46.1797 110.281 49.5557 108.592 52.6125 106.252C39.3786 102.07 28.9305 91.6223 24.7491 78.3887Z" fill="#E06E1C"/>
<path d="M68.9275 94.2084C76.3016 110.514 92.6336 113.828 104.847 114.483C110.291 114.774 114.774 110.291 114.482 104.848C113.827 92.6338 110.514 76.3018 94.2082 68.9277L68.9275 94.2084Z" fill="url(#paint3_linear_4772_11550)"/>
<path d="M83.3763 42.7768C89.6922 26.0325 80.4864 12.1413 72.313 3.04145C68.6703 -1.01382 62.3298 -1.01382 58.6871 3.04145C50.5137 12.141 41.3082 26.0325 47.6239 42.7768H83.3763Z" fill="url(#paint4_linear_4772_11550)"/>
<path d="M42.7768 47.6236C26.0325 41.3077 12.1413 50.5135 3.04145 58.6869C-1.01382 62.3296 -1.01382 68.67 3.04145 72.3127C12.141 80.4862 26.0325 89.6917 42.7768 83.376V47.6236Z" fill="url(#paint5_linear_4772_11550)"/>
<path d="M47.624 88.2227C41.3081 104.967 50.5138 118.858 58.6873 127.958C62.3299 132.013 68.6704 132.013 72.3131 127.958C80.4865 118.858 89.692 104.967 83.3764 88.2227H47.624Z" fill="url(#paint6_linear_4772_11550)"/>
<path d="M65.5002 108.231C58.394 108.231 51.6942 106.495 45.7987 103.426C46.3063 107.247 47.5001 110.834 49.0941 114.152C54.2477 115.896 59.7651 116.843 65.4999 116.843C67.0539 116.843 68.5914 116.773 70.1105 116.636C72.4038 116.43 74.137 114.47 74.0431 112.169C73.9429 109.712 71.8096 107.838 69.3607 108.058C68.0894 108.173 66.8015 108.231 65.5002 108.231V108.231Z" fill="#FCB500"/>
<path d="M88.2235 83.3759C104.968 89.6918 118.859 80.4861 127.959 72.3126C132.014 68.6699 132.014 62.3295 127.959 58.6868C118.859 50.5134 104.968 41.3078 88.2235 47.6235V83.3759Z" fill="url(#paint7_linear_4772_11550)"/>
<path d="M65.5002 108.231C89.0998 108.231 108.231 89.1 108.231 65.5004C108.231 41.9008 89.0998 22.7695 65.5002 22.7695C41.9006 22.7695 22.7693 41.9008 22.7693 65.5004C22.7693 89.1 41.9006 108.231 65.5002 108.231Z" fill="url(#paint8_linear_4772_11550)"/>
<path d="M42.5657 71.8622C44.7184 71.8622 46.4634 70.4598 46.4634 68.7299C46.4634 67 44.7184 65.5977 42.5657 65.5977C40.4131 65.5977 38.6681 67 38.6681 68.7299C38.6681 70.4598 40.4131 71.8622 42.5657 71.8622Z" fill="#EAADCD"/>
<path d="M88.4343 71.8622C90.5869 71.8622 92.3319 70.4598 92.3319 68.7299C92.3319 67 90.5869 65.5977 88.4343 65.5977C86.2817 65.5977 84.5366 67 84.5366 68.7299C84.5366 70.4598 86.2817 71.8622 88.4343 71.8622Z" fill="#EAADCD"/>
<path d="M49.2479 62.0355C51.1224 62.0355 52.8525 62.4501 54.2476 63.1505C55.4334 63.7458 56.8473 62.9412 56.9524 61.6187C56.9819 61.2474 56.985 60.8685 56.96 60.4841C56.7014 56.5316 53.4105 53.3756 49.451 53.2741C45.0896 53.1621 41.5189 56.6644 41.5189 61.0005C41.5189 61.2205 41.5281 61.4384 41.5463 61.6537C41.6564 62.9611 43.0745 63.74 44.247 63.151C45.6426 62.4504 47.373 62.0355 49.2479 62.0355Z" fill="white"/>
<path d="M65.5002 71.3877C63.8178 71.3877 62.1354 70.8253 60.7314 69.7006C59.4295 68.6575 59.2195 66.7565 60.2625 65.4545C61.3055 64.1524 63.2066 63.9428 64.5085 64.9856C65.0923 65.4532 65.9075 65.4532 66.4913 64.9856C67.7929 63.9426 69.694 64.1524 70.7373 65.4545C71.7804 66.7565 71.5705 68.6575 70.2686 69.7006C68.8649 70.8256 67.1826 71.3877 65.5002 71.3877V71.3877Z" fill="#3B3B44"/>
<path d="M49.248 62.0359C50.7944 62.0359 52.2422 62.3183 53.4852 62.8102C53.7229 62.2546 53.8544 61.6437 53.8544 61.0009C53.8544 58.4569 51.7921 56.3945 49.248 56.3945C46.7039 56.3945 44.6416 58.4569 44.6416 61.0009C44.6416 61.6437 44.7731 62.2543 45.0109 62.8102C46.2541 62.3183 47.7018 62.0359 49.248 62.0359Z" fill="#3B3B44"/>
<path d="M81.7522 62.0355C83.6267 62.0355 85.3568 62.4501 86.7516 63.1505C87.9374 63.7458 89.3513 62.9412 89.4564 61.6187C89.4859 61.2474 89.4891 60.8685 89.464 60.4841C89.2054 56.5316 85.9145 53.3756 81.955 53.2741C77.5936 53.1621 74.0229 56.6644 74.0229 61.0005C74.0229 61.2205 74.0321 61.4384 74.0504 61.6537C74.1605 62.9611 75.5788 63.74 76.751 63.151C78.1466 62.4504 79.8772 62.0355 81.7522 62.0355V62.0355Z" fill="white"/>
<path d="M81.7522 62.0359C83.2986 62.0359 84.7461 62.3183 85.9893 62.8102C86.227 62.2546 86.3586 61.6437 86.3586 61.0009C86.3586 58.4569 84.2962 56.3945 81.7522 56.3945C79.2081 56.3945 77.1458 58.4569 77.1458 61.0009C77.1458 61.6437 77.2773 62.2543 77.515 62.8102C78.7579 62.3183 80.2057 62.0359 81.7522 62.0359V62.0359Z" fill="#3B3B44"/>
<path d="M22.7693 65.4999C22.7693 58.3927 24.5075 51.6927 27.5774 45.7969C23.7549 46.3044 20.167 47.4996 16.8479 49.0943C15.1052 54.2482 14.1577 59.7651 14.1577 65.4999C14.1577 71.2357 15.1084 76.7526 16.8518 81.9073C20.1702 83.5012 23.7575 84.6959 27.5792 85.2032C24.5086 79.3071 22.7693 72.6076 22.7693 65.4999Z" fill="#FCB500"/>
<path d="M80.7816 36.7343C80.3967 36.7343 80.006 36.6487 79.637 36.4681C78.7921 36.0548 77.9184 35.6743 77.0403 35.3372C75.695 34.8205 75.0231 33.3108 75.5398 31.9656C76.0562 30.6201 77.5669 29.9487 78.9113 30.4651C79.9322 30.8571 80.9481 31.2996 81.9301 31.7801C83.2249 32.4134 83.7609 33.976 83.1279 35.2709C82.6748 36.1962 81.7471 36.7343 80.7816 36.7343V36.7343Z" fill="#FFFDE3"/>
<path d="M94.82 49.1903C93.9646 49.1903 93.1266 48.7704 92.6272 47.9988C91.2258 45.8349 89.5638 43.8363 87.687 42.0589C86.6406 41.0678 86.5954 39.4162 87.5865 38.3697C88.5779 37.3236 90.2292 37.2784 91.2757 38.2695C93.4531 40.3316 95.3816 42.6507 97.0079 45.1622C97.7912 46.372 97.4457 47.9876 96.2359 48.771C95.7978 49.0546 95.3062 49.1903 94.82 49.1903V49.1903Z" fill="#FFFDE3"/>
<defs>
<linearGradient id="paint0_linear_4772_11550" x1="91.7119" y1="67.4587" x2="91.7119" y2="8.79228" gradientUnits="userSpaceOnUse">
<stop stop-color="#EA7D32"/>
<stop offset="1" stop-color="#F0B160"/>
</linearGradient>
<linearGradient id="paint1_linear_4772_11550" x1="39.2883" y1="67.4585" x2="39.2883" y2="8.79202" gradientUnits="userSpaceOnUse">
<stop stop-color="#EA7D32"/>
<stop offset="1" stop-color="#F0B160"/>
</linearGradient>
<linearGradient id="paint2_linear_4772_11550" x1="39.2883" y1="63.5416" x2="39.2883" y2="122.208" gradientUnits="userSpaceOnUse">
<stop stop-color="#EA7D32"/>
<stop offset="1" stop-color="#F0B160"/>
</linearGradient>
<linearGradient id="paint3_linear_4772_11550" x1="91.7119" y1="63.5416" x2="91.7119" y2="122.208" gradientUnits="userSpaceOnUse">
<stop stop-color="#EA7D32"/>
<stop offset="1" stop-color="#F0B160"/>
</linearGradient>
<linearGradient id="paint4_linear_4772_11550" x1="65.5002" y1="32.7738" x2="65.5002" y2="-0.0694149" gradientUnits="userSpaceOnUse">
<stop stop-color="#F4C22C"/>
<stop offset="1" stop-color="#F9E198"/>
</linearGradient>
<linearGradient id="paint5_linear_4772_11550" x1="32.7738" y1="65.4997" x2="-0.0694149" y2="65.4997" gradientUnits="userSpaceOnUse">
<stop stop-color="#F4C22C"/>
<stop offset="1" stop-color="#F9E198"/>
</linearGradient>
<linearGradient id="paint6_linear_4772_11550" x1="65.5" y1="98.2256" x2="65.5" y2="131.069" gradientUnits="userSpaceOnUse">
<stop stop-color="#F4C22C"/>
<stop offset="1" stop-color="#F9E198"/>
</linearGradient>
<linearGradient id="paint7_linear_4772_11550" x1="98.2265" y1="65.4998" x2="131.07" y2="65.4998" gradientUnits="userSpaceOnUse">
<stop stop-color="#F4C22C"/>
<stop offset="1" stop-color="#F9E198"/>
</linearGradient>
<linearGradient id="paint8_linear_4772_11550" x1="65.5002" y1="134.027" x2="65.5002" y2="-19.9715" gradientUnits="userSpaceOnUse">
<stop stop-color="#F4D952"/>
<stop offset="1" stop-color="#F9EDAF"/>
</linearGradient>
</defs>
</svg>
