<svg width="578" height="411" viewBox="0 0 578 411" fill="none" xmlns="http://www.w3.org/2000/svg">
<g clip-path="url(#clip0_4768_13690)">
<g clip-path="url(#clip1_4768_13690)">
<path d="M470.435 352.631C470.435 361.342 463.373 365.882 454.662 365.882C445.951 365.882 438.889 361.342 438.889 352.631C438.889 343.92 445.951 336.858 454.662 336.858C463.373 336.858 470.435 343.92 470.435 352.631Z" fill="url(#paint0_linear_4768_13690)"/>
<path d="M433.861 308.661C439.567 308.661 444.192 304.036 444.192 298.331C444.192 292.625 439.567 288 433.861 288C428.156 288 423.531 292.625 423.531 298.331C423.531 304.036 428.156 308.661 433.861 308.661Z" fill="url(#paint1_linear_4768_13690)"/>
<path d="M433.861 303.38C436.65 303.38 438.911 301.12 438.911 298.331C438.911 295.542 436.65 293.281 433.861 293.281C431.072 293.281 428.812 295.542 428.812 298.331C428.812 301.12 431.072 303.38 433.861 303.38Z" fill="#FEFBD2"/>
<path d="M475.463 308.661C481.168 308.661 485.794 304.036 485.794 298.331C485.794 292.625 481.168 288 475.463 288C469.757 288 465.132 292.625 465.132 298.331C465.132 304.036 469.757 308.661 475.463 308.661Z" fill="url(#paint2_linear_4768_13690)"/>
<path d="M475.463 303.38C478.252 303.38 480.512 301.12 480.512 298.331C480.512 295.542 478.252 293.281 475.463 293.281C472.674 293.281 470.413 295.542 470.413 298.331C470.413 301.12 472.674 303.38 475.463 303.38Z" fill="#FEFBD2"/>
<path d="M482.145 315.867C482.145 331.046 469.84 340.863 454.662 340.863C439.483 340.863 427.178 331.046 427.178 315.867C427.178 300.689 439.483 289.379 454.662 289.379C469.84 289.379 482.145 300.689 482.145 315.867V315.867Z" fill="url(#paint3_linear_4768_13690)"/>
<path d="M475.016 307.084C474.465 307.084 473.929 306.798 473.634 306.286C473.322 305.746 472.98 305.212 472.615 304.7C472.105 303.983 472.272 302.988 472.989 302.477C473.706 301.967 474.701 302.134 475.212 302.851C475.635 303.446 476.033 304.066 476.395 304.695C476.835 305.457 476.573 306.432 475.81 306.871C475.56 307.015 475.286 307.084 475.016 307.084Z" fill="#FEFBD2"/>
<path d="M470.436 301.664C470.052 301.664 469.667 301.526 469.361 301.246C468.335 300.308 467.208 299.474 466.011 298.767C465.253 298.32 465.001 297.343 465.448 296.585C465.895 295.827 466.872 295.575 467.631 296.022C469.018 296.841 470.324 297.807 471.512 298.895C472.162 299.489 472.206 300.497 471.612 301.146C471.298 301.49 470.868 301.664 470.436 301.664V301.664Z" fill="#FEFBD2"/>
<path d="M437.405 323.289C439.025 323.289 440.338 322.234 440.338 320.932C440.338 319.63 439.025 318.575 437.405 318.575C435.786 318.575 434.473 319.63 434.473 320.932C434.473 322.234 435.786 323.289 437.405 323.289Z" fill="#F9E920"/>
<path d="M471.918 323.289C473.538 323.289 474.851 322.234 474.851 320.932C474.851 319.63 473.538 318.575 471.918 318.575C470.299 318.575 468.986 319.63 468.986 320.932C468.986 322.234 470.299 323.289 471.918 323.289Z" fill="#F9E920"/>
<path d="M442.433 320.932C445.645 320.932 448.249 318.328 448.249 315.116C448.249 311.905 445.645 309.301 442.433 309.301C439.221 309.301 436.618 311.905 436.618 315.116C436.618 318.328 439.221 320.932 442.433 320.932Z" fill="white"/>
<path d="M466.891 320.932C470.103 320.932 472.706 318.328 472.706 315.116C472.706 311.905 470.103 309.301 466.891 309.301C463.679 309.301 461.075 311.905 461.075 315.116C461.075 318.328 463.679 320.932 466.891 320.932Z" fill="white"/>
<path d="M442.433 318.583C444.347 318.583 445.899 317.031 445.899 315.117C445.899 313.202 444.347 311.65 442.433 311.65C440.519 311.65 438.967 313.202 438.967 315.117C438.967 317.031 440.519 318.583 442.433 318.583Z" fill="#383842"/>
<path d="M466.89 318.583C468.805 318.583 470.357 317.031 470.357 315.117C470.357 313.202 468.805 311.65 466.89 311.65C464.976 311.65 463.424 313.202 463.424 315.117C463.424 317.031 464.976 318.583 466.89 318.583Z" fill="#383842"/>
<path d="M458.145 314.183C461.165 315.521 463.271 318.543 463.271 322.057V322.803C463.271 325.18 462.308 327.332 460.749 328.891C459.191 330.449 457.039 331.412 454.662 331.412C449.908 331.412 446.053 327.557 446.053 322.803V322.057C446.053 318.543 448.16 315.521 451.179 314.183H458.145Z" fill="#FEFBD2"/>
<path d="M454.662 322.108C453.676 322.108 452.69 321.735 451.886 320.99C451.563 320.69 451.544 320.186 451.844 319.863C452.143 319.541 452.647 319.522 452.97 319.821C453.966 320.745 455.357 320.745 456.354 319.821C456.676 319.522 457.181 319.541 457.48 319.863C457.779 320.186 457.76 320.69 457.437 320.99C456.633 321.735 455.648 322.108 454.662 322.108Z" fill="#383842"/>
<path d="M458.145 314.183C457.807 315.795 456.375 317.007 454.662 317.007C452.949 317.007 451.517 315.795 451.179 314.183C452.243 313.711 453.421 313.448 454.662 313.448C455.903 313.448 457.081 313.711 458.145 314.183Z" fill="#383842"/>
<path d="M454.662 328.623C444.75 318.936 428.476 335.163 452.456 349.128C453.821 349.923 455.504 349.923 456.869 349.128C480.849 335.163 464.575 318.936 454.662 328.623Z" fill="url(#paint4_linear_4768_13690)"/>
<path d="M449.569 342.774C452.152 342.774 454.017 340.253 453.209 337.8C452.738 336.369 451.935 335.025 450.799 333.889C450.05 333.14 449.204 332.526 448.288 332.057C446.216 330.996 443.755 332.497 443.755 334.824C443.755 335.122 443.712 335.419 443.628 335.705L442.161 340.668C442.31 340.838 442.465 341.009 442.623 341.18L448.657 342.664C448.956 342.737 449.262 342.774 449.569 342.774V342.774Z" fill="#8B59C5"/>
<path d="M436.071 348.616C433.861 346.406 433.861 342.823 436.071 340.613L439.754 336.931C441.964 334.721 445.547 334.721 447.756 336.931C449.966 339.141 449.966 342.724 447.756 344.934L444.074 348.616C441.864 350.826 438.281 350.826 436.071 348.616V348.616Z" fill="url(#paint5_linear_4768_13690)"/>
<path d="M473.253 348.616C475.463 346.406 475.463 342.823 473.253 340.613L469.57 336.931C467.36 334.721 463.777 334.721 461.568 336.931C459.358 339.141 459.358 342.724 461.568 344.934L465.25 348.616C467.46 350.826 471.043 350.826 473.253 348.616Z" fill="url(#paint6_linear_4768_13690)"/>
<path d="M450.708 361.123L449.802 356.932C449.032 353.366 445.34 351.255 441.877 352.401C438.413 353.546 436.708 357.443 438.216 360.764L439.988 364.669C441.188 367.311 444.186 368.624 446.941 367.712C449.696 366.801 451.32 363.96 450.708 361.123V361.123Z" fill="url(#paint7_linear_4768_13690)"/>
<path d="M458.616 361.123L459.521 356.932C460.292 353.366 463.984 351.255 467.447 352.401C470.911 353.546 472.616 357.443 471.108 360.764L469.336 364.669C468.136 367.311 465.138 368.624 462.383 367.712C459.628 366.801 458.004 363.96 458.616 361.123V361.123Z" fill="url(#paint8_linear_4768_13690)"/>
</g>
<g opacity="0.5">
<path d="M282.52 240.771L256.383 216.258L218.61 237.795L218.506 236.489L214.815 190.712H183.509L179.818 236.489L179.714 237.795L141.941 216.258L115.804 240.771L175.314 291.79L171.327 340.667H226.997L223.01 291.79L282.52 240.771Z" fill="#CB8252"/>
<path d="M218.58 237.817L256.383 216.258L282.52 240.77L223.01 291.789L218.58 237.817Z" fill="#A56A43"/>
<path d="M398.512 173.508C398.536 201.153 383.825 226.716 359.91 240.584C335.995 254.452 306.501 254.523 282.52 240.77C265.409 230.981 252.68 215.031 246.932 196.175C245.369 191.227 244.329 186.13 243.831 180.965L247.67 174.911L249.885 171.367L294.998 100.487C303.33 97.4761 312.127 95.9517 320.987 95.9829C358.651 95.92 390.871 123.025 397.257 160.144C397.986 163.867 398.381 167.647 398.438 171.441C398.5 172.128 398.524 172.818 398.512 173.508V173.508Z" fill="#24AE5F"/>
<path d="M397.257 160.144C386.646 190.363 359.171 211.448 327.236 213.88C295.301 216.312 264.95 199.63 249.886 171.367L294.998 100.487C303.331 97.4761 312.127 95.9517 320.987 95.9829C358.651 95.92 390.872 123.025 397.257 160.144V160.144Z" fill="#4FBA6F"/>
<path d="M295.145 95.9833C295.145 97.46 295.145 99.0105 294.998 100.487C294.924 101.595 294.85 102.776 294.702 103.884C292.096 136.605 272.892 165.703 243.831 180.966C234.737 185.732 224.942 189.022 214.815 190.712C204.447 192.386 193.877 192.386 183.509 190.712C173.381 189.022 163.587 185.732 154.493 180.966L111.3 113.039L103.326 100.487C103.179 99.0105 103.179 97.46 103.179 95.9833C103.179 42.9732 146.152 0 199.162 0C252.172 0 295.145 42.9732 295.145 95.9833Z" fill="#24AE5F"/>
<path d="M295.145 95.9833C295.145 97.46 295.145 99.0105 294.998 100.487C294.924 101.595 294.85 102.776 294.702 103.884C275.506 130.094 239.918 147.667 199.162 147.667C166.413 148.389 134.75 135.91 111.3 113.039L103.326 100.487C103.179 99.0105 103.179 97.46 103.179 95.9833C103.179 42.9732 146.152 0 199.162 0C252.172 0 295.145 42.9732 295.145 95.9833Z" fill="#4FBA6F"/>
<path d="M179.744 237.817L141.941 216.258L115.804 240.77L175.314 291.789L179.744 237.817Z" fill="#A56A43"/>
<path d="M134.698 87.2483C134.088 87.2512 133.48 87.1767 132.889 87.0268C128.937 86.0325 126.538 82.0239 127.529 78.0708C135.718 45.1832 165.27 22.1125 199.162 22.1495C203.24 22.1495 206.545 25.4551 206.545 29.5328C206.545 33.6105 203.24 36.9161 199.162 36.9161C172.044 36.8862 148.398 55.345 141.845 81.6591C141.024 84.9389 138.079 87.2415 134.698 87.2483V87.2483Z" fill="#7ED09E"/>
<path d="M154.862 173.508C154.812 214.987 122.084 249.059 80.6403 250.777C39.1966 252.496 3.76047 221.25 0.277371 179.917C-3.20573 138.584 26.5016 101.848 67.6484 96.6066C108.795 91.365 146.764 119.48 153.754 160.366C154.496 164.707 154.867 169.104 154.862 173.508Z" fill="#4FBA6F"/>
<path d="M153.754 160.366C142.155 192.592 111.587 214.078 77.3369 214.078C43.0872 214.078 12.5184 192.592 0.919434 160.366C7.28216 123.128 39.5594 95.8984 77.3369 95.8984C115.115 95.8984 147.392 123.128 153.754 160.366Z" fill="#71C285"/>
<path d="M29.3452 180.891C25.2675 180.891 21.9619 177.586 21.9619 173.508C21.9945 142.939 46.7676 118.165 77.3369 118.133C81.4146 118.133 84.7203 121.438 84.7203 125.516C84.7203 129.594 81.4146 132.899 77.3369 132.899C54.9197 132.924 36.753 151.091 36.7286 173.508C36.7286 177.586 33.423 180.891 29.3452 180.891Z" fill="#7ED09E"/>
<path d="M9.18896 428.233C22.479 378.174 102.44 339.633 199.162 339.633C295.884 339.633 375.845 378.174 389.135 428.233" fill="#4FBA6F"/>
<path d="M236.078 376.551C240.156 376.551 243.462 373.245 243.462 369.168C243.462 365.09 240.156 361.784 236.078 361.784C232.001 361.784 228.695 365.09 228.695 369.168C228.695 373.245 232.001 376.551 236.078 376.551Z" fill="#24AE5F"/>
<path d="M103.178 398.7C107.256 398.7 110.562 395.395 110.562 391.317C110.562 387.239 107.256 383.934 103.178 383.934C99.1006 383.934 95.7949 387.239 95.7949 391.317C95.7949 395.395 99.1006 398.7 103.178 398.7Z" fill="#24AE5F"/>
<path d="M265.612 391.317C269.69 391.317 272.995 388.012 272.995 383.934C272.995 379.856 269.69 376.551 265.612 376.551C261.534 376.551 258.229 379.856 258.229 383.934C258.229 388.012 261.534 391.317 265.612 391.317Z" fill="#24AE5F"/>
<path d="M199.162 406.084C203.239 406.084 206.545 402.778 206.545 398.701C206.545 394.623 203.239 391.317 199.162 391.317C195.084 391.317 191.778 394.623 191.778 398.701C191.778 402.778 195.084 406.084 199.162 406.084Z" fill="#24AE5F"/>
<g filter="url(#filter0_f_4768_13690)">
<path d="M342.662 413C350.707 382.49 399.112 359 457.662 359C516.212 359 564.617 382.49 572.662 413" fill="#242424" fill-opacity="0.3"/>
</g>
<path d="M347.662 411C355.707 380.49 404.112 357 462.662 357C521.212 357 569.617 380.49 577.662 411" fill="#4FBA6F"/>
<path d="M504.045 391.317C508.123 391.317 511.429 388.012 511.429 383.934C511.429 379.856 508.123 376.551 504.045 376.551C499.968 376.551 496.662 379.856 496.662 383.934C496.662 388.012 499.968 391.317 504.045 391.317Z" fill="#24AE5F"/>
<path d="M436.045 383.767C440.123 383.767 443.429 380.461 443.429 376.383C443.429 372.306 440.123 369 436.045 369C431.968 369 428.662 372.306 428.662 376.383C428.662 380.461 431.968 383.767 436.045 383.767Z" fill="#24AE5F"/>
</g>
</g>
<defs>
<filter id="filter0_f_4768_13690" x="338.662" y="355" width="238" height="62" filterUnits="userSpaceOnUse" color-interpolation-filters="sRGB">
<feFlood flood-opacity="0" result="BackgroundImageFix"/>
<feBlend mode="normal" in="SourceGraphic" in2="BackgroundImageFix" result="shape"/>
<feGaussianBlur stdDeviation="2" result="effect1_foregroundBlur_4768_13690"/>
</filter>
<linearGradient id="paint0_linear_4768_13690" x1="454.662" y1="336.858" x2="454.662" y2="365.882" gradientUnits="userSpaceOnUse">
<stop offset="0.0223" stop-color="#FCCB88"/>
<stop offset="0.9994" stop-color="#F7AC3E"/>
</linearGradient>
<linearGradient id="paint1_linear_4768_13690" x1="433.861" y1="288" x2="433.861" y2="308.661" gradientUnits="userSpaceOnUse">
<stop offset="0.0223" stop-color="#FCCB88"/>
<stop offset="0.9994" stop-color="#F7AC3E"/>
</linearGradient>
<linearGradient id="paint2_linear_4768_13690" x1="475.463" y1="288" x2="475.463" y2="308.661" gradientUnits="userSpaceOnUse">
<stop offset="0.0223" stop-color="#FCCB88"/>
<stop offset="0.9994" stop-color="#F7AC3E"/>
</linearGradient>
<linearGradient id="paint3_linear_4768_13690" x1="454.662" y1="289.379" x2="454.662" y2="340.863" gradientUnits="userSpaceOnUse">
<stop offset="0.0223" stop-color="#FCCB88"/>
<stop offset="0.9994" stop-color="#F7AC3E"/>
</linearGradient>
<linearGradient id="paint4_linear_4768_13690" x1="454.662" y1="349.724" x2="454.662" y2="325.688" gradientUnits="userSpaceOnUse">
<stop offset="0.0223" stop-color="#8B59C5"/>
<stop offset="1" stop-color="#A47CD1"/>
</linearGradient>
<linearGradient id="paint5_linear_4768_13690" x1="441.914" y1="335.273" x2="441.914" y2="350.274" gradientUnits="userSpaceOnUse">
<stop offset="0.0223" stop-color="#FCCB88"/>
<stop offset="0.9994" stop-color="#F7AC3E"/>
</linearGradient>
<linearGradient id="paint6_linear_4768_13690" x1="467.41" y1="335.273" x2="467.41" y2="350.274" gradientUnits="userSpaceOnUse">
<stop offset="0.0223" stop-color="#FCCB88"/>
<stop offset="0.9994" stop-color="#F7AC3E"/>
</linearGradient>
<linearGradient id="paint7_linear_4768_13690" x1="444.25" y1="352.088" x2="444.25" y2="368.001" gradientUnits="userSpaceOnUse">
<stop offset="0.0223" stop-color="#FCCB88"/>
<stop offset="0.9994" stop-color="#F7AC3E"/>
</linearGradient>
<linearGradient id="paint8_linear_4768_13690" x1="465.074" y1="352.088" x2="465.074" y2="368.001" gradientUnits="userSpaceOnUse">
<stop offset="0.0223" stop-color="#FCCB88"/>
<stop offset="0.9994" stop-color="#F7AC3E"/>
</linearGradient>
<clipPath id="clip0_4768_13690">
<rect width="578" height="411" fill="white"/>
</clipPath>
<clipPath id="clip1_4768_13690">
<rect width="80" height="80" fill="white" transform="translate(414.662 288)"/>
</clipPath>
</defs>
</svg>
