<svg width="685" height="438" viewBox="0 0 685 438" fill="none" xmlns="http://www.w3.org/2000/svg">
<g clip-path="url(#clip0_4768_13717)">
<g opacity="0.5">
<path d="M566.74 246.206L540.013 221.14L501.387 243.163L501.281 241.827L497.506 195.017H465.494L461.719 241.827L461.613 243.163L422.988 221.14L396.26 246.206L457.114 298.376L453.037 348.357H509.964L505.887 298.376L566.74 246.206Z" fill="#CB8252"/>
<path d="M501.356 243.186L540.012 221.14L566.739 246.206L505.886 298.376L501.356 243.186Z" fill="#A56A43"/>
<path d="M685.35 177.425C685.375 205.694 670.332 231.834 645.877 246.015C621.422 260.196 591.262 260.269 566.74 246.205C549.243 236.196 536.227 219.885 530.349 200.603C528.75 195.544 527.687 190.331 527.177 185.05L531.103 178.859L533.368 175.235L579.499 102.755C588.02 99.6768 597.015 98.118 606.075 98.1499C644.589 98.0856 677.537 125.803 684.067 163.759C684.812 167.566 685.217 171.432 685.275 175.311C685.337 176.014 685.363 176.719 685.35 177.425V177.425Z" fill="#24AE5F"/>
<path d="M684.067 163.759C673.216 194.66 645.121 216.221 612.465 218.708C579.809 221.195 548.773 204.137 533.369 175.235L579.499 102.755C588.02 99.6768 597.015 98.118 606.075 98.1499C644.589 98.0856 677.537 125.803 684.067 163.759V163.759Z" fill="#4FBA6F"/>
<path d="M579.65 98.15C579.65 99.66 579.65 101.245 579.499 102.756C579.423 103.888 579.348 105.096 579.197 106.229C576.532 139.688 556.894 169.444 527.177 185.051C517.878 189.925 507.862 193.289 497.506 195.017C486.904 196.728 476.096 196.728 465.494 195.017C455.138 193.289 445.122 189.925 435.822 185.051L391.655 115.591L383.501 102.756C383.35 101.245 383.35 99.66 383.35 98.15C383.35 43.9433 427.293 0 481.5 0C535.707 0 579.65 43.9433 579.65 98.15Z" fill="#24AE5F"/>
<path d="M579.65 98.15C579.65 99.66 579.65 101.245 579.499 102.756C579.423 103.888 579.348 105.096 579.197 106.229C559.567 133.031 523.176 151 481.5 151C448.012 151.738 415.634 138.978 391.655 115.591L383.501 102.756C383.35 101.245 383.35 99.66 383.35 98.15C383.35 43.9433 427.293 0 481.5 0C535.707 0 579.65 43.9433 579.65 98.15Z" fill="#4FBA6F"/>
<path d="M461.644 243.186L422.988 221.14L396.26 246.206L457.114 298.376L461.644 243.186Z" fill="#A56A43"/>
<path d="M415.581 89.2178C414.957 89.2207 414.336 89.1446 413.731 88.9913C409.69 87.9746 407.236 83.8755 408.25 79.8332C416.624 46.2031 446.843 22.6117 481.5 22.6495C485.67 22.6495 489.05 26.0297 489.05 30.1995C489.05 34.3692 485.67 37.7495 481.5 37.7495C453.77 37.7189 429.59 56.5944 422.889 83.5025C422.049 86.8562 419.038 89.2108 415.581 89.2178V89.2178Z" fill="#7ED09E"/>
<path d="M436.2 177.425C436.149 219.841 402.682 254.682 360.303 256.439C317.924 258.196 281.688 226.244 278.126 183.979C274.564 141.713 304.942 104.148 347.018 98.7878C389.093 93.4278 427.919 122.177 435.067 163.986C435.826 168.425 436.205 172.921 436.2 177.425Z" fill="#4FBA6F"/>
<path d="M435.067 163.986C423.207 196.939 391.948 218.91 356.925 218.91C321.902 218.91 290.643 196.939 278.782 163.986C285.289 125.907 318.295 98.0625 356.925 98.0625C395.555 98.0625 428.561 125.907 435.067 163.986Z" fill="#71C285"/>
<path d="M307.85 184.975C303.68 184.975 300.3 181.595 300.3 177.425C300.333 146.165 325.666 120.833 356.925 120.8C361.095 120.8 364.475 124.18 364.475 128.35C364.475 132.52 361.095 135.9 356.925 135.9C334.002 135.925 315.425 154.502 315.4 177.425C315.4 181.595 312.02 184.975 307.85 184.975Z" fill="#7ED09E"/>
<path d="M287.239 437.9C300.829 386.711 382.595 347.3 481.5 347.3C580.405 347.3 662.172 386.711 675.762 437.9" fill="#4FBA6F"/>
<path d="M519.25 385.051C523.42 385.051 526.8 381.671 526.8 377.501C526.8 373.331 523.42 369.951 519.25 369.951C515.08 369.951 511.7 373.331 511.7 377.501C511.7 381.671 515.08 385.051 519.25 385.051Z" fill="#24AE5F"/>
<path d="M383.35 407.701C387.52 407.701 390.9 404.32 390.9 400.151C390.9 395.981 387.52 392.601 383.35 392.601C379.18 392.601 375.8 395.981 375.8 400.151C375.8 404.32 379.18 407.701 383.35 407.701Z" fill="#24AE5F"/>
<path d="M549.45 400.151C553.62 400.151 557 396.771 557 392.601C557 388.431 553.62 385.051 549.45 385.051C545.28 385.051 541.9 388.431 541.9 392.601C541.9 396.771 545.28 400.151 549.45 400.151Z" fill="#24AE5F"/>
<path d="M481.5 415.251C485.67 415.251 489.05 411.871 489.05 407.701C489.05 403.532 485.67 400.151 481.5 400.151C477.33 400.151 473.95 403.532 473.95 407.701C473.95 411.871 477.33 415.251 481.5 415.251Z" fill="#24AE5F"/>
<path d="M0 437.983C8.39487 406.343 58.904 381.983 120 381.983C181.096 381.983 231.605 406.343 240 437.983" fill="#4FBA6F"/>
<path d="M139.55 410.1C143.72 410.1 147.1 406.72 147.1 402.55C147.1 398.38 143.72 395 139.55 395C135.38 395 132 398.38 132 402.55C132 406.72 135.38 410.1 139.55 410.1Z" fill="#24AE5F"/>
<path d="M68.55 425.1C72.7198 425.1 76.1 421.72 76.1 417.55C76.1 413.38 72.7198 410 68.55 410C64.3802 410 61 413.38 61 417.55C61 421.72 64.3802 425.1 68.55 425.1Z" fill="#24AE5F"/>
<g opacity="0.3" filter="url(#filter0_f_4768_13717)">
<path d="M176 439C181.002 420.92 211.097 407 247.5 407C283.903 407 313.998 420.92 319 439" fill="black"/>
</g>
<path d="M179 437.983C183.792 419.903 212.624 405.983 247.5 405.983C282.376 405.983 311.208 419.903 316 437.983" fill="#4FBA6F"/>
<path d="M239.55 429.1C243.72 429.1 247.1 425.72 247.1 421.55C247.1 417.38 243.72 414 239.55 414C235.38 414 232 417.38 232 421.55C232 425.72 235.38 429.1 239.55 429.1Z" fill="#24AE5F"/>
</g>
</g>
<defs>
<filter id="filter0_f_4768_13717" x="172" y="403" width="151" height="40" filterUnits="userSpaceOnUse" color-interpolation-filters="sRGB">
<feFlood flood-opacity="0" result="BackgroundImageFix"/>
<feBlend mode="normal" in="SourceGraphic" in2="BackgroundImageFix" result="shape"/>
<feGaussianBlur stdDeviation="2" result="effect1_foregroundBlur_4768_13717"/>
</filter>
<clipPath id="clip0_4768_13717">
<rect width="685" height="438" fill="white"/>
</clipPath>
</defs>
</svg>
