<svg width="24" height="24" viewBox="0 0 24 24" fill="none" xmlns="http://www.w3.org/2000/svg">
<path d="M17.6836 9.72287L12.9055 2.4647C12.6982 2.1549 12.3491 2 12 2C11.6509 2 11.3018 2.1549 11.0945 2.47576L6.31636 9.72287H1.09091C0.490909 9.72287 0 10.2208 0 10.8293C0 10.9289 0.0109091 11.0285 0.0436363 11.128L2.81455 21.3846C3.06545 22.314 3.90545 23 4.90909 23H19.0909C20.0945 23 20.9345 22.314 21.1964 21.3846L23.9673 11.128L24 10.8293C24 10.2208 23.5091 9.72287 22.9091 9.72287H17.6836ZM8.72727 9.72287L12 4.85458L15.2727 9.72287H8.72727ZM12 18.5743C10.8 18.5743 9.81818 17.5785 9.81818 16.3614C9.81818 15.1444 10.8 14.1486 12 14.1486C13.2 14.1486 14.1818 15.1444 14.1818 16.3614C14.1818 17.5785 13.2 18.5743 12 18.5743Z" fill="white"/>
</svg>
