<svg width="24" height="24" viewBox="0 0 24 24" fill="none" xmlns="http://www.w3.org/2000/svg">
<path d="M8.6625 11.55C7.938 11.55 7.35 12.138 7.35 12.8625C7.35 13.587 7.938 14.175 8.6625 14.175C9.387 14.175 9.975 13.587 9.975 12.8625C9.975 12.138 9.387 11.55 8.6625 11.55ZM14.9625 11.55C14.238 11.55 13.65 12.138 13.65 12.8625C13.65 13.587 14.238 14.175 14.9625 14.175C15.687 14.175 16.275 13.587 16.275 12.8625C16.275 12.138 15.687 11.55 14.9625 11.55ZM11.8125 1.3125C6.0165 1.3125 1.3125 6.0165 1.3125 11.8125C1.3125 17.6085 6.0165 22.3125 11.8125 22.3125C17.6085 22.3125 22.3125 17.6085 22.3125 11.8125C22.3125 6.0165 17.6085 1.3125 11.8125 1.3125ZM11.8125 20.2125C7.182 20.2125 3.4125 16.443 3.4125 11.8125C3.4125 11.508 3.4335 11.2035 3.465 10.9095C5.943 9.807 7.9065 7.7805 8.9355 5.271C10.836 7.959 13.965 9.7125 17.5035 9.7125C18.3225 9.7125 19.11 9.618 19.866 9.4395C20.0865 10.185 20.2125 10.983 20.2125 11.8125C20.2125 16.443 16.443 20.2125 11.8125 20.2125Z" fill="white"/>
<g clip-path="url(#clip0_339_9838)">
<path d="M19.4407 12.1723C19.4407 12.1723 18.8864 12.1839 18.8864 12.6286C18.8864 13.7256 18.898 16.0781 16.026 16.0781C13.7263 16.0781 12.628 14.8909 12.4437 13.5786C12.3677 13.0334 12.1782 12.4378 11.6264 12.4378C11.0747 12.4378 10.8852 13.0321 10.8092 13.5786C10.6236 14.8909 9.52527 16.0781 7.22559 16.0781C4.35227 16.0781 4.36387 13.7243 4.36387 12.6286C4.36387 12.1839 3.80957 12.1723 3.80957 12.1723V11.0856C3.80957 11.0856 4.87434 10.9219 6.49984 10.9219C8.12535 10.9219 8.77246 10.9219 10.0667 11.0508C10.8298 11.1281 11.6252 11.1359 11.6252 11.1359C11.6252 11.1359 12.4205 11.1281 13.1836 11.0508C14.4766 10.9219 15.125 10.9219 16.7505 10.9219C18.376 10.9219 19.4407 11.0856 19.4407 11.0856V12.1723Z" fill="white"/>
<path d="M16.7502 11.3086C17.8059 11.3086 18.6257 11.3795 19.0537 11.4272V11.859C18.743 11.9776 18.4994 12.2393 18.4994 12.6286V12.6428C18.4994 13.1687 18.4994 13.9628 18.1823 14.6021C17.8188 15.3356 17.1137 15.6914 16.0257 15.6914C14.212 15.6914 13.0157 14.8819 12.8263 13.5245C12.6548 12.3063 12.0786 12.0511 11.6261 12.0511C11.1724 12.0511 10.5975 12.3063 10.426 13.5245C10.2339 14.8819 9.0377 15.6914 7.22527 15.6914C6.13731 15.6914 5.43219 15.3343 5.06867 14.6021C4.75156 13.9615 4.75156 13.1674 4.75156 12.6428V12.6286C4.75156 12.238 4.50664 11.9776 4.19727 11.859V11.4272C4.62395 11.3795 5.44379 11.3086 6.49953 11.3086C8.13922 11.3086 8.75281 11.3086 10.0277 11.4362C10.7998 11.5136 11.5875 11.5226 11.621 11.5226H11.6287C11.6622 11.5226 12.4498 11.5136 13.222 11.4362C14.4956 11.3086 15.1092 11.3086 16.7502 11.3086ZM16.7502 10.9219C15.1246 10.9219 14.4775 10.9219 13.1846 11.0508C12.4202 11.1281 11.6248 11.1359 11.6248 11.1359C11.6248 11.1359 10.8295 11.1281 10.0664 11.0508C8.77344 10.9219 8.12504 10.9219 6.50082 10.9219C4.87531 10.9219 3.81055 11.0856 3.81055 11.0856V12.1723C3.81055 12.1723 4.36484 12.1839 4.36484 12.6286C4.36355 13.7243 4.35195 16.0781 7.22527 16.0781C9.52496 16.0781 10.6232 14.8909 10.8076 13.5786C10.8836 13.0334 11.0731 12.4378 11.6248 12.4378C12.1766 12.4378 12.3661 13.0321 12.4421 13.5786C12.6264 14.8909 13.7247 16.0781 16.0244 16.0781C18.8964 16.0781 18.8848 13.7243 18.8848 12.6286C18.8848 12.1839 19.4391 12.1723 19.4391 12.1723V11.0856C19.4404 11.0856 18.3744 10.9219 16.7502 10.9219Z" fill="#D1F2F4"/>
<path d="M6.16848 13.2813C6.15559 13.4888 6.0718 13.6822 5.86813 13.7209C5.77004 13.739 5.66876 13.7176 5.58639 13.6614C5.50403 13.6051 5.44729 13.5185 5.42856 13.4205C5.35637 13.0325 5.44016 12.669 5.66574 12.397C5.77014 12.271 5.90116 12.1697 6.04938 12.1004C6.1976 12.0311 6.35934 11.9955 6.52297 11.9961C6.73051 11.9961 6.91484 12.125 6.91484 12.3325C6.91484 12.5775 6.7202 12.6806 6.52297 12.7489C6.33863 12.8121 6.18395 13.0286 6.16848 13.2813Z" fill="#D1F2F4"/>
<path d="M14.4507 13.2813C14.4378 13.4888 14.354 13.6822 14.1504 13.7209C14.0523 13.739 13.951 13.7176 13.8686 13.6614C13.7863 13.6051 13.7295 13.5185 13.7108 13.4205C13.6386 13.0325 13.7224 12.669 13.948 12.397C14.0524 12.271 14.1834 12.1697 14.3316 12.1004C14.4798 12.0311 14.6416 11.9955 14.8052 11.9961C15.0127 11.9961 15.1971 12.125 15.1971 12.3325C15.1971 12.5775 15.0024 12.6806 14.8052 12.7489C14.6209 12.8121 14.4662 13.0286 14.4507 13.2813Z" fill="#D1F2F4"/>
</g>
<defs>
<clipPath id="clip0_339_9838">
<rect width="16.5" height="16.5" fill="white" transform="translate(3.375 5.25)"/>
</clipPath>
</defs>
</svg>
