<svg width="24" height="24" viewBox="0 0 24 24" fill="none" xmlns="http://www.w3.org/2000/svg">
<path d="M17.1667 15.7229C16.4489 15.7229 15.8067 15.994 15.3156 16.4187L8.58167 12.6687C8.62889 12.4608 8.66667 12.253 8.66667 12.0361C8.66667 11.8193 8.62889 11.6114 8.58167 11.4036L15.24 7.68976C15.75 8.14157 16.4206 8.42169 17.1667 8.42169C18.7344 8.42169 20 7.21084 20 5.71084C20 4.21084 18.7344 3 17.1667 3C15.5989 3 14.3333 4.21084 14.3333 5.71084C14.3333 5.92771 14.3711 6.13554 14.4183 6.34337L7.76 10.0572C7.25 9.60542 6.57944 9.3253 5.83333 9.3253C4.26556 9.3253 3 10.5361 3 12.0361C3 13.5361 4.26556 14.747 5.83333 14.747C6.57944 14.747 7.25 14.4669 7.76 14.0151L14.4844 17.7741C14.4372 17.9639 14.4089 18.1627 14.4089 18.3614C14.4089 19.8163 15.6461 21 17.1667 21C18.6872 21 19.9244 19.8163 19.9244 18.3614C19.9244 16.9066 18.6872 15.7229 17.1667 15.7229Z" fill="#A3E6E8"/>
</svg>
