<svg width="32" height="32" viewBox="0 0 32 32" fill="none" xmlns="http://www.w3.org/2000/svg">
<path d="M11.55 15.4C10.584 15.4 9.8 16.184 9.8 17.15C9.8 18.116 10.584 18.9 11.55 18.9C12.516 18.9 13.3 18.116 13.3 17.15C13.3 16.184 12.516 15.4 11.55 15.4ZM19.95 15.4C18.984 15.4 18.2 16.184 18.2 17.15C18.2 18.116 18.984 18.9 19.95 18.9C20.916 18.9 21.7 18.116 21.7 17.15C21.7 16.184 20.916 15.4 19.95 15.4ZM15.75 1.75C8.022 1.75 1.75 8.022 1.75 15.75C1.75 23.478 8.022 29.75 15.75 29.75C23.478 29.75 29.75 23.478 29.75 15.75C29.75 8.022 23.478 1.75 15.75 1.75ZM15.75 26.95C9.576 26.95 4.55 21.924 4.55 15.75C4.55 15.344 4.578 14.938 4.62 14.546C7.924 13.076 10.542 10.374 11.914 7.028C14.448 10.612 18.62 12.95 23.338 12.95C24.43 12.95 25.48 12.824 26.488 12.586C26.782 13.58 26.95 14.644 26.95 15.75C26.95 21.924 21.924 26.95 15.75 26.95Z" fill="white"/>
</svg>
