<svg width="32" height="32" viewBox="0 0 32 32" fill="none" xmlns="http://www.w3.org/2000/svg">
<g clip-path="url(#clip0_4765_12799)">
<path d="M16 0C7.16479 0 0 7.16479 0 16C0 24.8352 7.16479 32 16 32C24.8352 32 32 24.8352 32 16C32 7.16479 24.8352 0 16 0ZM16.3391 25.3157C16.3389 25.3157 16.3394 25.3157 16.3391 25.3157H16.3352C14.7324 25.3149 13.1575 24.9131 11.7588 24.1504L6.68237 25.4817L8.04102 20.5208C7.20288 19.0691 6.76196 17.4221 6.7627 15.7349C6.76489 10.4565 11.0608 6.16235 16.3391 6.16235C18.9006 6.16333 21.3052 7.1604 23.113 8.96973C24.9211 10.7793 25.9163 13.1846 25.9153 15.7424C25.9131 21.021 21.6167 25.3157 16.3391 25.3157V25.3157Z" fill="white"/>
<path d="M16.3425 7.7793C11.9521 7.7793 8.38153 11.3484 8.37958 15.7356C8.37909 17.239 8.79999 18.7031 9.59662 19.97L9.78583 20.271L8.98163 23.2073L11.9941 22.4172L12.2849 22.5896C13.5068 23.3147 14.9077 23.6982 16.3359 23.6987H16.3391C20.726 23.6987 24.2966 20.1294 24.2985 15.7419C24.2993 13.6157 23.4721 11.6167 21.9694 10.1128C20.4667 8.60889 18.4682 7.78003 16.3425 7.7793V7.7793ZM21.0241 19.1565C20.8247 19.7151 19.8688 20.2251 19.4091 20.2939C18.9968 20.3555 18.4753 20.3811 17.902 20.1992C17.5544 20.0889 17.1088 19.9417 16.5378 19.6953C14.1376 18.6592 12.57 16.2432 12.4504 16.0835C12.3308 15.9238 11.4733 14.7864 11.4733 13.6089C11.4733 12.4316 12.0915 11.8528 12.3107 11.6135C12.5302 11.374 12.7895 11.3142 12.9489 11.3142C13.1083 11.3142 13.268 11.3157 13.4074 11.3225C13.5544 11.3298 13.7517 11.2666 13.9457 11.7332C14.1452 12.2122 14.6237 13.3894 14.6835 13.509C14.7433 13.6289 14.7831 13.7686 14.7036 13.9282C14.6237 14.0879 14.3586 14.4324 14.1054 14.7463C13.9992 14.8779 13.8608 14.9951 14.0004 15.2346C14.1398 15.4739 14.6203 16.2573 15.3315 16.8916C16.2455 17.7065 17.0165 17.959 17.2558 18.0789C17.4948 18.1985 17.6345 18.1785 17.7741 18.019C17.9135 17.8594 18.3723 17.3206 18.5317 17.0811C18.6911 16.8416 18.8508 16.8816 19.07 16.9614C19.2895 17.041 20.4658 17.6199 20.705 17.7395C20.9443 17.8594 21.1037 17.9192 21.1635 18.019C21.2236 18.1189 21.2236 18.5977 21.0241 19.1565V19.1565Z" fill="white"/>
</g>
<defs>
<clipPath id="clip0_4765_12799">
<rect width="32" height="32" fill="white"/>
</clipPath>
</defs>
</svg>
